<?xml version="1.0" standalone="no"?>
<!DOCTYPE svg PUBLIC "-//W3C//DTD SVG 1.1//EN" "http://www.w3.org/Graphics/SVG/1.1/DTD/svg11.dtd">
<svg xmlns="http://www.w3.org/2000/svg">
<metadata>Copyright (C) 2017 by original authors @ fontello.com</metadata>
<defs>
<font id="eduxfont" horiz-adv-x="1000" >
<font-face font-family="eduxfont" font-weight="400" font-stretch="normal" units-per-em="1000" ascent="850" descent="-150" />
<missing-glyph horiz-adv-x="1000" />
<glyph glyph-name="arrow-circle-right" unicode="&#xe800;" d="M480 581l203-203h-405a28 28 0 0 1 0-56h405l-203-202a28 28 0 0 1 39-40l250 250a28 28 0 0 1 0 40l-250 249a28 28 0 0 1-39-38z m-480-231a500 500 0 1 1 500 500 501 501 0 0 1-500-500z m945 0a444 444 0 1 0-445 445 445 445 0 0 0 445-445z" horiz-adv-x="1000" />

<glyph glyph-name="arrow-circle-left" unicode="&#xe801;" d="M519 120l-202 202h405a28 28 0 1 1 0 56h-405l202 203a28 28 0 0 1-39 39l-250-250a28 28 0 0 1 0-39l250-250a28 28 0 0 1 39 39z m481 230a500 500 0 1 1-500-500 501 501 0 0 1 500 500z m-944 0a444 444 0 1 0 444-444 445 445 0 0 0-444 444z" horiz-adv-x="1000" />

<glyph glyph-name="arrow-circle-down" unicode="&#xe802;" d="M730 370l-202-203v405a28 28 0 1 1-56 0v-405l-202 203a28 28 0 1 1-40-39l250-250a28 28 0 0 1 40 0l249 250a28 28 0 0 1-39 39z m-230 480a500 500 0 1 1 500-500 501 501 0 0 1-500 500z m0-945a444 444 0 1 0 445 445 445 445 0 0 0-445-445z" horiz-adv-x="1000" />

<glyph glyph-name="arrow-left" unicode="&#xe803;" d="M623 817a37 37 0 0 1-61 24l-549-461a37 37 0 0 1 0-57l549-462a37 37 0 1 1 48 57l-515 433 515 433a37 37 0 0 1 13 33z" horiz-adv-x="626" />

<glyph glyph-name="creatividad" unicode="&#xe804;" d="M592 338h-1c-12 1-25 0-38 1a31 31 0 0 0-21 17 41 41 0 0 0 1 28c9 22 18 47 31 83 4 6 5 14 9 21l9 28v1l5 13-14 4h-178l-8-2-2-8a6 6 0 0 0-2-5c-3-25-4-46-8-65l-5-43c-1-14-3-28-5-42l-4-39-7-59v-16l10-2h67a36 36 0 0 0 27-10 33 33 0 0 0 7-26c-3-23-8-47-11-72l-12-63a21 21 0 0 1 5-21l3-4h7a20 20 0 0 1 16 13l20 36c44 85 78 150 109 214l5 16z m-173 119c2 11 4 23 5 36h110l-5-13c-12-28-22-56-31-83a81 81 0 0 1 0-58 69 69 0 0 1 50-40h2c-13-26-28-53-41-82a64 64 0 0 1-16 49 72 72 0 0 1-57 25h-38z m283 157c-66 60-139 91-216 91h-13c-77 0-150-31-215-91-80-76-136-216-65-345 6-11 13-24 19-36l3-6c10-20 20-36 30-54a417 417 0 0 0 50-135 200 200 0 0 0 4-31c3-36 24-75 58-110l2-1a187 187 0 0 1 245 0l1 1c35 35 56 74 59 110a176 176 0 0 0 5 31 446 446 0 0 0 50 135c10 18 20 36 30 56l3 6c7 11 13 25 20 36 65 129 11 267-70 343z m27-323c-6-12-13-25-19-36l-4-7-29-54a437 437 0 0 1-55-148c-2-12-4-25-5-36-2-26-20-56-46-82a130 130 0 0 0-91-34 148 148 0 0 0-93 34c-26 26-44 57-46 82-2 11-3 24-5 36a437 437 0 0 1-55 148c-10 17-18 35-28 52l-3 7c-7 11-13 24-20 36-60 109-13 228 56 292 57 54 119 80 185 80h14c66 0 128-28 186-80 70-62 117-181 58-290z m-607-105a21 21 0 0 1-9-2 270 270 0 0 1-41-24c-8-7-12-11-12-16a15 15 0 0 1 2-8 24 24 0 0 1 25-14c1 0 3 2 4 2 13 7 26 15 43 25a20 20 0 0 1 6 27 23 23 0 0 1-18 10z m764-24a279 279 0 0 1-38 21c-1 1-6 1-8 3h0a23 23 0 0 1-23-15 20 20 0 0 1 7-22 385 385 0 0 1 41-25 30 30 0 0 1 11-3 19 19 0 0 1 18 10 22 22 0 0 1-8 31z m-157 603h0a23 23 0 0 1-13 23c-1 0-5 2-6 2a20 20 0 0 1-17-8c-8-14-16-28-22-40a21 21 0 0 1 6-29 24 24 0 0 1 11-3 21 21 0 0 1 18 11c9 12 15 25 23 38a9 9 0 0 0 0 6z m-598-168c-12 7-25 15-38 21-2 2-6 2-8 4h0a24 24 0 0 1-23-15 20 20 0 0 1 7-23c11-8 24-15 40-24a22 22 0 1 1 22 37z m717-36c13 7 28 17 39 23a21 21 0 0 1 10 20 20 20 0 0 1-19 19 21 21 0 0 1-10-1 307 307 0 0 1-39-23 20 20 0 0 1-8-30 19 19 0 0 1 18-9 11 11 0 0 1 9 1z m-564 152a21 21 0 0 1 8 29c-6 12-13 25-21 38a21 21 0 0 1-18 10 19 19 0 0 1-18-10 24 24 0 0 1 0-21c6-13 15-25 23-39a25 25 0 0 1 18-12 23 23 0 0 0 8 5z m196 52a21 21 0 0 1 21 20v47a19 19 0 0 1-21 18 21 21 0 0 1-22-18v-47a21 21 0 0 1 22-20m-421-372h-38a21 21 0 0 1-21-19 20 20 0 0 1 20-22h47a20 20 0 0 1 20 22 19 19 0 0 1-20 19h-8z m871 0h-38a19 19 0 0 1-19-19 21 21 0 0 1 19-22h48a19 19 0 0 1 19 20 21 21 0 0 1-19 21h-10z" horiz-adv-x="959" />

<glyph glyph-name="scroll-me" unicode="&#xe805;" d="M241 133a30 30 0 0 1-31-30v-156l-48 43a30 30 0 1 1-40-46l99-87a31 31 0 0 1 5-2c0-1 0-1 0-1 1 0 2-1 3-1 0-1 0-1 1-1a30 30 0 0 1 11-2h0a30 30 0 0 1 11 2c0 0 0 0 1 1 0 0 1 1 2 1 0 0 0 0 1 1a31 31 0 0 1 5 2l99 87a30 30 0 1 1-40 46l-49-43v156a30 30 0 0 1-30 30z m240 218v319a180 180 0 0 1-180 180h-121a180 180 0 0 1-180-180v-319a180 180 0 0 1 180-180h121a180 180 0 0 1 180 180z m-60 0a119 119 0 0 0-120-119h-121a119 119 0 0 0-119 119v319a119 119 0 0 0 119 120h121a119 119 0 0 0 120-120v-319z m-180 341a30 30 0 0 1-31-30v-83a30 30 0 0 1 61 0v83a30 30 0 0 1-30 30z" horiz-adv-x="481" />

<glyph glyph-name="buscador" unicode="&#xe806;" d="M372 850a372 372 0 1 1 180-697l273-273a103 103 0 0 1 145 145l-273 273a372 372 0 0 1-325 552h0z m0-77a295 295 0 1 0-295-295 294 294 0 0 0 295 295z m280-539l264-263a26 26 0 0 0-37-37l-263 264a375 375 0 0 1 36 36h0z" horiz-adv-x="1000" />

<glyph glyph-name="actualizacion" unicode="&#xe807;" d="M389 850a389 389 0 1 1 254-683l309-309a28 28 0 1 1 40 39l-1 1-309 309a389 389 0 0 1-293 643h0z m0-56a333 333 0 1 0-333-333 333 333 0 0 0 333 333z m0-180a267 267 0 0 1-232-139 28 28 0 0 1 0-27 267 267 0 0 1 232-140 267 267 0 0 1 232 140 28 28 0 0 1 0 27 267 267 0 0 1-232 139z m0-56c72 0 135-38 174-97-39-58-101-97-174-97s-136 39-174 97c38 59 101 97 174 97z m0-55a42 42 0 1 1 41-42 42 42 0 0 1-41 42z" horiz-adv-x="1000" />

<glyph glyph-name="play" unicode="&#xe808;" d="M500-79a429 429 0 1 1-429 429 429 429 0 0 1 429-429z m0-71a500 500 0 1 0 500 500 500 500 0 0 0-500-500z m169 533c35-18 35-48 0-66l-230-120c-35-18-64-1-64 39v228c0 40 29 57 64 39z" horiz-adv-x="1000" />

<glyph glyph-name="arrow-right" unicode="&#xe809;" d="M3-117a37 37 0 0 1 61-24l549 461a37 37 0 0 1 0 57l-548 461a37 37 0 1 1-48-56l514-433-514-433a37 37 0 0 1-14-33z" horiz-adv-x="626" />

<glyph glyph-name="linkedin" unicode="&#xe80a;" d="M1047 237v-387h-225v361c0 91-32 153-113 153-62 0-99-42-115-82a154 154 0 0 1-8-55v-377h-224s3 611 0 675h224v-96l-1-2h1v2c30 46 83 112 202 112 148 0 259-97 259-304z m-920 613c-77 0-127-50-127-117 0-65 49-116 124-116h2c77 0 126 52 126 116-1 67-48 117-125 117z m-114-1000h225v675h-225v-675z" horiz-adv-x="1047" />

<glyph glyph-name="arrow-down" unicode="&#xe80b;" d="M53 845a60 60 0 0 1-38-98l736-876a60 60 0 0 1 91 0l737 876a60 60 0 1 1-91 77l-691-822-691 822a60 60 0 0 1-53 21z" horiz-adv-x="1597" />

<glyph glyph-name="time" unicode="&#xe80c;" d="M500 850a500 500 0 1 1 500-500 500 500 0 0 1-500 500z m0-923a423 423 0 1 0 423 423 424 424 0 0 0-423-423z m39 439v327a39 39 0 1 1-77 0v-343a39 39 0 0 1 11-28l189-181a39 39 0 1 1 53 55z" horiz-adv-x="1000" />

<glyph glyph-name="youtube" unicode="&#xe80d;" d="M1429 636a213 213 0 0 1-214 214h-1001a213 213 0 0 1-214-214v-572a213 213 0 0 1 214-214h1001a213 213 0 0 1 214 214v572z m-857-528v538l408-269z" horiz-adv-x="1429" />

<glyph glyph-name="instagram" unicode="&#xe80e;" d="M724 850h-448a276 276 0 0 1-276-276v-448a276 276 0 0 1 276-276h448a276 276 0 0 1 276 276v448a276 276 0 0 1-276 276z m187-724a187 187 0 0 0-187-187h-448a187 187 0 0 0-187 187v448a187 187 0 0 0 187 187h448a187 187 0 0 0 187-187v-448h0z m-411 482a258 258 0 1 1 258-258 258 258 0 0 1-258 258z m0-427a169 169 0 1 0 169 169 169 169 0 0 0-169-169z m268 502a65 65 0 1 1 47-19 65 65 0 0 1-47 19z" horiz-adv-x="1000" />

<glyph glyph-name="aval" unicode="&#xe80f;" d="M972 513c-10 31-18 49-18 49h-1a504 504 0 0 1-422 287 296 296 0 0 1-32 1 500 500 0 0 1-458-302 282 282 0 0 1-32-104 550 550 0 0 1-8-62 498 498 0 0 1 466-531 296 296 0 0 1 32-1 499 499 0 0 1 497 468 486 486 0 0 1-24 195z m-419-341a18 18 0 0 1-24-2c-1-1-80-96-150-53 57 21 105 74 109 77a17 17 0 0 1-25 22c-1-1-101-106-161-65l1 1 128 105a17 17 0 1 1-21 26l-129-105c-2-1-31-24-47-6a31 31 0 0 0-9 25c1 15 13 32 30 45 32 25 183 152 221 182a190 190 0 0 1 50-14 130 130 0 0 1 68-61c22-9 44-10 59-3 35 17 39 47 33 69a336 336 0 0 1-76 105c61 8 131-1 162-7-2-69 19-165 39-235a12 12 0 0 1-6-3l-250-190a75 75 0 0 0-88-3 230 230 0 0 1 88 67 18 18 0 0 1-2 23z m-400 103a122 122 0 0 1-13-12 6 6 0 0 1-2-3c-7-4-49 1-93 6a594 594 0 0 0-3 173 491 491 0 0 0 28 92 119 119 0 0 0 8 13c46 7 134-22 180-39z m139 224c49 5 108 40 111 42l1 1s27 19 89 9c100-29 156-132 161-146 2-7 3-18-16-27a44 44 0 0 0-32 4 101 101 0 0 0-53 51 20 20 0 0 1-13 11 166 166 0 0 0-57 17 19 19 0 0 1-21-1c-3-1-193-161-229-190a143 143 0 0 1-23-23l-24 23z m514 15c39 14 84 15 112 15h12a204 204 0 0 0 9-24 508 508 0 0 0 3-294 392 392 0 0 0-74 10q-7 17-17 51c-24 71-48 173-46 242z m-307 302a256 256 0 0 0 29-1 463 463 0 0 0 385-253c-34 0-83-3-125-19-22 5-131 24-213 3a260 260 0 0 1-74 36h-1c-72 13-109-9-115-14-19-10-68-36-101-37-19 8-122 46-190 46a463 463 0 0 0 405 239z m0-932a256 256 0 0 0-29 1 467 467 0 0 0-421 347 765 765 0 0 1 78-6c22 0 29 4 38 15a1 1 0 0 0 1 2l30-26c-2-6-3-11-4-16a69 69 0 0 1 17-50 51 51 0 0 1 40-18 81 81 0 0 1 24 4 19 19 0 0 1 6-11 84 84 0 0 1 52-17 65 65 0 0 1 15 1 18 18 0 0 1 7-17 105 105 0 0 1 63-20 70 70 0 0 1 16 1 18 18 0 0 1 6-12 20 20 0 0 1 8-6 109 109 0 0 1 61-19 116 116 0 0 1 68 22l246 186a270 270 0 0 1 19-50c13-10 59-15 90-17a464 464 0 0 0-431-294z" horiz-adv-x="998" />

<glyph glyph-name="twiiter" unicode="&#xe810;" d="M1287 406c82 6 137 43 158 94-29-18-120-38-171-19-2 12-5 23-8 33-38 141-170 255-307 241 11 4 22 8 33 12 15 5 104 20 90 51-12 28-120-21-141-27 27 10 72 28 77 59a216 216 0 0 1-114-54 78 78 0 0 1 22 43c-110-70-175-212-227-351-41 40-77 71-110 88a2866 2866 0 0 1-372 164c-5-56 28-132 124-182a304 304 0 0 1-89-10c12-65 53-118 162-144-50-3-76-15-99-39 23-45 78-99 178-88-111-48-45-137 46-123a385 385 0 0 0-540-16c366-498 1161-295 1279 185 89 0 141 31 173 66a353 353 0 0 0-164 17z" horiz-adv-x="1452" />

<glyph glyph-name="arrow-circle-up" unicode="&#xe811;" d="M270 331l202 202v-405a28 28 0 1 1 56 0v405l202-202a28 28 0 0 1 40 39l-250 250a28 28 0 0 1-39 0l-250-250a28 28 0 0 1 39-39z m230-481a500 500 0 1 1-500 500 501 501 0 0 1 500-500z m0 945a444 444 0 1 0-444-445 445 445 0 0 0 444 445z" horiz-adv-x="1000" />

<glyph glyph-name="facebook" unicode="&#xe812;" d="M101 656v-137h-101v-169h101v-500h207v500h139s13 81 19 169h-157v115c0 18 23 41 45 41h113v175h-154c-217 0-212-168-212-194z" horiz-adv-x="467" />

<glyph glyph-name="arrow-up" unicode="&#xe813;" d="M1545-145a60 60 0 0 1 38 98l-737 876a60 60 0 0 1-91 0l-737-876a60 60 0 1 1 91-77l692 822 691-821a60 60 0 0 1 53-22z" horiz-adv-x="1597" />

<glyph glyph-name="minus" unicode="&#xe814;" d="M550 400q30 0 30-50t-30-50l-520 0q-30 0-30 50t30 50l520 0z" horiz-adv-x="580" />

<glyph glyph-name="libro" unicode="&#xe818;" d="M1099 675h-154v160a15 15 0 0 1-21 14l-367-172-367 172a15 15 0 0 1-21-14v-160h-154a15 15 0 0 1-15-15v-795a15 15 0 0 1 15-15h1084a15 15 0 0 1 15 15v795a15 15 0 0 1-15 15z m-901-15v152l350-163v-763l-350 163v611z m368-11l350 163v-763l-350-163v763z m-537-4h152v-175l-63 0a9 9 0 0 1 0-17h0l63 0v-181l-63-1a9 9 0 0 1 0-17h0l62 0v-181l-62 0a9 9 0 0 1 0-18h0l62 0v-11a9 9 0 0 1 6-8l335-157h-492v766z m1056-766h-492l335 157a9 9 0 0 1 5 8v11l63 0h0a9 9 0 0 1 0 18l-63 0v181l63 0h0a9 9 0 0 1 0 17l-63 1v181l63 0h0a9 9 0 0 1 0 17l-63 0v175h152v-766z m-825 712l213-99a9 9 0 0 1 12 4 9 9 0 0 1-5 12l-212 99a9 9 0 1 1-8-16z m220-282l-212 99a9 9 0 1 1-8-16l213-99a9 9 0 0 1 4-1 9 9 0 0 1 3 17z m0-199l-212 99a9 9 0 0 1-8-16l213-99a9 9 0 1 1 7 16z m157 381a9 9 0 0 1 4 1l213 99a9 9 0 1 1-8 16l-212-99a9 9 0 0 1 3-17z m209-83l-212-99a9 9 0 1 1 7-16l213 99a9 9 0 0 1-8 16z m0-199l-212-99a9 9 0 0 1 3-17 9 9 0 0 1 4 1l213 99a9 9 0 0 1-8 16z" horiz-adv-x="1114" />

<glyph glyph-name="programas" unicode="&#xe819;" d="M17-150h200a17 17 0 0 1 16 17v33a83 83 0 0 1-49 76 100 100 0 1 1-134 0 83 83 0 0 1-50-76v-33a17 17 0 0 1 17-17z m100 267a67 67 0 1 0-67-67 67 67 0 0 0 67 67z m-84-217a50 50 0 0 0 50 50h67a50 50 0 0 0 50-50v-17h-167v17z m350 0v-33a17 17 0 0 1 17-17h200a17 17 0 0 1 17 17v33a83 83 0 0 1-50 76 100 100 0 1 1-134 0 83 83 0 0 1-50-76z m117 217a67 67 0 1 0-67-67 67 67 0 0 0 67 67z m-83-217a50 50 0 0 0 50 50h66a50 50 0 0 0 50-50v-17h-166v17z m533 76a100 100 0 1 1-134 0 83 83 0 0 1-49-76v-33a17 17 0 0 1 16-17h200a17 17 0 0 1 17 17v33a83 83 0 0 1-50 76z m-67 141a67 67 0 1 0-66-67 67 67 0 0 0 66 67z m84-234h-167v17a50 50 0 0 0 50 50h67a50 50 0 0 0 50-50v-17z m-84 517v433a17 17 0 0 1-16 17h-734a17 17 0 0 1-16-17v-433a17 17 0 0 1 16-17h217v-50a17 17 0 0 1 10-15l-51-140a33 33 0 0 1 32-45h31a33 33 0 0 1 31 21l74 163h46l74-162a33 33 0 0 1 31-22h32a33 33 0 0 1 31 45l-51 140a17 17 0 0 1 10 15v50h217a17 17 0 0 1 16 17z m-511-232l0-18v17h-31l54 150h46z m256-1l-69 150h46l55-150h-32z m-11 183h-234v33h234v-33z m233 67h-700v400h700v-400z m-552 216a17 17 0 0 1-11-6l-100-134 26-20 90 119 103-88a17 17 0 0 1 25 4l133 199-28 19-123-184-102 87a17 17 0 0 1-13 4z" horiz-adv-x="1000" />

<glyph glyph-name="internacional" unicode="&#xe81a;" d="M500 850a500 500 0 1 1 500-500 500 500 0 0 1-500 500z m0-59a441 441 0 1 0-441-441 441 441 0 0 0 441 441z m-29 30v-942h58v942h-58z m-442-442v-58h942v58h-942z m471 471c-87 0-162-62-213-153s-81-213-81-347 30-256 81-347 126-153 213-153 162 62 213 153 81 213 81 347-30 256-81 347-126 153-213 153z m0-59c59 0 117-43 162-123s73-192 73-318-29-239-73-318-103-123-162-123-117 43-161 123-74 193-74 318 29 239 74 318 102 123 161 123z m-426-191v-59h853v59h-853z m0-441v-59h853v59h-853z" horiz-adv-x="1000" />

<glyph glyph-name="maestria" unicode="&#xe81b;" d="M532 209l-392-56c-15 36-32 111-32 211s17 174 32 210l304-43a160 160 0 0 0 28 46 164 164 0 0 0 0 59l-364 52c-60 0-108-145-108-324s48-325 108-325l518 74a163 163 0 0 0-49 71 162 162 0 0 0-45 25z m1090 479l-364-52a163 163 0 0 0 0-59 162 162 0 0 0 28-46l304 43c15-36 32-111 32-210s-17-175-32-211l-392 56a163 163 0 0 0-45-25 162 162 0 0 0-49-71l518-74c59 0 108 145 108 325s-49 324-108 324z m-429-406a108 108 0 0 1 4 101 108 108 0 0 1 0 178 108 108 0 0 1-89 153 108 108 0 0 1-154 89 108 108 0 0 1-178 0 108 108 0 0 1-154-88 108 108 0 0 1-89-154 108 108 0 0 1 0-178 107 107 0 0 1 89-153 108 108 0 0 1 54-86 106 106 0 0 1 27-11v-264a19 19 0 0 1 32-14l130 130 129-129a19 19 0 0 1 33 13v264a106 106 0 0 1 27 11 108 108 0 0 1 54 86 107 107 0 0 1 85 52z m-328 28a162 162 0 1 0 162 162 162 162 0 0 0-162-162z" horiz-adv-x="1730" />

<glyph glyph-name="inhouse" unicode="&#xe81c;" d="M1018 496l-185 130-315 220a21 21 0 0 1-24 0l-485-350a21 21 0 0 1-9-17v-608a21 21 0 0 1 21-21h985a21 21 0 0 1 21 21v608a21 21 0 0 1-9 17z m-33-604h-943v577l464 335 183-128 296-208v-576z m-813 113h237a20 20 0 0 1 20 19v40a99 99 0 0 1-59 90 118 118 0 1 1-159 0 99 99 0 0 1-58-90v-40a20 20 0 0 1 19-19z m119 315a79 79 0 1 0-79-79 79 79 0 0 0 79 79z m-99-256a59 59 0 0 0 59 59h79a59 59 0 0 0 59-59v-20h-197v20z m433-59h237a20 20 0 0 1 19 19v40a99 99 0 0 1-58 90 118 118 0 1 1-159 0 99 99 0 0 1-59-90v-40a20 20 0 0 1 20-19z m118 315a79 79 0 1 0-78-79 79 79 0 0 0 78 79z m-98-256a59 59 0 0 0 59 59h79a59 59 0 0 0 59-59v-20h-197v20z m-220 286h178a15 15 0 0 1 15 15v29a74 74 0 0 1-44 68 89 89 0 1 1-119 0 74 74 0 0 1-44-68v-29a15 15 0 0 1 14-15z m89 237a59 59 0 1 0-59-59 59 59 0 0 0 59 59z m-74-193a44 44 0 0 0 45 45h59a44 44 0 0 0 44-45v-14h-148v14z" horiz-adv-x="1027" />

<glyph glyph-name="innovacion" unicode="&#xe81d;" d="M191 233c0 2-1 3-1 5-1 2-1 4-2 6l0 1c0 0-1 0-1 1-1 1-2 3-3 5a37 37 0 0 0-2 3 60 60 0 0 1-7 8c0 0-1 1-2 1 0 0-1 1-1 1-2 1-3 2-5 3-1 0-5 2-4 2-1 0-3 0-4 1-2 0-4 1-6 1-1 0-2 0-2 0-3 0-5 0-7 0-1 0-2 0-3 0a63 63 0 0 1-10-3l-1 0c-1-1-2-1-3-2s-3-1-4-2a27 27 0 0 0-3-2 57 57 0 0 1-5-5q-1-1-2-3c-1 0-2-1-2-2a63 63 0 0 1-4-8v0c0 0 0 0 0 0-1-2-1-3-2-5s-1-3-1-4c0-1 0-2 0-3a63 63 0 0 1 0-9q0-1 0-2c0-1 0-2 0-2a101 101 0 0 1 5-17c0-1 0-1 1-2l0-1c1-1 1-2 2-4 1-2 3-5 5-8 0-1 1-2 2-4 0 0 2-3 2-2 1-2 3-4 4-5 2-2 3-3 5-4 0-1 2-2 2-2a49 49 0 0 1 5-3c1 0 2-1 3-1 0-1 0-1 1-1 1 0 2-1 4-1h0a38 38 0 0 1 5 0h0a50 50 0 0 1 6 2c0 0 1 1 2 1 1 1 2 1 3 2q1 1 2 1c1 1 2 1 2 2a80 80 0 0 1 7 7q1 1 2 2c0 1 1 2 2 2a107 107 0 0 1 9 16l0 1c0 1 1 1 1 2 0 1 1 3 1 4 1 3 2 6 3 9 0 1 0 3 1 4 0 0 0 1 0 2 0 2 0 4 0 7a21 21 0 0 0 0 5z m801-192c0 2-1 4-1 6a14 14 0 0 0-2 4 60 60 0 0 1-3 6c-1 1-2 3-2 4l-1 1a65 65 0 0 1-5 5 16 16 0 0 0-4 3 60 60 0 0 1-5 3c-1 1-3 2-4 3l0 0-1 0a65 65 0 0 1-7 2c-1 0-3 1-4 1-2 0-4 0-6 0h-6l-42-47a20 20 0 0 0-28 0l-42 47h-6c-2 0-3 0-5 0-1 0-2 0-3 0l-1-1a65 65 0 0 1-7-2c-1 0-2 0-2 0l-1 0a65 65 0 0 1-6-4c-1-1-2-1-3-2a69 69 0 0 1-8-8c0 0-3-4-3-5-1-1-2-3-3-5 0 0-2-4-2-5-1-2-1-4-1-6 0 0-1-1-1-1q0-2 0-3c0-1 0-2 0-4v-30h215v31c0 1 0 3 0 4 0 1 0 3 0 3z m-64 192c0 1 0 3-1 5 0 2-1 4-1 6l-1 1c0 0 0 0 0 1-1 1-2 3-3 5a37 37 0 0 0-2 3 61 61 0 0 1-7 8c-1 0-2 1-3 1 0 0 0 1-1 1-1 1-3 2-5 3 0 0-4 2-4 2-1 0-2 0-4 1-1 0-3 1-5 1-1 0-2 0-3 0-2 0-4 0-6 0-1 0-2 0-3 0a63 63 0 0 1-10-3l-1 0c-1-1-3-1-4-2s-3-1-4-2a27 27 0 0 0-2-2 57 57 0 0 1-5-5q-2-1-3-3c0 0-1-1-1-2a63 63 0 0 1-5-8v0c0 0 0 0 0 0-1-2-1-3-1-5s-1-3-1-4c-1-1-1-2-1-3a63 63 0 0 1 0-8q0-2 0-3c0-1 1-2 1-2a101 101 0 0 1 4-17c1-1 1-1 1-2l0-1c1-1 2-2 2-4 2-2 3-5 5-8 1-1 2-2 2-4 1 0 3-3 2-2 2-2 3-4 5-5 1-2 3-3 4-4 1-1 2-2 2-2a49 49 0 0 1 5-3c1 0 3-1 3-1 1 0 1-1 1-1 2 0 3-1 4-1h0a38 38 0 0 1 5 0h0a50 50 0 0 1 6 2c1 0 2 1 2 1 1 1 3 1 4 2q1 1 2 1c0 1 1 1 2 2a80 80 0 0 1 7 7q1 1 1 2c1 1 2 2 2 2a107 107 0 0 1 9 16l1 1c0 1 0 1 0 2 1 1 1 3 2 4 1 3 1 6 2 9 0 1 1 3 1 4 0 0 0 1 0 2 0 2 1 4 1 7a18 18 0 0 0-1 5z m-674-192c0 2 0 4-1 6a14 14 0 0 0-1 4 60 60 0 0 1-3 6c-1 1-2 3-3 4l0 1a65 65 0 0 1-5 5 16 16 0 0 0-4 3 60 60 0 0 1-5 3c-2 1-3 2-4 3l-1 0 0 0a65 65 0 0 1-7 2c-2 0-3 1-4 1-2 0-4 0-7 0h-6l-41-47a20 20 0 0 0-28 0l-42 47h-6c-2 0-4 0-6 0 0 0-2 0-2 0l-1-1a65 65 0 0 1-8-2c0 0-1 0-2 0l0 0a65 65 0 0 1-6-4c-2-1-3-1-4-2a69 69 0 0 1-8-8c0 0-2-4-3-5-1-1-2-3-3-5 1 0-1-4-1-5-1-2-1-4-2-6 0 0 0-1 0-1q0-2 0-3c0-1 0-2 0-4v-30h215v31c0 1 0 3 0 4 0 1 0 3-1 3z m369 540c0 1-1 3-1 5a14 14 0 0 0-2 5 60 60 0 0 1-3 5c0 2-1 3-2 4l-1 1a66 66 0 0 1-5 5 16 16 0 0 0-3 3 60 60 0 0 1-6 4c-1 0-2 1-4 2l0 0 0 0a65 65 0 0 1-8 2c-1 1-2 1-4 1-2 0-4 0-6 0h-6l-42-47a20 20 0 0 0-28 0l-42 47h-6c-1 0-3 0-5 0 0 0-2 0-3 0l-1 0a65 65 0 0 1-7-2c-1-1-1-1-2-1l0 0a65 65 0 0 1-7-4c-1-1-2-1-3-2a69 69 0 0 1-8-8c0 0-3-4-3-5-1-1-2-3-3-5 0 1-1-4-2-5 0-2-1-4-1-6 0 0 0-1 0-1q0-1 0-3c0-1-1-2-1-3v-31h216v31c0 1 0 3 0 5 0 0-1 2-1 3z m-63 191c-1 2-1 3-1 5-1 2-1 4-2 6l0 1c-1 0-1 1-1 1-1 2-2 3-3 5a37 37 0 0 0-2 4 61 61 0 0 1-7 7c-1 0-2 1-2 1-1 1-1 1-1 1-2 1-4 2-5 3-1 0-5 2-4 2-2 0-3 1-4 1-2 0-4 1-6 1-1 0-2 0-3 0-2 1-4 1-6 0-1 0-2 0-3 0a63 63 0 0 1-10-2l-1-1c-1 0-2-1-4-2s-2-1-4-2a27 27 0 0 0-2-2 57 57 0 0 1-5-4q-1-2-3-3c0-1-1-2-1-3a64 64 0 0 1-5-7v0c0-1 0-1 0-1 0-2-1-3-1-5s-1-3-1-4c0-1 0-2-1-3a63 63 0 0 1 0-8q1-2 1-3c0-1 0-1 0-2a101 101 0 0 1 5-17c0-1 0-1 0-2l1 0c0-2 1-3 2-5 1-2 3-5 4-8 1-1 2-2 3-3 0-1 2-3 2-3 1-2 3-3 4-5 2-1 3-3 4-4 1 0 2-2 3-2a49 49 0 0 1 5-3c0 0 2-1 2-1 1 0 1 0 2-1 1 0 2 0 3-1h1a39 39 0 0 1 5 0h0a50 50 0 0 1 5 2c1 0 2 1 2 1 2 1 3 1 4 2q1 1 2 1c1 1 2 2 2 2a79 79 0 0 1 7 7q1 1 2 2c0 1 1 2 1 3a107 107 0 0 1 10 16l0 0c0 1 0 1 0 2 1 1 2 3 2 4 1 3 2 6 2 9 1 1 1 3 1 4 0 1 0 1 1 2 0 2 0 4 0 7a18 18 0 0 0 0 5z m-458-628a71 71 0 0 1 44-19 68 68 0 0 1 46 18 117 117 0 0 1 39 85h0a20 20 0 0 0-40 0c0-3 0-5 0-7 0 1 0 2 0-2 0 1 0 1 0 2 0-1 0-2 0-2-1-1-1-3-1-4-1-3-2-6-3-9 0-1-1-3-1-4 0-1-1-1-1-2q1 2 0-1c0 0 0 1 0 1l0-1a107 107 0 0 0-9-16c-1 0-2-1-2-2 0 1 1 1 1 2-1-2-1-2-1-2q-1-1-2-2a80 80 0 0 0-7-7c0 0-1-1-2-2 1 1 1 1 2 1a13 13 0 1 0-2-1q-1 0-2-1c-1-1-2-1-3-2-1 0-2-1-2-1 0 0 1 0 2 1a7 7 0 1 0-2-1 50 50 0 0 0-6-2h0c5 1-4-1 0 0a38 38 0 0 0-5 0c4-1-5 1 0 0h0c-2 1-3 1-4 1-1 0-1 1-1 1a17 17 0 0 0-3 1c1-1 2-1 3-1-1 0-2 1-3 1a49 49 0 0 0-5 3 18 18 0 0 0-2 1q1 0 2-1c0 0-2 1-2 2-2 1-3 2-5 4-1 1-3 3-4 5 0 0-1 1-1 2l1-2c0-1-2 2-2 2-1 2-2 3-2 4-2 3-4 6-5 8-1 2-1 3-2 4l0 1c0 0 0-1 0-1-1 2-1 2 0 1-1 1-1 1-1 2a101 101 0 0 0-5 17c0 0 0 1 0 2 0-1 0-1 0-2 0 4 0 3 0 2q0 1 0 3a63 63 0 0 0 0 8 15 15 0 1 0 0 2c0-1 0-1 0-2 0 1 0 2 0 3 0 1 1 3 1 4s1 3 1 5c1 0 1 0 1 0-2-4 1 3 0 0v0a63 63 0 0 0 4 8c0 1 1 2 2 3-1-1-1-1-2-2a4 4 0 1 0 2 2q1 1 2 3a57 57 0 0 0 5 4c1 0 1 1 2 2q-1-1-2-2a27 27 0 0 1 3 2c1 1 2 1 4 2s2 2 3 2c-2-1 5 2 1 0l-1 0 1 0a63 63 0 0 0 10 3l0 0q4 1 1 0l-1 0c1 0 2 0 3 0 2 0 4 0 7 0 0 0 1 0 2 0l0 0q-3 1 1 0l-1 0c2 0 4-1 6-1 1-1 3-1 4-2 0 0 1 0 2 0l-2 0c-1 1 3-1 4-1 2-1 3-2 5-3 0-1 1-1 1-1a16 16 0 1 0 1-1c0 0-1 1-1 1 1 0 2-1 2-2a60 60 0 0 0 7-7c0 0 1 0 1-1 0 0-1 1-1 1a37 37 0 0 1 2-3c1-2 2-4 3-5 0-1 1-1 1-2a4 4 0 1 0 1-1c-1 0-1 1-1 1l0-1c1-1 1-3 2-5 0-2 1-4 1-5 0 0 0-1 0-1 0 0 0 0 0 1a21 21 0 0 1 0-6 20 20 0 0 0 40 0h0a83 83 0 0 1-131 69 84 84 0 0 1-36-77 120 120 0 0 1 38-75z m39 127l0 0 1 0q3 1-1 0z m-11-3l1 0c4 2-3-1-1 0z m23 3l0 0 1 0q-4 1-1 0z m-33-9q1 1 2 1c-1 0-1-1-2-1z m53 1c0 0 1-1 1-1a16 16 0 1 1-1 1z m18-30c0 0 0-1 0-1 0 0 0 1 0 1z m20 14a20 20 0 1 1 20-19 20 20 0 0 1-20 19z m-100 6c1 0 1 1 2 1a4 4 0 1 1-2-1z m71 1c0 0 1-1 1-1 0 1-1 1-1 1z m6-9c0-1 0-2 1-2a4 4 0 1 1-1 2z m-25 24l2-1c-1 0-2 0-2 1z m2-98c-1 0-1 0-2-1a13 13 0 1 1 2 1z m-58 73c1 3-2-4 0 0h0z m43-80h0c-4-1 5 1 0 0z m8 3c-1-1-2-1-2-1a7 7 0 1 1 2 1z m33 54c0-1 0-1 0-2 0 4 0 3 0 2z m-16-38c0-1-1-1-1-2s0 0 1 2z m10 17c0 0 0-1 0-1q1 3 0 1z m-40-36h0c-5 0 4-1 0 0z m-35 35c0 0 0 1 0 1-1 1-1 1 0-1z m-6 20c0 1 0 1 0 2 0 1 0 2 0-2z m0 13c0 1 0 1 0 2a15 15 0 1 1 0-2z m28-62q-1 1-2 1a18 18 0 0 1 2-1z m8-4c-1 0-2 0-3 1a17 17 0 0 1 3-1z m-19 15l-1 2c0-1 1-2 1-2z m-78-131c0 1 0 2 0 2a18 18 0 0 1 0-2z m-3-10v0c0 5-1-3 0 0z m17 29l0 1 0 0q3 2 0-1z m-17-86v20h-20z m26 92l1 1c2 0 2 0-1-1z m209-72h-20v-20z m-227 57c0 1 1 1 1 2a8 8 0 0 1-1-2z m227-6a20 20 0 1 1 20-20v0a20 20 0 0 1-20 20z m-21-13q1-1 1-2a6 6 0 0 1-1 2z m-2 10l0-1z m-90 9l-14 16-14-16h28z m133-26a20 20 0 0 0-40 0v-31h20l-20-20v20h-215v-20l-20 20h20v30c0 2 0 3 0 4q0 1 0 3c-1-3 0 5 0 0v0c0 0 0 0 0 1 1 2 1 4 2 6 0 1 2 5 1 5 0 0 0-1 0-1a18 18 0 0 0 0 1c1 2 2 3 3 5 1 1 3 5 3 5 0-1-1-1-1-2a8 8 0 0 0 1 2 69 69 0 0 0 8 8l0-1q3 3 0 1l0 0c1 1 2 1 4 2a65 65 0 0 0 6 4l0 0-1-1c3 1 3 1 1 1 1 0 2 0 2 0a65 65 0 0 0 8 2l1 1a4 4 0 1 0 2 0c-1 0-2 0-3 0 1 0 3 0 3 0 2 0 4 0 6 0h6l-6 6 14-6h-8l42-47a20 20 0 0 1 28 0l41 47h-9l14 6-5-6h6c3 0 5 0 7 0l-1 0q4 0 1 0h0c1 0 2-1 4-1a65 65 0 0 0 7-2l0 0c-3 1 4-2 0 0l1 0c1-1 2-2 4-3a60 60 0 0 0 5-3l1-1-1 1a16 16 0 0 1 4-3 65 65 0 0 0 5-5c-2 2 3-4 0 0h0l0-1c1-1 2-3 3-4a60 60 0 0 0 3-6l0-1 0 1a14 14 0 0 1 1-4c1-2 1-4 1-6a6 6 0 0 0 1-2q0 1-1 2c1 0 1-2 1-3 0-1 0-3 0-4a20 20 0 0 0 40 0 87 87 0 0 1-41 72 86 86 0 0 1-41 13 78 78 0 0 1-24-1 33 33 0 0 1-15-12l-16-19-10-11 14-16h-28l14 16-12 13-17 18a25 25 0 0 1-19 12 186 186 0 0 1-29-2 87 87 0 0 1-41-18 85 85 0 0 1-30-67v-49a20 20 0 0 1 20-20h255a20 20 0 0 1 20 20v51z m-49 28h0c3-4-2 2 0 0z m-19 14c4-2-3 1 0 0h0z m-141 9l6-6h8z m108-6h9l5 6z m43-9l1-1z m-22 9l1 0h0q3 0-1 0z m-137 0c0 0 1 0 2 0a4 4 0 1 1-2 0z m790 189l0 0c4 2-3-1 0 0z m11 3l0 0 0 0q4 1 0 0z m-38-39c0 1 0 1 0 2a14 14 0 1 1 0-2z m8 21c0 0 1 1 1 1a4 4 0 1 1-1-1z m-5-9c1 3-2-4 0 0h0z m14 18q1 1 1 1c-1 0-1-1-1-1z m70-41c0-1 0-1 0-2 1 4 0 3 0 2z m-18 42c1 0 1-1 2-1a16 16 0 1 1-2 1z m-10 6l2-1c-1 0-1 0-2 1z m-10 2l1 0 0 0q-4 1-1 0z m12-100c0 0-1 0-1-1a13 13 0 1 1 1 1z m-15-7h0c-4-1 5 1 0 0z m-5 0h0c-4 0 5-1 0 0z m13 3c-1-1-1-1-2-1a7 7 0 1 1 2 1z m-53 52c-1 1-1 1-1 2 0 1 0 2 1-2z m71-36c-1-1-1-1-2-2s0 0 2 2z m7 71c0 0 0-1 1-1-1 1-1 1-1 1z m-62-73l-1 2c1-1 1-2 1-2z m19-15c-1 0-2 0-2 1a17 17 0 0 1 2-1z m-29 33c-1 0-1 1-1 1q-1 2 1-1z m21-29q-1 1-2 1a18 18 0 0 1 2-1z m53 30c0 0 0-1 0-1q1 3 0 1z m6 33c0-1 1-1 1-1 0 0-1 1-1 1z m20 14a20 20 0 1 1 20-19v0a20 20 0 0 1-20 19z m-24 54a83 83 0 0 1-122-82 120 120 0 0 1 37-75 71 71 0 0 1 45-19 68 68 0 0 1 46 18 117 117 0 0 1 38 85v0a20 20 0 0 0-39 0c0-3-1-5-1-7 0 1 1 2 0-2 0 1 0 1 0 2 0-1 0-2 0-2 0-1-1-3-1-4-1-3-1-6-2-9-1-1-1-3-2-4 0-1 0-1 0-2q0 2-1-1c0 0 0 1 1 1l-1-1a107 107 0 0 0-9-16c0 0-1-1-2-2 1 1 1 1 2 2-2-2-2-2-2-2q0-1-1-2a80 80 0 0 0-7-7c-1-1-2-1-2-2 0 1 1 1 1 1a13 13 0 1 0-1-1q-1 0-2-1c-1-1-3-1-4-2 0 0-1-1-2-1 1 0 1 0 2 1a7 7 0 1 0-2-1 50 50 0 0 0-6-2h0c5 1-4-1 0 0a38 38 0 0 0-5 0c5-1-4 0 0 0h0c-1 0-2 1-4 1 0 0 0 1-1 1a17 17 0 0 0-2 1c0-1 1-1 2-1 0 0-2 1-3 1a49 49 0 0 0-5 3 18 18 0 0 0-2 1q1 0 2-1c0 0-1 1-2 2-1 1-3 2-4 4-2 1-3 3-5 5 0 0 0 1-1 2l1-2c1-1-1 2-1 2-1 2-2 3-3 4-2 3-3 6-5 8 0 2-1 3-2 4l0 1c0 0 0-1 1-1q-2 3-1 1c0 1 0 1-1 2a101 101 0 0 0-4 17c0 0-1 1-1 2 0-1 0-1 1-2-1 4-1 3-1 2q0 1 0 3a63 63 0 0 0 0 8 14 14 0 1 0 0 2c0-1 0-1 0-2 0 1 0 2 1 3 0 1 0 3 1 4s0 3 1 5c0 0 0 0 0 0-2-4 1 3 0 0v0a63 63 0 0 0 5 8c0 1 1 2 1 2 0 0-1 0-1-1a4 4 0 1 0 1 1q1 2 3 3a57 57 0 0 0 5 5c0 0 1 1 1 1q0 0-1-1a27 27 0 0 1 2 2c1 1 3 1 4 2s3 1 4 2c-3-1 4 2 0 0l0 0 1 0a63 63 0 0 0 10 3l0 0q4 1 0 0l0 0c1 0 2 0 3 0 2 0 4 0 6 0 1 0 2 0 3 0l-1 0q-3 1 1 0l0 0c2 0 4-1 5-1 2-1 3-1 4-2 1 0 1 0 2 0l-2 0c0 1 4-1 4-1 2-1 4-2 5-3 1-1 1-1 1-1a16 16 0 1 0 2-1c-1 0-1 1-2 1 1 0 2-1 3-2a61 61 0 0 0 6-7c1 0 1 0 2-1-1 0-1 1-2 1a37 37 0 0 1 3-3c1-2 2-4 3-5 0-1 0-1 0-2a5 5 0 1 0 1-1c0 0 0 1-1 1l1-1c0-1 1-3 1-5 1-2 1-4 1-5 0 0 1-1 1-1 0 0-1 0-1 1a18 18 0 0 1 1-6 20 20 0 0 0 39 1 85 85 0 0 1-44 73z m1-56c1-1 1-2 1-2a5 5 0 1 1-1 2z m-145-195c0 1 1 2 1 2a18 18 0 0 1-1-2z m14 19l1 1 0 0q2 2-1-1z m-17-29v0c1 5 0-3 0 0z m215 1q0-1 0-2a6 6 0 0 1 0 2z m40-7v0a20 20 0 0 0-40 0v-31h20l-20-20v20h-215v-20l-20 20h20v30c0 2 0 3 0 4q0 1 0 3c0-3 1 5 0 0v0c0 0 1 0 1 1 0 2 0 4 1 6 0 1 2 5 2 5 0 0-1-1-1-1a18 18 0 0 0 1 1c1 2 2 3 3 5 0 1 3 5 3 5-1-1-1-1-1-2a8 8 0 0 0 1 2 69 69 0 0 0 8 8l-1-1q3 3 1 1l0 0c1 1 2 1 3 2a65 65 0 0 0 6 4l1 0-1-1c2 1 2 1 1 1 0 0 1 0 2 0a65 65 0 0 0 7 2l1 1a4 4 0 1 0 2 0c-1 0-1 0-2 0 1 0 2 0 3 0 2 0 3 0 5 0h6l-5 6 14-6h-9l42-47a20 20 0 0 1 28 0l42 47h-9l14 6-5-6h6c2 0 4 0 6 0l0 0q4 0 0 0h0c1 0 3-1 4-1a65 65 0 0 0 7-2l1 0c-4 1 4-2 0 0l0-1c1 0 3-1 4-2a60 60 0 0 0 5-3l1-1-1 1a16 16 0 0 1 4-3 65 65 0 0 0 5-6c-2 3 3-3 0 0h0l1 0c0-1 1-3 2-4a60 60 0 0 0 3-6l0-1 0 1a14 14 0 0 1 2-4c0-2 1-4 1-6a6 6 0 0 0 0-2q0 1 0 2c0 0 0-2 0-3 0-1 0-3 0-4a20 20 0 0 0 40 0 87 87 0 0 1-40 72 86 86 0 0 1-42 13 78 78 0 0 1-24-1 33 33 0 0 1-15-12l-16-19-10-11 14-16h-28l14 16-12 13-16 18a25 25 0 0 1-20 12 186 186 0 0 1-29-2 87 87 0 0 1-40-18 85 85 0 0 1-31-67v-49a20 20 0 0 1 20-20h255a20 20 0 0 1 20 20v51z m-20-31h-20v-20z m-235-20v20h-20z m9 77c0 1 0 1 1 2a8 8 0 0 1-1-2z m179 16c4-2-4 1 0 0h0z m-12 3l0 0h0q4 0 0 0z m21-9l1-1z m-170 5l1 1c1 0 1 0-1-1z m185-24l0-1z m-6 11h0c3-4-2 2 0 0z m-51 17h9l5 6z m-117 0c1 0 1 0 2 0a4 4 0 1 1-2 0z m84-19l-14 16-14-16h28z m-75 25l5-6h9z m188-31a20 20 0 1 1 20-20v0a20 20 0 0 1-20 20z m-504 651c0 0-1 0-2 1a16 16 0 0 1 2-1z m-7 4q-1 1-2 2a19 19 0 0 1 2-2z m-28 62c0 1 0 1 0 2a15 15 0 1 1 0-2z m41-68h-1c-4 1 5 0 1 0z m-35 35c0 1 0 1-1 1q0 2 1-1z m-6 21c0 0 0 1 0 1-1 1-1 2 0-1z m17-39l-2 2c1-1 1-2 2-2z m29-17h0c-5-1 4 1 0 0z m41 57c-1 0-1-1-1-1 1 3 1 2 1 1z m-84 24c0 2-2-5 0 0h0z m78-45c0 0-1 0-1-1q2 3 1 1z m-28-33c0-1-1-1-2-1a7 7 0 1 1 2 1z m18 16c0-1-1-1-1-2s0 0 1 2z m-11-11c0-1-1-1-1-1a14 14 0 1 1 1 1z m24 73c0-1 0-1 0-2a5 5 0 1 1 0 2z m-6 10c0-1 1-1 1-2-1 1-1 1-1 2z m9-22c0 0 0-1 0-1 0 0 0 1 0 1z m-80 20c1 1 1 1 1 2a4 4 0 1 1-1-2z m62 10c0 0 1 0 1-1a15 15 0 1 1-1 1z m38-15a20 20 0 1 1 20-20 20 20 0 0 1-20 20z m-110-104a71 71 0 0 1 45-19 68 68 0 0 1 46 18 117 117 0 0 1 39 85h0a20 20 0 0 0-40 0c0-2 0-5 0-7 0 1 0 2-1-1 0 0 0 1 1 1-1-1-1-1-1-2 0-1 0-3-1-4 0-3-1-6-2-9 0-1-1-3-2-4 0-1 0-1 0-2q1 2-1-1c0 1 1 1 1 1l0 0a107 107 0 0 0-10-16c0-1-1-2-1-3 0 1 0 1 1 2-1-2-2-2-1-2q-1-1-2-2a79 79 0 0 0-7-7c-1 0-1-1-2-1 0 0 1 0 1 1a14 14 0 1 0-1-1q-1-1-2-2c-1-1-2-1-4-2 0 0-1-1-2-1 1 0 2 0 2 1a7 7 0 1 0-2-1 50 50 0 0 0-5-2h0c4 1-5-1 0 0a39 39 0 0 0-6 0c5 0-4 1 0 0h0c-1 1-2 1-3 1-1 1-1 1-2 1a16 16 0 0 0-2 1c1-1 2-1 2-1 0 0-2 1-2 1a49 49 0 0 0-5 3 19 19 0 0 0-2 2q1-1 2-2c-1 0-2 2-3 2-1 1-2 3-4 4-1 2-3 3-4 5-1 0-1 1-2 2l2-2c0 0-2 2-2 3-1 1-2 2-3 3-1 3-3 6-4 9-1 1-2 2-2 4l-1 0c1 0 1 0 1-1q-1 3-1 1c0 1 0 1 0 2a101 101 0 0 0-5 17c0 1 0 1 0 2 0 0 0-1 0-1-1 3-1 2 0 1q0 1-1 3a63 63 0 0 0 1 8 15 15 0 1 0 0 2c0-1 0-1 0-2 0 1 0 2 0 3 0 1 1 3 1 4s1 3 1 5c0 0 0 0 1 1-2-5 0 2 0 0v0a64 64 0 0 0 4 7c0 1 1 2 1 3 0-1 0-1-1-2a4 4 0 1 0 1 2q2 1 3 3a57 57 0 0 0 5 4c0 0 1 1 2 2q-1-1-2-2a27 27 0 0 1 2 2c2 1 3 2 4 2s3 2 4 2c-2-1 5 2 0 0l0 0 1 1a63 63 0 0 0 10 2l0 0q4 1 0 0l0 0c1 0 2 0 3 0 2 1 4 1 6 0 1 0 2 0 3 0l0 0q-4 1 0 0l0 0c2 0 4-1 6-1 1 0 2-1 4-1 0 0 0-1 1-1l-1 1c-1 0 3-2 4-2 1-1 3-2 5-3 0 0 0-1 1-1a15 15 0 1 0 1-1c0 1-1 1-1 1 0 0 1-1 2-1a61 61 0 0 0 7-7c0-1 0-1 1-2 0 1-1 1-1 2a37 37 0 0 1 2-4c1-2 2-3 3-5 0-1 0-1 1-1a5 5 0 1 0 0-2c0 1 0 1 0 2l0-1c1-2 1-4 2-6 0-2 0-3 1-5 0 0 0-1 0-1 0 0 0 1 0 1a18 18 0 0 1 0-5 20 20 0 0 0 40 0h0a83 83 0 1 1-167-9 120 120 0 0 1 37-75z m19 118q1 1 2 2c-1-1-2-2-2-2z m10 6l0 0c4 2-2-1 0 0z m33 1l1-1c-1 0-1 1-1 1z m-22 2l0 0 0 0q4 1 0 0z m12 0l0 0 0 0q-4 1 0 0z m62-192l0 0h1q3 0-1 0z m36-27l1-1z m-14 18l1 0z m-10 6c4-1-3 2 0 0h0z m27-34q0-1 1-2a5 5 0 0 1-1 2z m-60 37h9l5 6z m-33-19l-14 16-14-16h28z m-141-97h255a20 20 0 0 1 19 20v51a20 20 0 1 0-39 0v-31h20l-20-20v20h-216v-20l-19 20h19v31c0 1 0 2 0 3q1 2 1 3c-1-3 0 5 0 0v0c0 0 0 1 0 1 0 2 1 4 1 6 1 1 2 6 2 5 0 0 0-1-1-1 1 1 1 1 1 1 1 2 2 4 3 5 0 1 3 5 3 5 0 0-1-1-1-1a8 8 0 0 0 1 1 69 69 0 0 0 8 8l0 0q3 2 0 0l0 0c1 1 2 1 3 2a65 65 0 0 0 7 4l0 0-1 0c2 1 3 1 1 0 1 0 1 0 2 1a65 65 0 0 0 7 2l1 0a4 4 0 1 0 2 0c0 0-1 0-2 0 1 0 3 0 3 0 2 0 4 0 5 0h6l-5 6 14-6h-9l42-47a20 20 0 0 1 28 0l42 47h-9l14 6-5-6h6c2 0 4 0 6 0l0 0q4 0 1 0h-1c2 0 3 0 4-1a65 65 0 0 0 8-2l0 0c-3 2 4-1 0 0l0 0c2-1 3-2 4-2a60 60 0 0 0 6-4l1 0-1 0a16 16 0 0 1 3-3 66 66 0 0 0 5-5c-1 2 3-4 0 0h0l1-1c1-1 2-3 2-4a60 60 0 0 0 3-5l1-1-1 1a14 14 0 0 1 2-5c0-2 1-4 1-5a5 5 0 0 0 1-3q-1 2-1 3c0-1 1-3 1-3 0-2 0-4 0-5a20 20 0 0 0 39 0 85 85 0 0 1-82 85 79 79 0 0 1-23-1 33 33 0 0 1-15-12l-17-18-10-12 14-16h-28l14 16-12 13-16 19a25 25 0 0 1-20 11 187 187 0 0 1-29-1 87 87 0 0 1-40-19 85 85 0 0 1-30-67v-49a20 20 0 0 1 20-20z m255 91a20 20 0 1 1 19-20v0a20 20 0 0 1-19 20z m-30 8h0c3-4-1 2 0 0z m-206-79v20h-19z m1 57v0c0 5-1-3 0 0z m2 11c1 0 1 1 1 1 0 0 0 0-1-1z m233-48h-20v-20z m-198 76c1 0 2 0 2 0a4 4 0 1 1-2 0z m9 6l5-6h9z m-38-24c0 0 1 0 1 1a8 8 0 0 1-1-1z m18 15l1 0c2 1 1 1-1 0z m-9-6l0 0 0 0q3 2 0 0z m-145-31l1 2z m-166-238a20 20 0 0 1 25 14 418 418 0 0 0 11 42c2 6 5 13 7 19 1 3 2 5 3 8 0 0 0 0 1 1l-1-1c0 0 1 3 2 3 0 2 1 4 2 6a404 404 0 0 0 43 73c1 1 2 2 3 4l0 0c-1-2 3 3 0 0l1 1c2 3 4 5 6 8 5 5 10 11 15 16a407 407 0 0 0 30 30c5 4 10 8 15 12 1 1 2 2 3 3l1 1-1-1c0 0 2 1 2 2 4 2 7 4 10 6a405 405 0 0 0 35 23c3 1 5 3 8 4a20 20 0 0 1-20 34 428 428 0 0 1-210-265c-2-6-3-12-4-18a20 20 0 0 1 13-25z m96 169c3 3-1-2 0 0h0z m-50-86l1 1c-1-1-1-1-1-1z m304-530c-4 0 2-1 0 0h0z m-99 27l0 0c-1 0-1 0 0 0z m333 16q-10-6-21-11c-3-1-7-3-10-4l-3-2 1 1c-2-1-2-1-1-1q-3-1-7-2a401 401 0 0 0-46-15c-8-2-15-4-23-6-4 0-8-1-12-2-2 0-4 0-6-1l-3 0c1 0 1 0-1 0l1 0-1 0a410 410 0 0 0-101 0l-1 0c2-1-4 0 0 0l-2 0c-2 0-4 1-6 1-4 1-8 1-12 2-8 2-16 3-25 6a401 401 0 0 0-46 14c-2 1-3 2-5 3l-4 1 1 0c-1 0-1 0-1 0-3 1-6 3-9 4-8 4-15 8-22 12-3 1-6 3-9 4a20 20 0 1 1-20-34 425 425 0 0 1 392-16c7 4 15 8 22 12a20 20 0 0 1-20 34z m-131-43l-1 0c2 0 2 0 1 0z m98 27l-1-1c-1 0-1 0 1 1z m20 699a420 420 0 0 0 37-21c6-3 11-7 17-11 2-2 5-4 8-6 1 0 2-1 3-2l1-1-1 1c-1 0 3-2 3-3a407 407 0 0 0 60-58c2-3 4-6 6-8l1-1c-2 3 2-3 0 0l0-1c1-1 2-2 3-4 5-5 9-11 13-18a404 404 0 0 0 21-36c3-6 6-12 9-18 1-3 2-5 3-8 0 0 0 0 1-1l-1 1c0 0 2-3 2-3 1-2 1-4 2-6a401 401 0 0 0 13-41c2-4 3-9 4-13a20 20 0 0 1 38 10 428 428 0 0 1-202 271c-7 4-14 8-21 11a20 20 0 0 1-27-7 20 20 0 0 1 7-27z m135-110c2-3-2 3 0 0h0z m49-85l1-1c0 1-1 1-1 1z m-119 155l1-1z m-169-327l0 0c2-4 0 3 0 0z m5-16c0-1 0-1 0-2a4 4 0 1 1 0 2z m-28 46c1 0 1-1 1-1 1-1 2-1-1 1z m14-14c3-3-2 3 0 0h0z m-30 23l2-1z m-16 4c4 0-4 1 0 0h0z m34-126c-1 0-1 0-2-1 0 0 0 0 2 1z m-55 126c1 0 1 0 2 0a7 7 0 1 1-2 0z m115-106a110 110 0 1 1-149-64 20 20 0 0 1 27 7 20 20 0 0 1-7 27 98 98 0 0 0-17 9c0 0-1 1-2 1 0 0 1 0 1 0-2 1-2 1-1 0-1 1-2 2-3 3a91 91 0 0 0-7 8c-1 0-2 2-2 2 0 0 1-1 1-1-1 1-1 1-1 1q-1 1-2 2a91 91 0 0 0-5 9c-1 1-1 2-2 4l0 0c1-3-2 4 0 0l0 1a90 90 0 0 0-4 11c0 1 0 3-1 5 0 0 0 2 0 2 0 0 0-1 0-1a15 15 0 1 0 0 1c0 3-1 6-1 9a91 91 0 0 0 1 9v0c-1-3 0 5 0 0l0 1c0 2 1 4 1 6a90 90 0 0 0 3 9c0 0 1 2 1 3 0-1-1-2-1-2 1 2 1 2 1 2q0 1 1 2c1 3 3 5 4 8 1 1 2 2 3 3 0 1 1 2 1 2q-2-2 1 1l-1-1 0 0a91 91 0 0 0 13 13l0 0c-3-2 3 3 0 0l0 0c2 1 3 2 4 3a90 90 0 0 0 9 5c1 1 2 1 3 1l1 1-1-1a5 5 0 0 1 2 1 90 90 0 0 0 9 3c1 0 3 0 4 1 1 0 2 0 3 0-1 0-1 0-2 0a7 7 0 1 0 2 0c3 1 6 1 9 1a92 92 0 0 0 10-1h0c-4 1 4 0 0 0l0 0c2 0 3-1 5-1a90 90 0 0 0 9-2c1-1 2-1 2-1l2-1-2 1c-1 0 3-2 4-2 3-1 5-3 8-4 1-1 2-2 4-3 0 0 1-1 2-1-1 0-1 1-2 1 3-2 2-2 2-1a93 93 0 0 0 12-13l0 0c-2 3 3-3 0 0l1 0c0-1 1-3 2-4 2-2 3-5 5-8 0-1 1-2 1-4 0 3 2-4 0 0l0 0c0 0 1 0 1-1a90 90 0 0 0 3-10c0-1 1-3 1-4 0-1 0-2 0-3 0 1 0 1 0 2a4 4 0 1 0 0-2c1-3 1-5 1-7a93 93 0 0 0-1-10l0-1c1 4 0-4 0 0l0-1c0-2-1-4-1-6a90 90 0 0 0-3-9c0-1-1-2-1-3 0 0 1 1 1 1a6 6 0 1 0-1-1q-1-1-1-3a90 90 0 0 0-5-8c-1-1-2-3-3-4l0 0 1 0c-2-2-2-2-1 0 0-1-1-2-1-2a91 91 0 0 0-7-7c-1-1-2-2-3-3-1 0-2-1-2-2 0 1 0 1 1 1-2-1-2-1-1-1a92 92 0 0 0-17-9 20 20 0 0 1-7-27 20 20 0 0 1 27-7 112 112 0 0 1 58 64z m-34 27c0-4 1 4 0 0h0z m-13-34l-1 0c-1-2-1-2 1 0z m9 16c0 0-1-1-1-1a6 6 0 1 1 1 1z m-93 92l1 1z m-43-75c0 0 0 1 0 1a15 15 0 1 1 0-1z m15-34c0 0-1 1-1 1 0 0 0 0 1-1z m-10 16c-2 4 1-3 0 0h0z m22-28c0 0-1 0-1 0-1 1-1 1 1 0z m-23 82c0 0 1 1 1 2 0 0 0 0-1-2z m10 17l1 1q-3-3-1-1z m13 13c3 3-3-2 0 0h0z m-27-47c0 5-1-3 0 0h0z m90 139v37a20 20 0 0 1-40 0v-37a20 20 0 0 1 40 0z m34-282a20 20 0 0 1-20 20h-68a20 20 0 1 1 0-39h68a20 20 0 0 1 20 19z m-187 129a20 20 0 0 1-19 20h-38a20 20 0 0 1 0-39h38a20 20 0 0 1 19 19z m343 0a20 20 0 0 1-20 20h-37a20 20 0 1 1 0-39h37a20 20 0 0 1 20 19z m-332 94a20 20 0 0 1 28 28l-26 27a20 20 0 1 1-28-28z m242-242a20 20 0 0 1 28 28l-26 27a20 20 0 0 1-28-28z m0 297l-26-27a20 20 0 0 1 28-28l26 27a20 20 0 0 1-28 28z m-240-297l26 27a20 20 0 0 1-28 28l-26-27a20 20 0 1 1 28-28z m140-12h-39a20 20 0 0 1 0-40h39a20 20 0 0 1 0 40z" horiz-adv-x="1032" />

<glyph glyph-name="candado" unicode="&#xe81e;" d="M752 311a28 28 0 0 1-28-27v-340a38 38 0 0 0-38-39h-592a38 38 0 0 0-39 39v433a38 38 0 0 0 39 38h592a38 38 0 0 0 38-38 28 28 0 0 1 55 0 94 94 0 0 1-93 94h-66v149a230 230 0 1 1-460 0v-149h-66a94 94 0 0 1-94-94v-433a94 94 0 0 1 94-94h592a94 94 0 0 1 93 94v340a28 28 0 0 1-27 27z m-537 309a175 175 0 1 0 349 0v-149h-349v149z" horiz-adv-x="779" />

<glyph glyph-name="estrella" unicode="&#xe81f;" d="M500 850a500 500 0 1 1 500-500 500 500 0 0 1-500 500z m0-60a440 440 0 0 0 440-440h0a440 440 0 0 0-440-440h0a440 440 0 0 0 0 880z m0-57a383 383 0 1 1 383-383 383 383 0 0 1-383 383z m0-66l82-202 218-16-167-141 53-212-186 115-186-115 53 212-167 141 218 16z" horiz-adv-x="1000" />

<glyph glyph-name="upload" unicode="&#xe820;" d="M42-67a42 42 0 1 1 0-83h555a42 42 0 0 1 0 83h-555z m278 917a47 47 0 0 0 28-11l236-222c14-15 19-44 4-61a43 43 0 0 0-61 0l-166 156v-709a42 42 0 0 0-83 0v709l-166-156c-14-14-45-17-61 0s-10 46 4 61l236 222a40 40 0 0 0 29 11z" horiz-adv-x="639" />

<glyph glyph-name="mas" unicode="&#xe821;" d="M500-150a71 71 0 0 0-71 71v358h-358a71 71 0 1 0 0 142h358v358a71 71 0 0 0 142 0v-358h358a71 71 0 0 0 0-142h-358v-358a71 71 0 0 0-71-71z" horiz-adv-x="1000" />

<glyph glyph-name="happy" unicode="&#xe823;" d="M357 431a43 43 0 1 1-43 43 43 43 0 0 1 43-43z m293 0a43 43 0 1 1-43 43 43 43 0 0 1 43-43z m-150 419a500 500 0 1 1 500-500 501 501 0 0 1-500 500z m0-966a466 466 0 1 0 466 466 467 467 0 0 0-466-466z m268 399a17 17 0 0 1-17-17c0-99-117-219-254-219s-255 120-255 219a17 17 0 0 1-34 0c0-115 129-253 289-253s288 138 288 253a17 17 0 0 1-17 17z" horiz-adv-x="1000" />

<glyph glyph-name="mail" unicode="&#xe824;" d="M322 215l215-178-1 0z m214-135l-193 160 193-161z m528 419v-649h-1064v649l114 75v178h271l150 98 148-98h267v-177z m-114-70l71 60-71 47v-107z m-506 323h181l-90 59z m-298-348l197-164 193-161 0 1 382 324v316h-772v-316z m-103 85l71-59v105z m988-33l-494-419 0 0-215 178-290 241v-574h999v574h0z m-502-206c-83 0-154 62-154 159 0 105 73 196 186 196 89 0 148-62 148-147 0-77-43-122-90-122-21 0-40 14-38 45h-2c-18-30-41-45-72-45-29 0-55 24-55 65a120 120 0 0 0 121 120 134 134 0 0 0 54-10l-17-92c-8-39-2-57 15-58 26 0 55 35 55 94 0 74-44 126-123 126-83 0-153-65-153-169 0-85 56-137 131-137a159 159 0 0 1 77 18l8-22a186 186 0 0 0-91-21z m63 241a89 89 0 0 1-25 3c-45 0-81-42-81-91 0-23 11-39 33-39 30 0 57 38 62 69z" horiz-adv-x="1064" />

<glyph glyph-name="tecnico" unicode="&#xe825;" d="M307-17l93-93 560 559-94 94z m93-133a17 17 0 0 0-12 5l-116 116a17 17 0 0 0 0 24l582 583a17 17 0 0 0 12 5h0a17 17 0 0 0 11-4l118-118a17 17 0 0 0 0-24l-583-582a17 17 0 0 0-12-5h0z m350 883h60l-60 60v-60z m100-33h-117a17 17 0 0 0-16 17v116a17 17 0 0 0 28 12l117-117a17 17 0 0 0-12-28h0z m-493-200h319l-159 160z m360-33h-400a17 17 0 0 0-12 28l200 200a17 17 0 0 0 24 0l200-200a17 17 0 0 0-12-28h0z m-334 183v-67l34 31v36h-34z m-11-117h-5a17 17 0 0 0-17 17v117a17 17 0 0 0 17 16h66a17 17 0 0 0 17-16v-61a17 17 0 0 0-5-12l-61-56a17 17 0 0 0-12-5h0z m482-89a17 17 0 0 0-12 5l-47 47a17 17 0 0 0 23 24l48-48a17 17 0 0 0-12-28m-36-83a17 17 0 0 0-11 5l-71 71a17 17 0 0 0 23 24l71-71a17 17 0 0 0-12-28m-82-36a17 17 0 0 0-12 5l-47 47a17 17 0 1 0 24 24l47-47a17 17 0 0 0-12-29m-35-82a17 17 0 0 0-12 5l-71 70a17 17 0 0 0 24 24l70-71a17 17 0 0 0-11-28m-83-36a17 17 0 0 0-12 5l-47 47a17 17 0 0 0 24 24l47-47a17 17 0 0 0-12-29m-35-82a17 17 0 0 0-12 5l-71 70a17 17 0 1 0 24 24l70-71a17 17 0 0 0-11-28m-83-36a17 17 0 0 0-12 5l-47 47a17 17 0 0 0 24 24l47-47a17 17 0 0 0-12-29m-35-82a17 17 0 0 0-12 5l-71 70a17 17 0 0 0 24 24l71-71a17 17 0 0 0-12-28m-83-36a17 17 0 0 0-11 5l-48 48a17 17 0 0 0 24 23l47-47a17 17 0 0 0-12-29m285 396h0z m-284-135h126l141 141v93h-267v-234z m133-33h-149a17 17 0 0 0-17 17v266a17 17 0 0 0 17 17h300a17 17 0 0 0 16-17v-115a17 17 0 0 0-4-12l-151-151a17 17 0 0 0-12-5h0z m35 51h0z m-68-18h27l24 25v42h-51v-67z m34-33h-50a17 17 0 0 0-17 17v100a17 17 0 0 0 17 16h84a17 17 0 0 0 16-16v-66a17 17 0 0 0-5-12l-33-34a17 17 0 0 0-12-5h0z m333 351h0z m-617-668h127l-88 89a17 17 0 0 0 0 23l561 563v152l-107 107h-493v-934z m167-33h-183a17 17 0 0 0-17 17v966a17 17 0 0 0 17 17h516a17 17 0 0 0 12-5l117-116a17 17 0 0 0 5-12v-166a17 17 0 0 0-5-12l-555-556 105-105a17 17 0 0 0-12-28h0z m40 33h393v393z m410-33h-450a17 17 0 0 0-12 28l450 450a17 17 0 0 0 29-12v-449a17 17 0 0 0-17-17h0z m-817 217h67v716a33 33 0 0 1-67 0v-716z m84-34h-100a17 17 0 0 0-17 17v733a67 67 0 1 0 133 0v-733a17 17 0 0 0-16-17h0z m-84 667h67v33h-67v-33z m84-33h-100a17 17 0 0 0-17 16v67a17 17 0 0 0 17 17h100a17 17 0 0 0 16-17v-67a17 17 0 0 0-16-16h0z m-84-664l34-89 33 89v30h-67v-30z m34-153a17 17 0 0 0-16 11l-50 133a17 17 0 0 0-1 6v50a17 17 0 0 0 17 17h100a17 17 0 0 0 16-17v-50a17 17 0 0 0-1-6l-50-133a17 17 0 0 0-15-11h0z" horiz-adv-x="1000" />

<glyph glyph-name="phone" unicode="&#xe828;" d="M715-150c-125 0-268 84-449 265-117 118-194 219-233 310-55 127-41 235 41 320 31 33 83 81 85 83a82 82 0 0 0 113-1l138-138a80 80 0 0 0 0-113l-61-61a51 51 0 0 1 0-72l245-246a52 52 0 0 1 72 0l61 62a82 82 0 0 0 113 0l138-138a80 80 0 0 0 0-114c0 0-43-46-81-81-53-50-114-76-182-76z m-500 971a51 51 0 0 1-35-15c-1 0-54-49-85-81-74-77-85-172-35-289 38-87 112-185 227-300 175-175 311-257 428-257 60 0 115 23 161 68 38 35 81 81 81 81a51 51 0 0 1 1 72l-139 138a52 52 0 0 1-71 0l-61-62a82 82 0 0 0-114 0l-245 246a80 80 0 0 0 0 113l61 62a51 51 0 0 1 0 71l-138 138a51 51 0 0 1-36 15z" horiz-adv-x="1002" />

<glyph glyph-name="download" unicode="&#xe829;" d="M42-67a42 42 0 1 1 0-83h555a42 42 0 0 1 0 83h-555z m277 28a47 47 0 0 0-28 11l-236 223c-14 15-20 44-4 60a43 43 0 0 0 61 0l166-156v709a42 42 0 0 0 83 0v-709l166 156c14 14 45 17 61 0s10-46-4-60l-236-223a40 40 0 0 0-29-11z" horiz-adv-x="639" />

<glyph glyph-name="whatsapp" unicode="&#xe82a;" d="M1000 363c0-269-220-487-491-487a492 492 0 0 0-237 60l-272-86 89 261a482 482 0 0 0-71 252c0 269 220 487 491 487s491-218 491-487z m-491 409c-227 0-413-183-413-409a405 405 0 0 1 79-240l-52-152 159 50a413 413 0 0 1 227-68c228 0 413 184 413 410s-185 409-413 409z m248-521c-3 5-11 8-23 14s-71 35-82 39-19 5-27-6-31-39-38-47-14-9-27-3a329 329 0 0 0-96 59 360 360 0 0 0-67 83c-7 12-1 18 5 24 5 5 12 14 18 21a80 80 0 0 1 12 20 22 22 0 0 1-1 21c-3 6-27 65-37 88s-20 20-27 20-15 1-23 1a44 44 0 0 1-32-15 134 134 0 0 1-42-99c0-59 43-116 49-124s83-132 205-180 123-32 145-30 71 29 81 57 10 52 7 57z" horiz-adv-x="1000" />

<glyph glyph-name="transformativo" unicode="&#xe82b;" d="M972 850h-111a28 28 0 0 1-28-28v-28h-250v28a28 28 0 0 1-27 28h-112a28 28 0 0 1-27-28v-28h-250v28a28 28 0 0 1-28 28h-111a28 28 0 0 1-28-28v-111a28 28 0 0 1 28-28h28v-250h-28a28 28 0 0 1-28-27v-112a28 28 0 0 1 28-27h28v-250h-28a28 28 0 0 1-28-28v-111a28 28 0 0 1 28-28h111a28 28 0 0 1 28 28v28h250v-28a28 28 0 0 1 27-28h112a28 28 0 0 1 27 28v28h250v-28a28 28 0 0 1 28-28h111a28 28 0 0 1 28 28v111a28 28 0 0 1-28 28h-28v250h28a28 28 0 0 1 28 27v112a28 28 0 0 1-28 27h-28v250h28a28 28 0 0 1 28 28v111a28 28 0 0 1-28 28z m-500-56h56v-55h-56v55z m-416-27v27h55v-55h-55v28z m0-389h55v-56h-55v56z m55-472h-55v55h55v-55z m417 0h-56v55h56v-55z m305 83v-28h-250v28a28 28 0 0 1-27 28h-112a28 28 0 0 1-27-28v-28h-250v28a28 28 0 0 1-28 28h-28v250h28a28 28 0 0 1 28 27v112a28 28 0 0 1-28 27h-28v250h28a28 28 0 0 1 28 28v28h250v-28a28 28 0 0 1 27-28h112a28 28 0 0 1 27 28v28h250v-28a28 28 0 0 1 28-28h28v-250h-28a28 28 0 0 1-28-27v-112a28 28 0 0 1 28-27h28v-250h-28a28 28 0 0 1-28-28z m111-56v-27h-55v55h55v-28z m0 389h-55v56h55v-56z m0 445v-28h-55v55h55v-27z m-361-389h-55v55a28 28 0 1 1-56 0v-55h-55a28 28 0 0 1 0-56h55v-55a28 28 0 0 1 56 0v55h55a28 28 0 1 1 0 56z" horiz-adv-x="1000" />

<glyph glyph-name="futuro" unicode="&#xe82c;" d="M413 714h14v-15a10 10 0 0 1 20 0v15h14a10 10 0 1 1 0 19h-14v15a10 10 0 0 1-20 0v-15h-14a10 10 0 1 1 0-19z m135 136a548 548 0 0 1-524-708 171 171 0 0 1 9-26v-51h86v-42h75a12 12 0 0 0 5-2 915 915 0 0 1 211-38 241 241 0 0 1 3-32 202 202 0 0 1 8-31c4-8 6-17 9-24a65 65 0 0 0 6-15l12-31 12 31c1 2 5 14 10 27a244 244 0 0 1 11 34c1 4 1 7 2 9a206 206 0 0 1 2 30h123a193 193 0 0 1 3-30 559 559 0 0 1 23-69l12-31 12 31a722 722 0 0 1 23 69 241 241 0 0 1 2 32 907 907 0 0 1 217 40h77v42h87v50c3 9 5 17 9 25a548 548 0 0 1-525 710z m0-26a523 523 0 0 0 522-523 517 517 0 0 0-25-161h-76v52a37 37 0 0 1 22 10c15 14 20 44 20 102 0 74-12 197-55 197s-55-124-55-197c0-58 6-88 20-102a37 37 0 0 1 22-10v-52h-77v161a15 15 0 0 1-6 11 12 12 0 0 1-12 1l-157-60v285a49 49 0 1 1-61 47 51 51 0 0 1 37-47v-295l-20-8-296 340a12 12 0 0 1-14 3 13 13 0 0 1-9-12v-208a247 247 0 0 1-120-68 229 229 0 0 1-64-147h-20v28a31 31 0 0 1 15 8 45 45 0 0 1 7 12 125 125 0 0 1 6 25 321 321 0 0 1 2 37v13a222 222 0 0 1-1 25c-3 43-12 104-41 104s-38-61-40-104a222 222 0 0 1-2-25v-13a321 321 0 0 1 3-37 110 110 0 0 1 5-25 26 26 0 0 1 8-12 31 31 0 0 1 14-8v-28h-49a517 517 0 0 0-26 160 523 523 0 0 0 523 521z m-478-733h-12v25h982v-25h-970z m26 161v13c0 9 1 17 1 25 3 41 10 66 15 75 6-9 12-35 16-75a187 187 0 0 0 1-25v-13a275 275 0 0 0-2-37 45 45 0 0 0-6-20 14 14 0 0 0-9-1h-2a10 10 0 0 0-8 1 32 32 0 0 0-5 20c0 9-1 20-1 37z m83-62h402a12 12 0 0 0 1-6 193 193 0 0 0 7-42h-417a178 178 0 0 0 7 48z m42 75h321a201 201 0 0 0 31-49h-384a263 263 0 0 0 32 49z m368 0l33-39-23-9a280 280 0 0 1-26 48 240 240 0 0 1-192 100c-9 0-18-1-27-1v169l213-243z m369-48h-2c-9 0-13 0-15 4-6 5-12 25-12 84 0 103 18 164 29 172 11-8 30-69 30-172 0-59-7-78-12-84a27 27 0 0 0-18-4z m-116-77h-150v85l150 57v-142z m-175 75v-75h-51a234 234 0 0 1-8 49c0 1-1 2-1 3l41 16h0l18 6h1v1z m-328 119c2 0 5 1 8 1a171 171 0 0 0 34 3 211 211 0 0 0 134-48h-269a206 206 0 0 0 93 44z m341 228a23 23 0 0 0-23 23 23 23 0 0 0 23 23 23 23 0 1 0 0-46z m-231-638a7 7 0 0 0-1 4 238 238 0 0 0-9 29c-1 5-1 15-2 26h24a134 134 0 0 0-2-25c-1-6-5-17-8-28a16 16 0 0 1-2-6z m209 33a305 305 0 0 0-10-33 305 305 0 0 0-10 33c-1 5-1 15-2 25h24c-1-10-1-20-2-25z m27 53c-8 0-16-2-25-2a195 195 0 0 1-25-1h-175a195 195 0 0 0-25 1c-9 0-17 2-26 2a874 874 0 0 0-108 13h492c-35-6-71-11-108-13z m266 39h-806v16h9v-2h456l343 2v-16h-2z" horiz-adv-x="1097" />

<glyph glyph-name="arrow-light-up" unicode="&#xe82d;" d="M313 850a53 53 0 0 0 32-13l266-250c15-17 21-49 3-68a49 49 0 0 0-68 1l-186 175v-798a47 47 0 1 0-94 0h0v798l-187-176c-16-16-51-18-68 0s-12 52 4 68l265 250a45 45 0 0 0 33 13z" horiz-adv-x="625" />

<glyph glyph-name="arrow-light-down" unicode="&#xe82e;" d="M312-150a53 53 0 0 0-32 13l-265 250c-16 17-22 49-4 68a49 49 0 0 0 68 0l187-176v798a47 47 0 0 0 93 0h0v-798l187 176c16 16 51 19 68 0s12-52-4-68l-265-250a45 45 0 0 0-33-13z" horiz-adv-x="625" />

<glyph glyph-name="arrow-light-left" unicode="&#xe82f;" d="M0 350a84 84 0 0 0 20 52l400 425c27 24 79 34 110 6a78 78 0 0 0-1-109l-281-299h1277a75 75 0 0 0 0-150h-1277l281-298c26-26 30-82 1-110s-84-19-110 6l-400 426a72 72 0 0 0-20 51z" horiz-adv-x="1600" />

<glyph glyph-name="arrow-light-right" unicode="&#xe830;" d="M1600 350a84 84 0 0 0-20-52l-400-425c-27-24-79-34-110-6a78 78 0 0 0 1 109l281 299h-1277a75 75 0 1 0 0 150h1277l-281 298c-25 26-30 82-1 110s84 19 110-6l400-426a72 72 0 0 0 20-51z" horiz-adv-x="1600" />

<glyph glyph-name="close" unicode="&#xe831;" d="M34-118a112 112 0 0 1 80-32 112 112 0 0 1 81 32l306 306 306-306a114 114 0 1 1 161 161l-306 306 306 306a114 114 0 1 1-161 161l-306-306-306 306a114 114 0 0 1-161-161l306-306-306-306a113 113 0 0 1 0-161z" horiz-adv-x="1002" />

<glyph glyph-name="menu-dots" unicode="&#xe832;" d="M0-54a94 94 0 1 1 94 95 97 97 0 0 1-94-95z m0 404a94 94 0 1 1 94 96 97 97 0 0 1-94-96z m0 404a94 94 0 1 1 94 96 98 98 0 0 1-94-96z" horiz-adv-x="189" />

<glyph glyph-name="menu" unicode="&#xe833;" d="M88 850a88 88 0 0 1 0-176h1059a88 88 0 1 1 0 176h-1059z m0-412a88 88 0 0 1 0-176h1059a88 88 0 1 1 0 176h-1059z m0-411a88 88 0 0 1 0-177h1059a88 88 0 0 1 0 177h-1059z" horiz-adv-x="1235" />
</font>
</defs>
</svg>
