<?xml version="1.0" encoding="utf-8"?>
<!-- Generator: Adobe Illustrator 16.0.0, SVG Export Plug-In . SVG Version: 6.00 Build 0)  -->
<!DOCTYPE svg PUBLIC "-//W3C//DTD SVG 1.1//EN" "http://www.w3.org/Graphics/SVG/1.1/DTD/svg11.dtd">
<svg version="1.1" id="Capa_1" xmlns="http://www.w3.org/2000/svg" xmlns:xlink="http://www.w3.org/1999/xlink" x="0px" y="0px"
	 width="433.111px" height="113px" viewBox="0 0 433.111 113" enable-background="new 0 0 433.111 113" xml:space="preserve">
<g>
	<g>
		<defs>
			<rect id="SVGID_1_" x="-121.286" y="-182.743" width="676.028" height="478"/>
		</defs>
		<clipPath id="SVGID_2_">
			<use xlink:href="#SVGID_1_"  overflow="visible"/>
		</clipPath>
		<path clip-path="url(#SVGID_2_)" fill="#FFFFFF" d="M121.118,18.292c1.906,0.044,3.989,0.133,6.029,0.133
			c2.083,0,4.123-0.089,6.25-0.133v1.41c-4.167,0.353-4.167,0.617-4.211,6.656v8.859c0,2.337,0,4.937,0.975,7.316
			c1.774,4.276,5.764,5.554,8.467,5.554c2.395,0,4.656-0.881,6.385-2.732c2.616-2.777,3.191-5.994,3.191-17.675
			c0-7.405,0-7.626-4.477-7.979v-1.41c1.773,0.044,3.591,0.089,5.363,0.089c1.597,0,3.238-0.045,4.833-0.089v1.41
			c-1.685,0.088-2.837,0.221-3.325,1.455c-0.177,0.44-0.265,0.793-0.398,2.468c-0.222,2.954-0.222,4.628-0.222,5.157
			c-0.355,9.345-0.487,11.769-1.596,14.414c-2.307,5.332-7.492,6.831-11.395,6.831c-3.724,0-6.828-1.322-8.867-3.217
			c-3.237-3.086-3.28-7.009-3.324-9.962V24.286c-0.045-3.878-0.356-4.231-3.68-4.584v-1.41H121.118z"/>
	</g>
	<g>
		<defs>
			<rect id="SVGID_3_" x="-121.286" y="-182.743" width="676.028" height="478"/>
		</defs>
		<clipPath id="SVGID_4_">
			<use xlink:href="#SVGID_3_"  overflow="visible"/>
		</clipPath>
		<path clip-path="url(#SVGID_4_)" fill="#FFFFFF" d="M156.323,18.292c1.373,0.044,2.748,0.089,4.122,0.089
			c1.375,0,2.705-0.045,4.079-0.089c1.241,1.851,1.906,2.909,4.168,5.642c3.147,3.835,11.882,14.193,15.251,18.16
			c0.088-12.386,0.044-15.03,0-17.146c-0.134-5.025-0.311-5.113-5.188-5.246v-1.41c1.818,0.044,3.636,0.089,5.498,0.089
			c1.772,0,3.325-0.045,5.321-0.089v1.41c-2.928,0.221-3.593,0.309-3.726,4.056c-0.088,2.248-0.398,22.259-0.443,26.094h-0.709
			L162.44,23.317c0,3.394-0.088,18.997,0.134,21.421c0.223,2.733,1.508,3.042,5.188,3.262v1.41
			c-1.952-0.044-3.858-0.088-5.809-0.088c-1.772,0-3.636,0.044-5.454,0.088V48c1.375,0,2.75-0.044,3.415-0.926
			c0.443-0.617,0.487-1.278,0.665-5.156l0.266-20.144c-1.64-1.366-2.527-1.764-4.521-2.072L156.323,18.292L156.323,18.292z"/>
	</g>
	<g>
		<defs>
			<rect id="SVGID_5_" x="-121.286" y="-182.743" width="676.028" height="478"/>
		</defs>
		<clipPath id="SVGID_6_">
			<use xlink:href="#SVGID_5_"  overflow="visible"/>
		</clipPath>
		<path clip-path="url(#SVGID_6_)" fill="#FFFFFF" d="M192.171,18.292c1.995,0.177,4.034,0.309,6.074,0.309
			c1.951,0,3.901-0.132,5.896-0.309v1.41c-3.768,0.396-3.768,0.794-3.768,6.348v15.735c0,5.378,0.045,5.862,3.768,6.215v1.41
			c-1.994-0.088-3.856-0.176-5.764-0.176c-2.083,0-4.166,0.088-6.206,0.176V48c3.635-0.396,3.725-0.837,3.768-4.76
			c0.045-1.72,0.045-3.482,0.045-5.246v-8.066c-0.045-5.421-0.088-6.699-0.222-7.758c-0.266-1.938-0.886-2.203-3.591-2.468V18.292
			L192.171,18.292z"/>
	</g>
	<g>
		<defs>
			<rect id="SVGID_7_" x="-121.286" y="-182.743" width="676.028" height="478"/>
		</defs>
		<clipPath id="SVGID_8_">
			<use xlink:href="#SVGID_7_"  overflow="visible"/>
		</clipPath>
		<path clip-path="url(#SVGID_8_)" fill="#FFFFFF" d="M206.581,18.248c2.084,0.088,4.346,0.132,6.518,0.132
			c2.217,0,4.479-0.044,6.694-0.132v1.455c-2.748,0.176-4.212,0.264-4.212,2.071c0,1.277,3.947,12.341,4.699,14.413
			c1.242,3.482,1.373,3.835,2.484,7.492c3.014-7.668,5.053-12.869,6.737-17.63c0.354-1.014,1.151-3.262,1.151-4.056
			c0-2.115-2.481-2.247-4.166-2.291v-1.455c1.729,0.088,3.412,0.132,5.143,0.132c1.773,0,3.502-0.044,5.23-0.132v1.455
			c-3.28,0.572-3.59,1.454-5.984,7.492c-2.97,7.67-6.072,15.296-9.132,22.921h-0.978l-9.31-25.653
			c-1.331-3.57-2.04-4.408-4.878-4.76v-1.454H206.581z"/>
	</g>
	<g>
		<defs>
			<rect id="SVGID_9_" x="-121.286" y="-182.743" width="676.028" height="478"/>
		</defs>
		<clipPath id="SVGID_10_">
			<use xlink:href="#SVGID_9_"  overflow="visible"/>
		</clipPath>
		<path clip-path="url(#SVGID_10_)" fill="#FFFFFF" d="M239.526,18.292h23.01c1.462,3.482,1.861,4.408,3.457,7.67l-0.842,0.617
			c-3.592-3.968-3.592-3.968-4.391-4.673c-1.906-1.764-3.367-2.116-8.512-2.204h-4.566v12.65h4.389
			c4.168,0.044,4.922-0.661,5.941-5.201h1.152c-0.089,2.072-0.133,4.188-0.133,6.303c0,2.028,0.044,4.056,0.133,6.039h-1.152
			c-1.021-5.024-1.994-5.289-6.916-5.289h-3.414v7.493c0.045,6.038,0.045,6.215,6.118,6.303h2.351
			c3.68-0.044,4.434-0.044,9.842-7.493l0.977,0.529c-1.242,3.746-1.508,4.672-2.527,8.374h-24.916V48
			c3.369-0.265,3.547-1.102,3.591-3.129c0.09-2.116,0.133-4.232,0.133-8.64v-8.286c0-1.366,0-5.862-0.354-6.7
			c-0.397-1.146-1.24-1.278-3.367-1.543v-1.41H239.526z"/>
	</g>
	<g>
		<defs>
			<rect id="SVGID_11_" x="-121.286" y="-182.743" width="676.028" height="478"/>
		</defs>
		<clipPath id="SVGID_12_">
			<use xlink:href="#SVGID_11_"  overflow="visible"/>
		</clipPath>
		<path clip-path="url(#SVGID_12_)" fill="#FFFFFF" d="M269.21,18.292c1.907,0,3.857,0.044,5.766,0.044
			c0.797,0,4.742-0.044,5.629-0.044c2.218,0,5.056,0.044,6.916,0.75c3.104,1.102,4.744,4.055,4.744,6.876
			c0,0.969-0.223,2.556-1.063,4.099c-1.507,2.821-3.856,3.79-5.363,4.452c2.792,3.57,5.585,7.14,8.422,10.666
			c1.774,2.248,2.351,2.601,4.656,2.865v1.41c-1.241-0.044-2.438-0.088-3.681-0.088c-1.152,0-2.129,0.044-3.369,0.088
			c-1.596-2.291-2.04-2.82-3.946-5.289c-2.305-2.909-4.61-5.862-6.915-8.815c-0.621,0-1.24,0.045-1.861,0.045
			s-1.197-0.045-1.818-0.045c0,5.554,0.045,7.67,0.089,9.08c0.134,3.173,0.798,3.218,4.698,3.614v1.41
			c-2.172-0.088-4.344-0.176-6.516-0.176c-2.085,0-3.945,0.088-6.386,0.176V48c3.681-0.353,3.681-0.396,3.726-6.744V28.562
			c0-1.233,0-5.905-0.354-7.229c-0.312-1.189-1.33-1.322-3.37-1.631v-1.41H269.21z M277.323,19.702v14.061
			c0.664,0.044,1.285,0.088,1.906,0.088c3.99,0,5.453-1.013,6.473-2.027c1.242-1.234,1.996-2.997,1.996-5.245
			c0-2.071-0.665-3.967-1.906-5.245c-1.598-1.587-3.061-1.587-5.854-1.631L277.323,19.702L277.323,19.702z"/>
	</g>
	<g>
		<defs>
			<rect id="SVGID_13_" x="-121.286" y="-182.743" width="676.028" height="478"/>
		</defs>
		<clipPath id="SVGID_14_">
			<use xlink:href="#SVGID_13_"  overflow="visible"/>
		</clipPath>
		<path clip-path="url(#SVGID_14_)" fill="#FFFFFF" d="M301.873,39.891c0.354,1.63,0.665,3.173,1.772,4.804
			c1.687,2.469,4.479,3.879,7.095,3.879c2.616,0,6.518-1.72,6.518-6.171c0-1.499-0.532-3.438-2.571-4.937
			c-1.242-0.882-2.039-1.146-5.809-2.38c-2.395-0.794-7.359-2.469-7.359-8.42c0-4.979,3.726-8.858,9.223-8.858
			c2.883,0,4.654,1.014,6.296,1.939l1.817-1.366l1.02,9.035l-1.02,0.221c-0.578-2.16-2.306-8.331-7.98-8.331
			c-3.813,0-5.764,2.601-5.764,5.245c0,1.455,0.488,2.91,1.552,4.012c1.286,1.365,2.794,1.851,6.03,2.864
			c3.104,0.97,8.379,2.601,8.379,9.212c0,5.73-4.744,9.39-10.42,9.39c-3.855,0-5.852-1.367-7.137-2.205l-2.438,1.587
			c-0.046-4.539-0.089-5.598-0.354-9.432L301.873,39.891z"/>
	</g>
	<g>
		<defs>
			<rect id="SVGID_15_" x="-121.286" y="-182.743" width="676.028" height="478"/>
		</defs>
		<clipPath id="SVGID_16_">
			<use xlink:href="#SVGID_15_"  overflow="visible"/>
		</clipPath>
		<path clip-path="url(#SVGID_16_)" fill="#FFFFFF" d="M323.999,18.292c1.995,0.177,4.033,0.309,6.072,0.309
			c1.951,0,3.902-0.132,5.897-0.309v1.41c-3.77,0.396-3.77,0.794-3.77,6.348v15.735c0,5.378,0.045,5.862,3.77,6.215v1.41
			c-1.995-0.088-3.856-0.176-5.765-0.176c-2.083,0-4.167,0.088-6.206,0.176V48c3.635-0.396,3.724-0.837,3.769-4.76
			c0.045-1.72,0.045-3.482,0.045-5.246v-8.066c-0.045-5.421-0.09-6.699-0.223-7.758c-0.267-1.938-0.887-2.203-3.591-2.468
			L323.999,18.292L323.999,18.292z"/>
	</g>
	<g>
		<defs>
			<rect id="SVGID_17_" x="-121.286" y="-182.743" width="676.028" height="478"/>
		</defs>
		<clipPath id="SVGID_18_">
			<use xlink:href="#SVGID_17_"  overflow="visible"/>
		</clipPath>
		<path clip-path="url(#SVGID_18_)" fill="#FFFFFF" d="M338.962,18.292c1.463,0,2.883,0.044,4.346,0.044
			c0.709,0,2.705-0.044,4.787-0.088c2.04-0.044,4.123-0.088,4.879-0.088c3.723,0,10.195,0.176,14.541,5.906
			c2.172,2.82,3.146,6.303,3.146,9.653c0,4.143-1.508,8.991-5.764,12.209c-4.61,3.481-10.33,3.481-12.945,3.481
			c-1.02,0-6.118-0.044-7.271-0.044c-1.861,0-3.592,0-5.72,0.044v-1.454c3.726-0.397,3.726-0.573,3.771-5.818
			c0-1.234,0.043-2.468,0.043-3.702V27.856c0-1.365-0.043-5.73-0.354-6.611c-0.444-1.146-1.374-1.278-3.459-1.499L338.962,18.292
			L338.962,18.292z M347.253,41.653c0,1.278,0.045,3.394,0.089,3.834c0.134,1.235,0.398,2.469,4.832,2.469
			c8.29,0,13.302-6.215,13.302-14.633c0-2.514-0.533-5.334-1.951-7.671c-3.547-6.038-9.664-6.038-12.104-6.038
			c-1.109,0-2.794,0-4.168,0.044V41.653z"/>
	</g>
	<g>
		<defs>
			<rect id="SVGID_19_" x="-121.286" y="-182.743" width="676.028" height="478"/>
		</defs>
		<clipPath id="SVGID_20_">
			<use xlink:href="#SVGID_19_"  overflow="visible"/>
		</clipPath>
		<path clip-path="url(#SVGID_20_)" fill="#FFFFFF" d="M367.813,48c3.901-0.308,4.479-1.102,5.809-4.717
			c2.838-7.757,5.631-15.515,8.469-23.272c-0.267-0.44-0.354-0.617-0.71-1.058c2.839-0.573,3.681-1.058,5.099-2.072
			c1.108,3.615,1.33,4.32,2.174,6.789l5.896,18.292c1.552,4.849,2.084,5.642,5.453,6.038v1.411
			c-2.084-0.045-4.345-0.089-6.519-0.089c-2.172,0-4.346,0.044-6.518,0.089V48c2.129-0.133,3.858-0.308,3.858-2.115
			c0-1.322-1.861-7.185-2.483-9.124h-10.729c-0.576,1.764-1.152,3.526-1.686,5.245c-0.398,1.19-0.931,2.909-0.931,3.57
			c0,2.204,2.749,2.336,4.3,2.424v1.411c-1.861-0.045-3.813-0.089-5.675-0.089c-1.95,0-3.856,0.044-5.808,0.089V48L367.813,48z
			 M387.677,34.777c-1.463-4.408-3.148-9.741-4.656-13.18l-4.697,13.18H387.677z"/>
	</g>
	<g>
		<defs>
			<rect id="SVGID_21_" x="-121.286" y="-182.743" width="676.028" height="478"/>
		</defs>
		<clipPath id="SVGID_22_">
			<use xlink:href="#SVGID_21_"  overflow="visible"/>
		</clipPath>
		<path clip-path="url(#SVGID_22_)" fill="#FFFFFF" d="M401.756,18.292c1.463,0,2.882,0.044,4.345,0.044
			c0.71,0,2.705-0.044,4.788-0.088c2.04-0.044,4.123-0.088,4.878-0.088c3.725,0,10.196,0.176,14.541,5.906
			c2.174,2.82,3.148,6.303,3.148,9.653c0,4.143-1.508,8.991-5.764,12.209c-4.611,3.481-10.33,3.481-12.945,3.481
			c-1.021,0-6.119-0.044-7.271-0.044c-1.861,0-3.592,0-5.72,0.044v-1.454c3.726-0.397,3.726-0.573,3.771-5.818
			c0-1.234,0.044-2.468,0.044-3.702V27.856c0-1.365-0.044-5.73-0.354-6.611c-0.444-1.146-1.374-1.278-3.459-1.499L401.756,18.292
			L401.756,18.292z M410.047,41.653c0,1.278,0.044,3.394,0.089,3.834c0.133,1.235,0.398,2.469,4.832,2.469
			c8.29,0,13.301-6.215,13.301-14.633c0-2.514-0.531-5.334-1.95-7.671c-3.546-6.038-9.663-6.038-12.104-6.038
			c-1.107,0-2.794,0-4.168,0.044V41.653z"/>
	</g>
	<g>
		<defs>
			<rect id="SVGID_23_" x="-121.286" y="-182.743" width="676.028" height="478"/>
		</defs>
		<clipPath id="SVGID_24_">
			<use xlink:href="#SVGID_23_"  overflow="visible"/>
		</clipPath>
		<path clip-path="url(#SVGID_24_)" fill="#FFFFFF" d="M121.693,62.977c1.463,0,2.883,0.043,4.345,0.043
			c0.71,0,2.706-0.043,4.788-0.088c2.04-0.043,4.124-0.088,4.878-0.088c3.725,0,10.196,0.176,14.541,5.906
			c2.172,2.82,3.148,6.303,3.148,9.652c0,4.144-1.508,8.99-5.764,12.209c-4.611,3.481-10.331,3.481-12.946,3.481
			c-1.02,0-6.118-0.045-7.271-0.045c-1.862,0-3.592,0-5.72,0.045v-1.452c3.724-0.397,3.724-0.572,3.769-5.818
			c0-1.234,0.043-2.469,0.043-3.702V72.54c0-1.366-0.043-5.729-0.354-6.61c-0.443-1.146-1.375-1.279-3.458-1.498L121.693,62.977
			L121.693,62.977z M129.984,86.337c0,1.277,0.045,3.394,0.089,3.834c0.132,1.235,0.399,2.47,4.832,2.47
			c8.291,0,13.3-6.217,13.3-14.635c0-2.513-0.531-5.334-1.95-7.669c-3.547-6.039-9.664-6.039-12.104-6.039
			c-1.108,0-2.792,0-4.167,0.043V86.337L129.984,86.337z"/>
	</g>
	<g>
		<defs>
			<rect id="SVGID_25_" x="-121.286" y="-182.743" width="676.028" height="478"/>
		</defs>
		<clipPath id="SVGID_26_">
			<use xlink:href="#SVGID_25_"  overflow="visible"/>
		</clipPath>
		<path clip-path="url(#SVGID_26_)" fill="#FFFFFF" d="M155.436,62.977h23.01c1.463,3.48,1.862,4.407,3.458,7.668l-0.843,0.617
			c-3.591-3.967-3.591-3.967-4.389-4.672c-1.906-1.763-3.369-2.115-8.513-2.204h-4.566v12.65h4.39
			c4.168,0.044,4.921-0.661,5.94-5.201h1.153c-0.089,2.072-0.133,4.188-0.133,6.304c0,2.027,0.044,4.055,0.133,6.037h-1.153
			c-1.02-5.023-1.994-5.289-6.915-5.289h-3.415v7.493c0.045,6.039,0.045,6.216,6.118,6.304h2.351
			c3.68-0.045,4.434-0.045,9.842-7.492l0.976,0.529c-1.241,3.745-1.508,4.672-2.527,8.373h-24.916v-1.41
			c3.369-0.265,3.547-1.103,3.592-3.129c0.089-2.115,0.132-4.23,0.132-8.64v-8.287c0-1.366,0-5.86-0.354-6.698
			c-0.398-1.146-1.241-1.279-3.369-1.543v-1.41H155.436z"/>
	</g>
	<g>
		<defs>
			<rect id="SVGID_27_" x="-121.286" y="-182.743" width="676.028" height="478"/>
		</defs>
		<clipPath id="SVGID_28_">
			<use xlink:href="#SVGID_27_"  overflow="visible"/>
		</clipPath>
		<path clip-path="url(#SVGID_28_)" fill="#FFFFFF" d="M196.827,62.932c1.906,0.088,4.034,0.133,6.074,0.133
			c2.083,0,4.167-0.045,6.251-0.133v1.454c-2.526,0.265-3.369,0.354-3.857,1.499c-0.354,0.881-0.354,2.909-0.443,7.098v8.858
			c0,3.042,0,5.511,0.133,7.492c0.045,0.706,0.089,1.853,0.755,2.424c1.24,1.146,6.649,0.972,8.245,0.839
			c2.527-0.177,5.188-0.354,9.089-8.771l1.507,0.484c-1.418,4.318-1.771,5.553-2.971,9.784h-24.782v-1.452
			c2.394-0.266,3.369-0.441,3.502-2.336c0.044-1.015,0.09-1.896,0.222-7.537V71.262c0-1.102-0.043-4.451-0.31-5.244
			c-0.399-1.19-1.153-1.322-3.414-1.632L196.827,62.932L196.827,62.932z"/>
	</g>
	<g>
		<defs>
			<rect id="SVGID_29_" x="-121.286" y="-182.743" width="676.028" height="478"/>
		</defs>
		<clipPath id="SVGID_30_">
			<use xlink:href="#SVGID_29_"  overflow="visible"/>
		</clipPath>
		<path clip-path="url(#SVGID_30_)" fill="#FFFFFF" d="M225.427,62.977c1.995,0.176,4.033,0.309,6.072,0.309
			c1.952,0,3.902-0.133,5.896-0.309v1.409c-3.769,0.396-3.769,0.794-3.769,6.347v15.736c0,5.377,0.045,5.862,3.769,6.215v1.41
			c-1.994-0.088-3.855-0.176-5.764-0.176c-2.083,0-4.167,0.088-6.206,0.176v-1.41c3.636-0.396,3.724-0.838,3.769-4.761
			c0.045-1.719,0.045-3.481,0.045-5.245v-8.064c-0.045-5.422-0.09-6.701-0.223-7.758c-0.267-1.939-0.888-2.205-3.591-2.47
			L225.427,62.977L225.427,62.977z"/>
	</g>
	<g>
		<defs>
			<rect id="SVGID_31_" x="-121.286" y="-182.743" width="676.028" height="478"/>
		</defs>
		<clipPath id="SVGID_32_">
			<use xlink:href="#SVGID_31_"  overflow="visible"/>
		</clipPath>
		<path clip-path="url(#SVGID_32_)" fill="#FFFFFF" d="M241.698,62.977c1.463,0.043,2.971,0.086,4.433,0.086
			c1.463,0,2.927-0.043,4.39-0.086l10.375,24.946l11.039-24.946c1.418,0,2.838,0.043,4.301,0.043s2.927-0.043,4.39-0.043v1.41
			c-3.681,0.396-3.769,0.793-3.769,4.451l0.088,18.909c0.089,3.879,0.089,4.54,3.681,4.937v1.41
			c-2.039-0.044-4.079-0.088-6.118-0.088c-1.861,0-3.635,0.044-5.941,0.088v-1.41c3.459-0.22,3.946-0.572,3.99-3.834V65.532
			L259.7,94.445h-0.754l-12.192-28.869l-0.267,20.408c-0.043,5.289-0.043,6.258,3.77,6.699v1.409
			c-1.552-0.044-3.146-0.088-4.699-0.088c-1.598,0-2.75,0.044-4.744,0.088v-1.409c3.725-0.354,3.77-1.322,3.9-7.054l0.4-17.587
			c-0.045-3.041-0.223-3.307-3.414-3.658v-1.408H241.698z"/>
	</g>
	<g>
		<defs>
			<rect id="SVGID_33_" x="-121.286" y="-182.743" width="676.028" height="478"/>
		</defs>
		<clipPath id="SVGID_34_">
			<use xlink:href="#SVGID_33_"  overflow="visible"/>
		</clipPath>
		<path clip-path="url(#SVGID_34_)" fill="#FFFFFF" d="M282.558,92.684c3.9-0.309,4.478-1.103,5.808-4.717
			c2.838-7.757,5.632-15.515,8.469-23.271c-0.267-0.44-0.354-0.617-0.71-1.059c2.838-0.572,3.682-1.058,5.1-2.07
			c1.107,3.613,1.33,4.318,2.172,6.787l5.896,18.293c1.551,4.848,2.084,5.642,5.453,6.037v1.41
			c-2.083-0.044-4.346-0.088-6.518-0.088c-2.174,0-4.346,0.044-6.518,0.088v-1.41c2.127-0.132,3.857-0.309,3.857-2.115
			c0-1.322-1.863-7.186-2.483-9.125h-10.729c-0.574,1.765-1.151,3.527-1.685,5.246c-0.399,1.189-0.931,2.91-0.931,3.57
			c0,2.203,2.748,2.336,4.301,2.424v1.41c-1.861-0.044-3.813-0.088-5.676-0.088c-1.95,0-3.857,0.044-5.807,0.088V92.684
			L282.558,92.684z M302.419,79.461c-1.463-4.408-3.148-9.74-4.654-13.179l-4.699,13.179H302.419z"/>
	</g>
	<g>
		<defs>
			<rect id="SVGID_35_" x="-121.286" y="-182.743" width="676.028" height="478"/>
		</defs>
		<clipPath id="SVGID_36_">
			<use xlink:href="#SVGID_35_"  overflow="visible"/>
		</clipPath>
		<polygon clip-path="url(#SVGID_36_)" fill="#FFFFFF" points="39.25,21.741 53.55,2.711 67.849,21.741 53.55,40.771 		"/>
	</g>
	<g>
		<defs>
			<rect id="SVGID_37_" x="-121.286" y="-182.743" width="676.028" height="478"/>
		</defs>
		<clipPath id="SVGID_38_">
			<use xlink:href="#SVGID_37_"  overflow="visible"/>
		</clipPath>
		<polygon clip-path="url(#SVGID_38_)" fill="#FFFFFF" points="67.849,21.741 91.415,18.396 88.069,41.961 64.502,45.307 		"/>
	</g>
	<g>
		<defs>
			<rect id="SVGID_39_" x="-121.286" y="-182.743" width="676.028" height="478"/>
		</defs>
		<clipPath id="SVGID_40_">
			<use xlink:href="#SVGID_39_"  overflow="visible"/>
		</clipPath>
		<polygon clip-path="url(#SVGID_40_)" fill="#FFFFFF" points="88.062,41.958 107.091,56.256 88.062,70.555 69.032,56.256 		"/>
	</g>
	<g>
		<defs>
			<rect id="SVGID_41_" x="-121.286" y="-182.743" width="676.028" height="478"/>
		</defs>
		<clipPath id="SVGID_42_">
			<use xlink:href="#SVGID_41_"  overflow="visible"/>
		</clipPath>
		<polygon clip-path="url(#SVGID_42_)" fill="#FFFFFF" points="88.062,70.555 91.407,94.12 67.841,90.773 64.495,67.208 		"/>
	</g>
	<g>
		<defs>
			<rect id="SVGID_43_" x="-121.286" y="-182.743" width="676.028" height="478"/>
		</defs>
		<clipPath id="SVGID_44_">
			<use xlink:href="#SVGID_43_"  overflow="visible"/>
		</clipPath>
		<polygon clip-path="url(#SVGID_44_)" fill="#FFFFFF" points="67.842,90.773 53.544,109.803 39.247,90.773 53.544,71.743 		"/>
	</g>
	<g>
		<defs>
			<rect id="SVGID_45_" x="-121.286" y="-182.743" width="676.028" height="478"/>
		</defs>
		<clipPath id="SVGID_46_">
			<use xlink:href="#SVGID_45_"  overflow="visible"/>
		</clipPath>
		<polygon clip-path="url(#SVGID_46_)" fill="#FFFFFF" points="39.25,90.773 15.684,94.12 19.03,70.555 42.596,67.208 		"/>
	</g>
	<g>
		<defs>
			<rect id="SVGID_47_" x="-121.286" y="-182.743" width="676.028" height="478"/>
		</defs>
		<clipPath id="SVGID_48_">
			<use xlink:href="#SVGID_47_"  overflow="visible"/>
		</clipPath>
		<polygon clip-path="url(#SVGID_48_)" fill="#FFFFFF" points="19.03,70.555 0,56.256 19.03,41.958 38.06,56.256 		"/>
	</g>
	<g>
		<defs>
			<rect id="SVGID_49_" x="-121.286" y="-182.743" width="676.028" height="478"/>
		</defs>
		<clipPath id="SVGID_50_">
			<use xlink:href="#SVGID_49_"  overflow="visible"/>
		</clipPath>
		<polygon clip-path="url(#SVGID_50_)" fill="#FFFFFF" points="19.03,41.961 15.684,18.395 39.25,21.74 42.596,45.307 		"/>
	</g>
</g>
</svg>
