<?xml version="1.0" encoding="utf-8"?>
<!-- Generator: Adobe Illustrator 16.0.0, SVG Export Plug-In . SVG Version: 6.00 Build 0)  -->
<!DOCTYPE svg PUBLIC "-//W3C//DTD SVG 1.0//EN" "http://www.w3.org/TR/2001/REC-SVG-20010904/DTD/svg10.dtd">
<svg version="1.0" id="Capa_1" xmlns="http://www.w3.org/2000/svg" xmlns:xlink="http://www.w3.org/1999/xlink" x="0px" y="0px"
	 width="26.901px" height="27.033px" viewBox="0 0 26.901 27.033" enable-background="new 0 0 26.901 27.033" xml:space="preserve">
<g id="Forma_1_copia" display="none">
	<g display="inline">
		<path fill="#E3AD33" d="M190.408,20.126c-9.822-10.609-19.645-21.219-29.466-31.829c-1.422-1.535-4.002-1.454-5.436,0
			c-9.639,9.773-19.276,19.548-28.914,29.321c-9.049-9.773-18.097-19.548-27.145-29.321c-1.421-1.535-4.002-1.454-5.436,0
			C84.374-1.929,74.736,7.845,65.098,17.619C56.05,7.845,47.002-1.929,37.954-11.703c-1.421-1.535-4.002-1.454-5.436,0
			C22.056-1.092,11.593,9.517,1.131,20.126c-3.503,3.552,1.932,9.064,5.436,5.512C16.094,15.976,25.622,6.315,35.15-3.347
			c8.944,9.662,17.89,19.323,26.834,28.985c0.981,1.061,2.131,1.335,3.19,1.125c0.968,0.094,1.989-0.216,2.886-1.125
			c9.527-9.662,19.056-19.323,28.584-28.985c8.944,9.662,17.89,19.323,26.834,28.985c0.981,1.061,2.131,1.335,3.19,1.125
			c0.968,0.094,1.989-0.216,2.886-1.125c9.528-9.662,19.056-19.323,28.584-28.985c8.944,9.662,17.89,19.323,26.834,28.985
			C188.366,29.303,193.794,23.783,190.408,20.126z"/>
	</g>
</g>
<g id="Rectángulo_4" display="none">
	<g display="inline">
		<polygon fill="#521C69" points="13.451,0 0,13.517 13.451,27.033 26.901,13.517 		"/>
	</g>
</g>
<g id="Rectángulo_4_copia">
	<g>
		<polygon fill="#FFFFFF" points="13.451,0 0,13.517 13.451,27.033 26.902,13.517 		"/>
	</g>
</g>
</svg>
