<?xml version="1.0" encoding="utf-8"?>
<!-- Generator: Adobe Illustrator 16.0.0, SVG Export Plug-In . SVG Version: 6.00 Build 0)  -->
<!DOCTYPE svg PUBLIC "-//W3C//DTD SVG 1.1//EN" "http://www.w3.org/Graphics/SVG/1.1/DTD/svg11.dtd">
<svg version="1.1"
	 id="svg2" xmlns:cc="http://creativecommons.org/ns#" xmlns:dc="http://purl.org/dc/elements/1.1/" xmlns:inkscape="http://www.inkscape.org/namespaces/inkscape" xmlns:rdf="http://www.w3.org/1999/02/22-rdf-syntax-ns#" xmlns:sodipodi="http://sodipodi.sourceforge.net/DTD/sodipodi-0.dtd" xmlns:svg="http://www.w3.org/2000/svg"
	 xmlns="http://www.w3.org/2000/svg" xmlns:xlink="http://www.w3.org/1999/xlink" x="0px" y="0px" width="500px" height="500px"
	 viewBox="0 0 500 500" enable-background="new 0 0 500 500" xml:space="preserve">
<g id="layer1" transform="translate(0,-552.36218)">
	<path id="rect2995" fill="#B6B6B6" d="M50,552.362c-27.7,0-50,22.3-50,50v400c0,27.7,22.3,50,50,50h400c27.7,0,50-22.3,50-50v-400
		c0-27.7-22.3-50-50-50H50z M79.063,603.518h343.406c15.661,0,28.281,12.62,28.281,28.281v343.531
		c0,15.661-12.62,28.25-28.281,28.25H79.063c-15.662,0-28.25-12.589-28.25-28.25V631.8
		C50.813,616.138,63.401,603.518,79.063,603.518z M139.906,658.143c-19.182,0-34.719,15.537-34.719,34.719
		s15.537,34.75,34.719,34.75s34.719-15.568,34.719-34.75S159.088,658.143,139.906,658.143z M321.781,748.581
		c-3.922-0.014-7.74,0.149-12.719,0.406c-10.919,0.564-36.413,12.368-45.75,31.219c0-8.185,0.094-15.689,0.094-26.906
		c-11.184,0-25.808,0.063-56.375,0.063c0,34.253-0.375,155.562-0.375,190.906h59.188c0-20.968,0.281-73.646,0.281-106.719
		c0-11.105,6.715-36.75,34.313-36.75c25.059,0,32.094,21.078,32.094,36.75c0,34.444-0.25,83.145-0.25,106.719h59.531
		c0-23.044,0.207-85.633-0.5-125.125c-0.857-47.951-30.035-68.417-56.219-70.031C329.705,748.78,325.703,748.595,321.781,748.581z
		 M110.188,754.112v190.063h59.344V754.112H110.188z"/>
</g>
</svg>
