<?xml version="1.0" encoding="utf-8"?>
<!-- Generator: Adobe Illustrator 16.0.0, SVG Export Plug-In . SVG Version: 6.00 Build 0)  -->
<!DOCTYPE svg PUBLIC "-//W3C//DTD SVG 1.0//EN" "http://www.w3.org/TR/2001/REC-SVG-20010904/DTD/svg10.dtd">
<svg version="1.0" id="Capa_1" xmlns="http://www.w3.org/2000/svg" xmlns:xlink="http://www.w3.org/1999/xlink" x="0px" y="0px"
	 width="191.479px" height="39.667px" viewBox="0 0 191.479 39.667" enable-background="new 0 0 191.479 39.667"
	 xml:space="preserve">
<g id="Forma_1_copia">
	<g>
		<path fill="#ffb400" d="M190.408,32.95c-9.822-10.609-19.645-21.219-29.466-31.829c-1.422-1.535-4.002-1.454-5.436,0
			c-9.639,9.773-19.276,19.548-28.914,29.321c-9.049-9.773-18.097-19.548-27.145-29.321c-1.421-1.535-4.002-1.454-5.436,0
			c-9.639,9.773-19.276,19.548-28.915,29.321C56.05,20.669,47.002,10.895,37.954,1.121c-1.421-1.535-4.002-1.454-5.436,0
			C22.056,11.731,11.593,22.341,1.131,32.95c-3.503,3.552,1.932,9.064,5.436,5.512C16.094,28.8,25.622,19.139,35.15,9.477
			c8.944,9.662,17.89,19.323,26.834,28.985c0.981,1.061,2.131,1.335,3.19,1.125c0.968,0.094,1.989-0.216,2.886-1.125
			C77.588,28.8,87.116,19.139,96.645,9.477c8.944,9.662,17.89,19.323,26.834,28.985c0.981,1.061,2.131,1.335,3.19,1.125
			c0.968,0.094,1.989-0.216,2.886-1.125c9.528-9.662,19.056-19.323,28.584-28.985c8.944,9.662,17.89,19.323,26.834,28.985
			C188.366,42.127,193.794,36.606,190.408,32.95z"/>
	</g>
</g>
</svg>
