<?xml version="1.0" encoding="utf-8"?>
<!-- Generator: Adobe Illustrator 18.0.0, SVG Export Plug-In . SVG Version: 6.00 Build 0)  -->
<!DOCTYPE svg PUBLIC "-//W3C//DTD SVG 1.1//EN" "http://www.w3.org/Graphics/SVG/1.1/DTD/svg11.dtd">
<svg version="1.1" id="Forma_6_copia_4_1_" xmlns="http://www.w3.org/2000/svg" xmlns:xlink="http://www.w3.org/1999/xlink" x="0px"
	 y="0px" viewBox="0 0 384 79" enable-background="new 0 0 384 79" xml:space="preserve">
<g id="Forma_6_copia_4">
	<g>
		<path fill-rule="evenodd" clip-rule="evenodd" fill="#FFFFFF" d="M382.2,65.2c-19.7-21-39.4-42-59.1-63c-2.9-3-8-2.9-10.9,0
			c-19.3,19.3-38.7,38.7-58,58c-18.2-19.3-36.3-38.7-54.5-58c-2.9-3-8-2.9-10.9,0c-19.3,19.3-38.7,38.7-58,58
			c-18.2-19.3-36.3-38.7-54.5-58c-2.9-3-8-2.9-10.9,0c-21,21-42,42-63,63c-7,7,3.9,17.9,10.9,10.9C32.3,57,51.5,37.9,70.6,18.8
			c18,19.1,35.9,38.2,53.9,57.3c2,2.1,4.3,2.6,6.4,2.2c1.9,0.2,4-0.4,5.8-2.2C155.8,57,174.9,37.9,194,18.8
			c18,19.1,35.9,38.2,53.9,57.3c2,2.1,4.3,2.6,6.4,2.2c1.9,0.2,4-0.4,5.8-2.2c19.1-19.1,38.3-38.2,57.4-57.3
			c18,19.1,35.9,38.2,53.9,57.3C378.1,83.4,389,72.5,382.2,65.2z"/>
	</g>
</g>
</svg>
