<?xml version="1.0" encoding="utf-8"?>
<!-- Generator: Adobe Illustrator 16.0.0, SVG Export Plug-In . SVG Version: 6.00 Build 0)  -->
<!DOCTYPE svg PUBLIC "-//W3C//DTD SVG 1.1//EN" "http://www.w3.org/Graphics/SVG/1.1/DTD/svg11.dtd">
<svg version="1.1" id="Capa_1" xmlns="http://www.w3.org/2000/svg" xmlns:xlink="http://www.w3.org/1999/xlink" x="0px" y="0px"
	 width="136.306px" height="159.614px" viewBox="0 0 136.306 159.614" enable-background="new 0 0 136.306 159.614"
	 xml:space="preserve">
<g>
	<path fill="#FFFFFF" d="M66.651,67.899c9.378,0.003,17.697,0.397,25.999,1.045c5.156,0.4,10.299,0.98,15.427,1.66
		c1.411,0.188,1.513,0.243,1.555,1.667c0.166,5.626,0.211,11.251-0.077,16.877c-0.197,3.821-0.429,7.638-0.841,11.441
		c-1.294,11.956-3.533,23.687-8.489,34.746c-2.316,5.166-5.25,9.939-9.204,14.047c-6.771,7.025-15.065,10.143-24.758,9.813
		c-10.308-0.35-18.423-4.873-24.708-12.885c-4.613-5.879-7.594-12.596-9.844-19.66c-2.38-7.469-3.819-15.133-4.809-22.903
		c-1.323-10.358-1.536-20.749-1.279-31.166c0.045-1.826,0.063-1.82,1.866-2.017c4.861-0.529,9.718-1.123,14.586-1.577
		c3.64-0.339,7.292-0.6,10.945-0.718C57.907,68.112,62.798,67.779,66.651,67.899z"/>
	<path fill="#FFFFFF" d="M60.78,53.603c1.451,1.088,2.385,2.586,3.271,4.121c-0.331,0.261-0.88,0.177-1.107,0.818
		c0.393-0.48,0.733-0.833,1.277-0.518c1.533,2.035,2.349,4.435,3.389,6.973c0.477-1.162,0.841-2.087,1.231-3.003
		c1.083-2.554,2.505-4.909,4.251-7.063c2.523-3.111,6.076-3.888,9.673-2.124c0.201,0.099,0.399,0.207,0.597,0.315
		c2.457,1.373,3.614,1.205,5.63-0.815c1.082-1.084,1.781-2.179,2.338-3.674c-0.601-0.133-1.201-0.241-1.785-0.408
		c-0.348-0.1-0.561-0.424-0.602-0.756c-0.056-0.445,0.354-0.484,0.667-0.591c2.001-0.688,2.635-2.954,1.873-5.291
		c-0.135-0.416-0.45-0.441-0.794-0.457c-1.229-0.051-2.318-0.439-3.148-1.388c-0.388-0.444-0.928-0.349-1.411-0.432
		c-0.996-0.172-2.013-0.247-2.967-0.614c-0.505-0.192-0.929-0.508-0.723-1.137c0.195-0.599,0.628-0.66,1.216-0.514
		c0.542,0.135,1.121,0.584,1.905-0.067c-1.145-0.653-2.231-0.903-3.396-0.834c-0.78,0.046-1.1,0.638-1.441,1.254
		c-0.402,0.726-0.774,0.67-1.149-0.086c-0.67-1.35-0.218-3.008,1.318-3.475c1.744-0.531,2.97-1.658,4.363-2.667
		c2.998-2.169,6.325-2.093,9.666-0.922c2.903,1.018,5.206,2.922,6.964,5.403c1.376,1.94,2.717,3.869,4.766,5.172
		c0.193,0.124,0.379,0.26,0.342,0.525c-0.044,0.326-0.295,0.455-0.573,0.527c-0.9,0.233-1.761-0.043-2.587-0.303
		c-0.344,0.46-0.111,0.818,0.009,1.168c0.908,2.639,2.14,5.075,4.298,6.948c0.688,0.597,0.586,0.992-0.261,1.23
		c-1.088,0.307-2.084-0.061-3.14-0.58c-0.016,1.73,0.325,3.247,1.154,4.622c0.808,1.341,1.893,1.753,3.441,1.505
		c1.148-0.184,2.098-0.777,3.07-1.337c1.314-0.758,2.609-1.554,3.946-2.271c2.537-1.357,4.986-1.038,7.335,0.508
		c1.833,1.207,3.137,2.888,4.19,4.775c1.804,3.232,2.773,6.75,3.453,10.357c0.615,3.268,0.986,6.567,1.021,9.892
		c0.027,2.63,0.646,5.008,2.507,6.96c0.113,0.12,0.218,0.259,0.068,0.636c-2.695,1.155-4.032-0.877-5.54-2.627
		c0.77,4.069,0.744,8.114,0.617,12.164c-0.103,3.331-0.815,6.579-1.36,9.849c-0.348,2.093-1.031,4.166-0.377,6.329
		c0.15,0.499-0.238,0.699-0.682,0.72c-1.26,0.063-2.122-0.633-2.832-1.557c-0.837-1.086-1.233-2.385-1.636-3.699
		c-0.411,0.366-0.451,0.823-0.564,1.256c-1.697,6.511-4.068,12.742-7.644,18.478c-0.893,1.432-1.635,2.953-2.26,4.525
		c-0.499,1.254-0.868,2.533-0.762,4.014c-0.951-0.08-1.612-0.6-2.227-1.131c-2.134-1.852-3.109-4.359-3.874-6.98
		c-0.121-0.414,0.063-0.773,0.177-1.145c2.265-7.447,3.724-15.063,4.691-22.772c1.396-11.136,1.743-22.32,1.373-33.531
		c-0.048-1.483-0.085-1.483-1.503-1.675c-18.168-2.465-36.422-3.263-54.735-2.646c-8.209,0.277-16.404,0.872-24.562,1.868
		c-2.122,0.259-4.243,0.515-6.365,0.768c-1.54,0.186-1.545,0.183-1.602,1.711c-0.214,5.793-0.164,11.588,0.018,17.381
		c0.019,0.617-0.011,1.235-0.017,1.854c-0.295,0.335-0.774-0.01-1.094,0.297c-0.204,0.039,0.161,0.178,0.026-0.003
		c0.37-0.203,0.733-0.184,1.086,0.044c0.381,1.771,0.33,3.571,0.351,5.366c-0.071,0.193-0.343,0.052-0.412,0.249
		c0.134-0.093,0.31-0.115,0.414-0.257c0.455,1.523,0.384,3.113,0.544,4.668c0.916,8.907,2.438,17.693,5.012,26.279
		c0.254,0.848,0.261,1.633-0.023,2.467c-0.713,2.096-1.592,4.088-3.208,5.666c-0.722,0.709-1.518,1.287-2.646,1.525
		c0.152-2.58-0.917-4.684-2.005-6.775c-1.399-2.689-3.094-5.219-4.342-7.994c-1.732-3.854-3.144-7.815-4.202-11.903
		c-0.134-0.518-0.286-1.031-0.447-1.608c-0.588,0.579-0.592,1.304-0.867,1.907c-0.424,0.93-0.888,1.821-1.663,2.508
		c-0.608,0.537-1.303,0.888-2.139,0.84c-0.437-0.024-0.808-0.19-0.675-0.719c0.732-2.92-0.33-5.679-0.801-8.476
		c-0.637-3.779-1.031-7.568-1.067-11.398c-0.006-0.674-0.024-1.351,0.188-2.005c0.39-0.221,0.776-0.274,1.14-0.011
		c-0.27-0.38-0.813,0.02-1.121-0.328c-0.155-2.081,0.303-4.105,0.625-6.393c-1.581,1.92-2.903,4.06-5.938,2.733
		c0.697-0.906,1.293-1.683,1.89-2.459c0.361-0.227,1.312-0.189,0.442-0.977c0.208-1.238,0.417-2.478,0.624-3.716
		c0.356-0.234,0.724-0.22,1.087-0.077c-0.3-0.259-0.772,0.072-1.07-0.26C2.946,72.166,3.92,66.176,6.228,60.441
		c0.688-1.707,1.493-3.377,2.842-4.703c0.816,0.532,0.147,1.206,0.254,1.934c0.965-1.955,2.716-2.856,4.547-3.683
		c1.214-0.549,2.354-0.55,3.565,0.015c1.226,0.572,2.463,1.126,3.54,1.944c2.375,1.803,5.038,1.97,7.889,1.544
		c0.002-0.666-0.775-0.642-0.896-1.126c1.822-1.563,2.442-3.064,2.382-5.925c-0.754,0.145-1.404,0.661-2.188,0.573
		c-0.561-0.063-1.274-0.01-1.477-0.568c-0.248-0.682,0.563-0.821,0.955-1.163c0.419-0.036,0.789-0.12,0.667-0.684
		c1.486-2.101,2.744-4.311,3.365-6.967c-0.869,0.012-1.641,0.406-2.449,0.301c-0.444-0.058-0.98-0.091-1.03-0.645
		c-0.042-0.46,0.452-0.558,0.801-0.706c1.186,0.366,1.963-0.562,2.803-1.039c0.718-0.407-0.427-0.638-0.438-1.076
		c0.926-1.206,1.599-2.597,2.709-3.668c1.042,0.951,0.309,1.82-0.083,2.574c2.495-3.093,5.775-5.452,9.118-7.733
		c0.944-0.317,1.887-0.314,2.828,0.017c-0.144,0.328-0.844,0.691,0.042,0.96c0.585,0.178,1.169,0.377,1.792,0.388
		c0.447,0.008,0.895,0.021,1.313,0.206c0.871,0.386,1.513,0.961,1.522,1.995c0.003,0.465-0.118,0.939-0.638,1.056
		c-0.913,0.205-1.634-0.14-2.148-0.917c-0.491-0.725-0.851-0.442-1.279,0.104c-0.517,0.663-1.039,0.745-1.586-0.071
		c-0.536-0.797-1.287-1.038-2.155-0.43c-0.189,0.26-0.588,0.457-0.419,0.84c0.667,1.508,3.417,2.468,4.941,1.564
		c2.087-1.238,4.252-1.438,6.561-1.03c0.379,0.066,0.778,0.058,1.168,0.005c0.996,1.199,1.166,2.219,0.501,3.162
		c-0.262,0.371-0.622,0.559-0.941,0.091c-0.401-0.589-0.592-1.369-1.483-1.45c-1.196-0.107-2.291,0.205-3.401,0.754
		c0.477,0.762,1.072,0.184,1.555,0.3c0.16,0.187,0.268,0.124,0.349-0.073c0.585-0.44,0.948-0.113,1.162,0.403
		c0.209,0.5-0.058,0.878-0.524,1.069c-0.833,0.338-1.703,0.529-2.6,0.61c-0.944,0.087-1.845,0.206-2.551,1.025
		c-0.566,0.658-1.48,0.848-2.308,0.836c-0.924-0.014-1.153,0.47-1.253,1.206c-0.152,1.125-0.115,2.229,0.312,3.297
		c-0.771,0.8-0.95,1.856-1.202,2.865c-0.132,0.523-0.29,1.188,0.175,1.574c0.475,0.396,0.846-0.397,1.351-0.35
		c0.449,0.484,0.788,1.041,1.069,1.636c-0.987,1.685-0.923,1.986,0.804,3.024c2.254,1.354,4.534,1.436,6.843,0.094
		c1.723-1,3.51-1.638,5.39-0.4C59.284,54.659,59.972,53.866,60.78,53.603z"/>
	<path fill="#FFFFFF" d="M66.716,17.716c-1.797-0.135-3.594-0.262-5.308-0.888c-1.763-0.644-3.096-1.658-3.825-3.521
		c-1.084-2.774-2.373-5.469-3.563-8.201c-0.103-0.234-0.345-0.502-0.104-0.765c0.208-0.225,0.53-0.238,0.79-0.124
		c0.723,0.316,1.477,0.444,2.253,0.567c0.809,0.128,1.17,0.783,1.232,1.604c0.032,0.434-0.18,0.89,0.132,1.306
		c0.371,0.497,1.135,0.692,1.643,0.392c0.583-0.346,0.984-1.218,0.81-1.723c-0.164-0.475-0.614-0.45-0.97-0.546
		c-0.772-0.21-1.034-0.711-0.725-1.394c0.263-0.582,0.265-1.202,0.458-1.783c0.32-0.965,0.806-1.15,1.647-0.621
		c0.425,0.267,0.783,0.642,1.211,0.907c1.145,0.71,1.152,0.696,0.834,1.929c-0.189,0.733,0.214,1.378,1.091,1.756
		c0.589,0.254,1.088,0.188,1.479-0.371c0.521-0.748,0.479-1.495-0.132-2.062c-1.09-1.011-1.103-1.027,0.021-1.935
		c0.284-0.228,0.429-0.485,0.564-0.801c0.283-0.665,0.496-1.484,1.423-1.442c0.796,0.036,1.071,0.713,1.298,1.374
		c0.129,0.372,0.337,0.659,0.677,0.919c1.051,0.801,1.033,0.91,0.133,1.746c-0.768,0.712-0.859,1.505-0.286,2.272
		c0.267,0.359,0.599,0.49,1.025,0.418c0.527-0.089,0.886-0.453,1.281-0.769c0.526-0.421,0.389-0.856,0.103-1.327
		c-0.057-0.092-0.073-0.214-0.088-0.325c-0.103-0.815,2.508-2.861,3.259-2.541c0.327,0.14,0.502,0.436,0.597,0.777
		c0.194,0.699,0.417,1.392,0.588,2.096c0.172,0.71-0.238,1.032-0.868,1.184c-0.563,0.134-1.142,0.265-0.953,1.076
		c0.175,0.752,0.918,1.457,1.519,1.344c0.66-0.125,1.034-0.478,1.083-1.262c0.122-1.904,0.215-1.975,2.152-2.286
		c0.418-0.067,0.699-0.343,1.075-0.444c0.329-0.088,0.688-0.211,0.963,0.04c0.323,0.295,0.046,0.621-0.078,0.914
		c-0.62,1.449-1.247,2.892-1.875,4.337c-0.561,1.29-1.181,2.558-1.67,3.873c-0.598,1.602-1.742,2.567-3.265,3.205
		C72.534,17.38,69.11,17.894,66.716,17.716z"/>
	<path fill="#FFFFFF" d="M27.97,56.363c0.319,0.096,0.639,0.193,0.958,0.29c0.416,0.125,1.012,0.15,0.891,0.762
		c-0.096,0.484-0.646,0.606-1.083,0.617c-1.511,0.034-3.033,0.112-4.534-0.019c-1.177-0.103-2.126-0.938-3.131-1.5
		c-1.101-0.617-2.204-1.253-3.279-1.909c-1.843-1.125-3.41-0.607-4.973,0.408c-0.425,0.275-0.8,0.594-1.312,0.683
		c-0.218,0.038-0.59,0.052-0.575,0.25c0.089,1.206-1.349,1.534-1.334,2.682c-1.192-0.766-1.226-0.791-0.54-1.777
		c0.295-0.425-0.052-0.748,0.014-1.115c0.837-1.303,2.02-2.218,3.37-2.92c1.947-1.012,3.933-1.126,5.968-0.217
		c1.384,0.62,2.642,1.451,3.944,2.208c0.82,0.476,1.647,0.946,2.502,1.352C25.852,56.63,26.912,56.58,27.97,56.363z"/>
	<path fill="#FFFFFF" d="M60.78,53.603c-0.199,0.267-0.392,0.542-0.602,0.802c-0.4,0.499-0.865,0.688-1.453,0.283
		c-0.184-0.127-0.413-0.187-0.598-0.311c-1.848-1.256-3.557-0.557-5.126,0.504c-0.845,0.573-1.665,0.777-2.649,0.841
		c-1.858,0.12-3.57-0.125-5.054-1.336c-0.042-0.035-0.103-0.044-0.15-0.074c-1.619-1.041-1.583-2.106,0.103-3.026
		c0.557,0.542,1.08,1.129,1.68,1.62c1.719,1.408,2.795,1.462,4.698,0.338c2.873-1.696,5.769-1.969,8.683-0.104
		C60.493,53.256,60.625,53.446,60.78,53.603z"/>
	<path fill="#FFFFFF" d="M55.047,34.327c-0.448,0.785-1.129,0.617-1.755,0.361c-1.51-0.622-2.946,0.297-4.429,0.161
		c-0.132-0.012-0.327,0.126-0.418,0.25c-1.119,1.51-2.818,1.214-4.153,0.879c-0.947-0.237-1.684-1.438-2.702-1.991
		c-0.215-0.117-0.093-0.632,0.222-0.865c0.319-0.237,0.674-0.393,1.077-0.418c0.809-0.175,1.524-0.094,1.957,0.733
		c0.51,0.97,1.085,0.738,1.671,0.086c0.376-0.419,0.724-0.884,1.379-0.472c0.36,0.243,0.563,0.688,1.071,0.75
		c0.366,0.045,0.759,0.437,1.086,0.08c0.375-0.41,0.313-0.966,0.043-1.407c-0.4-0.651-1.097-1.199-1.792-1.035
		c-1.035,0.244-1.818-0.446-2.757-0.425c-0.487,0.013-0.92-0.201-0.933-0.749c-0.015-0.689,0.57-0.531,0.983-0.588
		c0.11-0.016,0.223-0.015,0.334-0.022c2.037-0.012,3.642,0.978,5.047,2.299c0.748,0.703,1.454,1.328,2.525,1.476
		C54.096,33.513,54.688,33.762,55.047,34.327z"/>
	<path fill="#FFFFFF" d="M43.105,29.637c0.315,0.06,0.675-0.005,0.906,0.292c-0.038,0.42-0.343,0.418-0.614,0.421
		c-1.221,0.012-2.2,0.383-2.648,1.651c-0.064,0.184-0.271,0.374-0.459,0.451c-2.113,0.872-3.478,2.696-5.185,4.082
		c-0.615,0.499-0.634,1.48-1.362,2.056c-0.521-0.545-0.496-1.217-0.045-1.644c0.717-0.68,0.395-1.412,0.372-2.148
		C36.428,31.934,39.279,29.93,43.105,29.637z"/>
	<path fill="#FFFFFF" d="M44.184,49.649c-0.396,0.515-0.755,1.349-1.468,1.13c-0.896-0.273-0.429-1.242-0.55-1.913
		c-0.152-0.846,0.511-1.509,0.468-2.375c-0.025-0.502,0.592-0.904,1.227-0.932c0.558,0.538,1.083,1.125,1.871,1.332
		c0.293,0.076,0.533,0.208,0.525,0.535c-0.009,0.364-0.239,0.644-0.552,0.776c-0.556,0.233-1.158,0.308-1.704,0.26
		C43.728,48.993,44.234,49.261,44.184,49.649z"/>
	<path fill="#FFFFFF" d="M31.362,38.465c0.212,0.053,0.444,0.068,0.63,0.167c0.367,0.197,0.935,0.274,0.894,0.827
		c-0.038,0.496-0.596,0.418-0.921,0.537c-0.577,0.209-1.071,0.496-1.556,0.878c-0.498,0.391-1.108,0.596-1.412-0.293
		C29.785,39.875,30.573,39.171,31.362,38.465z"/>
	<path fill="#FFFFFF" d="M2.333,82.385c0.056,0,0.112-0.002,0.167,0.002c0.439,0.028,1.024,0,0.891,0.639
		c-0.084,0.406-0.484,0.767-1.041,0.544c-0.155-0.063-0.307-0.139-0.458-0.21C1.944,82.994,2.086,82.667,2.333,82.385z"/>
	<path fill="#FFFFFF" d="M64.222,58.024c-0.784,0.452-0.784,0.452-1.201,1.368c-0.723-1.403-0.655-1.516,1.031-1.668
		C64.109,57.825,64.165,57.925,64.222,58.024z"/>
	<path fill="#FFFFFF" d="M28.31,48.596c0.312,0.067,0.741,0.125,0.493,0.57c-0.28,0.506-0.72,0.616-1.16,0.114
		C27.769,48.959,27.999,48.739,28.31,48.596z"/>
	<path fill="#FFFFFF" d="M2.973,78.331c0.353,0.052,0.745-0.128,1.063,0.178c-0.334,0.275-0.722,0.114-1.08,0.16
		C2.962,78.556,2.967,78.444,2.973,78.331z"/>
	<path fill="#FFFFFF" d="M23.281,89.479c-0.359-0.044-0.748,0.113-1.083-0.158c0.319-0.31,0.711-0.129,1.064-0.18
		C23.268,89.254,23.274,89.367,23.281,89.479z"/>
	<path fill="#FFFFFF" d="M5.314,89.479c0.359,0.054,0.757-0.132,1.082,0.18c-0.342,0.275-0.737,0.112-1.102,0.159
		C5.301,89.705,5.308,89.592,5.314,89.479z"/>
	<path fill="#FFFFFF" d="M51.626,37.112c0.271,0.191,0.153,0.359-0.039,0.509c-0.132,0.103-0.328,0.181-0.415,0.012
		c-0.053-0.103,0.064-0.295,0.104-0.448C51.394,37.16,51.51,37.136,51.626,37.112z"/>
	<path fill="#F08925" d="M81.934,95.148c-1.393,2.948-2.791,5.892-4.177,8.843c-0.59,1.254-0.584,1.274,0.684,1.731
		c2.744,0.992,5.498,1.966,8.245,2.947c0.367,0.133,0.727,0.279,1.423,0.547c-3.8,1.364-7.319,2.627-10.948,3.929
		c1.655,3.506,3.23,6.844,4.859,10.299c-0.592,0.049-0.954-0.215-1.334-0.395c-2.639-1.252-5.273-2.514-7.915-3.762
		c-1.173-0.553-1.192-0.547-1.628,0.654c-0.975,2.695-1.932,5.396-2.901,8.094c-0.15,0.42-0.328,0.83-0.639,1.611
		c-1.355-3.766-2.599-7.219-3.924-10.9c-3.447,1.621-6.803,3.199-10.159,4.779c-0.078-0.068-0.155-0.139-0.233-0.207
		c1.567-3.326,3.134-6.654,4.792-10.172c-3.578-1.285-7.096-2.548-10.963-3.937c3.821-1.381,7.351-2.658,10.96-3.964
		c-1.638-3.472-3.211-6.804-4.786-10.137c0.07-0.079,0.139-0.158,0.208-0.237c3.317,1.566,6.634,3.134,10.168,4.804
		c1.288-3.57,2.551-7.074,3.96-10.981c1.379,3.841,2.627,7.318,3.944,10.982c3.446-1.631,6.805-3.219,10.161-4.808
		C81.801,94.965,81.867,95.057,81.934,95.148z"/>
	<path fill="#FFFFFF" d="M86.755,32.91c1.51-0.555,1.51-0.553,2.424,0.658c0.133,0.177,0.282,0.371,0.547,0.278
		c0.24-0.084,0.385-0.293,0.274-0.521c-0.309-0.639-0.048-0.765,0.555-0.763c0.745,0.002,1.451-0.261,2.213-0.595
		c-0.192,0.639-0.649,0.755-1.052,0.932s-0.731,0.351-1.007,0.783c-0.697,1.104-1.321,1.146-2.266,0.164
		C87.949,33.333,87.489,32.903,86.755,32.91z"/>
	<path fill="#FFFFFF" d="M47.898,33.05c-0.73,0-0.926,0.713-1.4,1.056c-0.802,0.581-1.481,0.571-1.916-0.31
		c-0.389-0.791-1.025-0.894-1.693-1.091c-0.116-0.179-0.231-0.359-0.499-0.776c0.729,0.245,1.227,0.543,1.797,0.523
		c0.673-0.023,1.415-0.073,1.085,1.019c-0.044,0.144,0.138,0.285,0.33,0.28c0.324-0.008,0.522-0.204,0.575-0.495
		c0.198-1.085,1.005-0.857,1.695-0.755C48.12,32.538,48.006,32.855,47.898,33.05z"/>
	<path fill="#FFFFFF" d="M61.085,56.822c-0.393-0.073-0.5-0.359-0.539-0.606c-0.095-0.607,0.315-0.913,0.821-1.044
		c0.257-0.067,0.349,0.219,0.373,0.443C61.803,56.188,61.471,56.535,61.085,56.822z"/>
	<path fill="#FFFFFF" d="M31.855,53.178c0.18,0.579-0.364,1.018-0.045,1.853C30.617,53.677,30.645,53.524,31.855,53.178z"/>
	<path fill="#FFFFFF" d="M32.621,45.347c-0.303-0.337-0.374-0.617-0.302-0.927c0.003-0.014,0.209-0.024,0.248,0.021
		C32.749,44.664,32.707,44.926,32.621,45.347z"/>
	<path fill="#FFFFFF" d="M23.633,94.838c-0.128,0.181-0.283,0.334-0.514,0.353c-0.206,0.017-0.435,0.082-0.57-0.171
		c0.332-0.242,0.726-0.085,1.083-0.173L23.633,94.838z"/>
	<path fill="#FFFFFF" d="M23.616,99.096c-0.069,0.048-0.146,0.146-0.229,0.149c-0.176,0.005-0.419,0.114-0.471-0.183
		c-0.003-0.021,0.175-0.103,0.271-0.107C23.343,98.947,23.522,98.906,23.616,99.096z"/>
	<path fill="#FFFFFF" d="M30.513,48.347c-0.046-0.083-0.131-0.167-0.131-0.251s0.084-0.167,0.132-0.251
		c0.047,0.084,0.131,0.168,0.131,0.252C30.646,48.18,30.561,48.264,30.513,48.347z"/>
	<path fill="#FFFFFF" d="M7.113,86.263C7.031,86.312,6.95,86.397,6.866,86.4c-0.083,0.001-0.167-0.081-0.252-0.127
		c0.083-0.049,0.163-0.134,0.247-0.136C6.944,86.136,7.029,86.219,7.113,86.263z"/>
	<path fill="#FFFFFF" d="M74.988,13.857c-4.973-1.599-9.866-1.584-14.894,0.042c0.399-1.068,1.183-1.264,1.916-1.449
		c2.524-0.632,5.098-0.745,7.68-0.532c1.224,0.102,2.477,0.12,3.646,0.555C73.977,12.711,74.768,12.816,74.988,13.857z"/>
</g>
</svg>
