<?xml version="1.0" encoding="utf-8"?>
<!-- Generator: Adobe Illustrator 16.0.0, SVG Export Plug-In . SVG Version: 6.00 Build 0)  -->
<!DOCTYPE svg PUBLIC "-//W3C//DTD SVG 1.1//EN" "http://www.w3.org/Graphics/SVG/1.1/DTD/svg11.dtd">
<svg version="1.1"
	 id="svg2" xmlns:cc="http://creativecommons.org/ns#" xmlns:dc="http://purl.org/dc/elements/1.1/" xmlns:inkscape="http://www.inkscape.org/namespaces/inkscape" xmlns:rdf="http://www.w3.org/1999/02/22-rdf-syntax-ns#" xmlns:sodipodi="http://sodipodi.sourceforge.net/DTD/sodipodi-0.dtd" xmlns:svg="http://www.w3.org/2000/svg"
	 xmlns="http://www.w3.org/2000/svg" xmlns:xlink="http://www.w3.org/1999/xlink" x="0px" y="0px" width="500px" height="500px"
	 viewBox="0 0 500 500" enable-background="new 0 0 500 500" xml:space="preserve">
<g id="layer1" transform="translate(0,-552.36218)">
	<path id="rect2995" fill="#B6B6B6" d="M50,552.362c-27.7,0-50,22.3-50,50v400c0,27.7,22.3,50,50,50h400c27.7,0,50-22.3,50-50v-400
		c0-27.7-22.3-50-50-50H50z M259.563,606.237c86.906,0,144.102,62.883,144.094,130.406c0,89.277-49.654,155.969-122.813,155.969
		c-24.58,0-47.682-13.252-55.594-28.344c0,0-13.206,52.414-16,62.531c-9.846,35.771-38.857,71.563-41.094,74.5
		c-1.576,2.038-5.071,1.394-5.438-1.313c-0.629-4.553-8.005-49.686,0.688-86.5c4.37-18.482,29.281-124,29.281-124
		s-7.25-14.548-7.25-36.031c0-33.726,19.534-58.906,43.875-58.906c20.688,0,30.719,15.53,30.719,34.156
		c0,20.831-13.256,51.943-20.094,80.781c-5.699,24.158,12.121,43.844,35.938,43.844c43.11,0,72.125-55.395,72.125-121.031
		c0-49.868-33.564-87.219-94.688-87.219c-69.028,0-112.063,51.482-112.063,109c0,19.836,5.87,33.855,15.031,44.656
		c4.211,4.99,4.802,6.98,3.281,12.688c-1.106,4.211-3.605,14.27-4.656,18.25c-1.512,5.771-6.192,7.837-11.406,5.688
		c-31.784-12.967-46.594-47.791-46.594-86.938C96.906,683.759,151.42,606.237,259.563,606.237z"/>
</g>
</svg>
