<?xml version="1.0" encoding="utf-8"?>
<!-- Generator: Adobe Illustrator 16.0.0, SVG Export Plug-In . SVG Version: 6.00 Build 0)  -->
<!DOCTYPE svg PUBLIC "-//W3C//DTD SVG 1.1//EN" "http://www.w3.org/Graphics/SVG/1.1/DTD/svg11.dtd">
<svg version="1.1"
	 id="svg2" xmlns:cc="http://creativecommons.org/ns#" xmlns:dc="http://purl.org/dc/elements/1.1/" xmlns:inkscape="http://www.inkscape.org/namespaces/inkscape" xmlns:rdf="http://www.w3.org/1999/02/22-rdf-syntax-ns#" xmlns:sodipodi="http://sodipodi.sourceforge.net/DTD/sodipodi-0.dtd" xmlns:svg="http://www.w3.org/2000/svg"
	 xmlns="http://www.w3.org/2000/svg" xmlns:xlink="http://www.w3.org/1999/xlink" x="0px" y="0px" width="500px" height="500px"
	 viewBox="0 0 500 500" enable-background="new 0 0 500 500" xml:space="preserve">
<g id="layer1" transform="translate(0,-552.36218)">
	<path id="rect2995" fill="#B6B6B6" d="M50,552.362c-27.7,0-50,22.3-50,50v400c0,27.7,22.3,50,50,50h400c27.7,0,50-22.3,50-50v-400
		c0-27.7-22.3-50-50-50H50z M328.063,633.643c0.726-0.019,1.457,0,2.188,0c24.336,0,46.32,10.277,61.75,26.719
		c19.28-3.801,37.4-10.86,53.75-20.563c-6.32,19.774-19.738,36.348-37.219,46.813c17.12-2.034,33.433-6.573,48.594-13.313
		c-11.335,16.97-25.693,31.876-42.219,43.781c0.159,3.633,0.25,7.302,0.25,10.969c0,111.813-85.111,240.75-240.75,240.75
		c-47.777,0-92.232-14.013-129.688-38.031c6.622,0.787,13.365,1.188,20.188,1.188c39.648,0,76.104-13.523,105.063-36.219
		c-37.02-0.678-68.257-25.169-79.031-58.781c5.166,0.996,10.479,1.531,15.938,1.531c7.719,0,15.182-1.043,22.281-2.969
		c-38.711-7.785-67.875-41.949-67.875-82.938c0-0.36-0.006-0.742,0-1.094c11.411,6.337,24.48,10.15,38.344,10.594
		c-22.704-15.169-37.656-41.055-37.656-70.406c0-15.521,4.186-30.072,11.469-42.563c41.733,51.193,104.083,84.874,174.406,88.406
		c-1.448-6.204-2.188-12.659-2.188-19.281C245.656,672.236,282.349,634.802,328.063,633.643z"/>
</g>
</svg>
