<?xml version="1.0" encoding="utf-8"?>
<!-- Generator: Adobe Illustrator 16.0.0, SVG Export Plug-In . SVG Version: 6.00 Build 0)  -->
<!DOCTYPE svg PUBLIC "-//W3C//DTD SVG 1.1//EN" "http://www.w3.org/Graphics/SVG/1.1/DTD/svg11.dtd">
<svg version="1.1" id="Capa_1" xmlns="http://www.w3.org/2000/svg" xmlns:xlink="http://www.w3.org/1999/xlink" x="0px" y="0px"
	 width="51.242px" height="61.707px" viewBox="0 0 51.242 61.707" enable-background="new 0 0 51.242 61.707" xml:space="preserve">
<g id="Forma_9">
	<g>
		<path fill="#777677" d="M25.499,0C11.44,0,0,11.67,0,26.012C0,39.756,21.442,58.8,23.886,60.927
			c0.467,0.406,1.04,0.607,1.613,0.607c0.573,0,1.151-0.201,1.612-0.607c2.447-2.127,23.887-21.17,23.887-34.915
			C50.998,11.67,39.559,0,25.499,0z M25.499,55.618c-6.947-6.38-20.524-20.694-20.524-29.606c0-11.545,9.21-20.936,20.524-20.936
			c11.317,0,20.524,9.391,20.524,20.936C46.023,34.924,32.445,49.238,25.499,55.618z M25.499,13.324
			c-6.854,0-12.437,5.693-12.437,12.688c0,6.996,5.582,12.688,12.437,12.688c6.858,0,12.437-5.691,12.437-12.688
			C37.936,19.018,32.357,13.324,25.499,13.324z M25.499,33.625c-4.115,0-7.462-3.415-7.462-7.613c0-4.197,3.347-7.611,7.462-7.611
			c4.114,0,7.462,3.414,7.462,7.611C32.961,30.21,29.613,33.625,25.499,33.625z"/>
	</g>
</g>
</svg>
