<?xml version="1.0" encoding="utf-8"?>
<!-- Generator: Adobe Illustrator 16.0.0, SVG Export Plug-In . SVG Version: 6.00 Build 0)  -->
<!DOCTYPE svg PUBLIC "-//W3C//DTD SVG 1.0//EN" "http://www.w3.org/TR/2001/REC-SVG-20010904/DTD/svg10.dtd">
<svg version="1.0" id="Capa_1" xmlns="http://www.w3.org/2000/svg" xmlns:xlink="http://www.w3.org/1999/xlink" x="0px" y="0px"
	 width="41.989px" height="40.642px" viewBox="0 0 41.989 40.642" enable-background="new 0 0 41.989 40.642" xml:space="preserve">
<g id="Forma_7_copia">
	<g>
		<path fill="#633889" d="M35.702,11.511l5.212-5.218c1.434-1.435,1.434-3.782,0-5.217c-1.434-1.436-3.778-1.436-5.212,0
			l-5.213,5.217l-5.212-5.217c-1.433-1.436-3.778-1.436-5.212,0c-1.434,1.435-1.434,3.782,0,5.217l5.212,5.218l-5.212,5.217
			c-1.434,1.435-1.434,3.782,0,5.218c1.434,1.435,3.779,1.435,5.212,0l5.212-5.217l5.213,5.217c1.434,1.435,3.778,1.435,5.212,0
			c1.434-1.436,1.434-3.783,0-5.218L35.702,11.511z"/>
	</g>
</g>
<g id="Forma_7">
	<g>
		<path fill="#633889" d="M8.719,33.989l2.719-2.715c0.748-0.746,0.748-1.968,0-2.715c-0.748-0.746-1.972-0.746-2.719,0L6,31.274
			l-2.72-2.715c-0.748-0.746-1.972-0.746-2.719,0c-0.748,0.747-0.748,1.969,0,2.715l2.719,2.715l-2.719,2.716
			c-0.748,0.747-0.748,1.968,0,2.715c0.747,0.747,1.971,0.747,2.719,0L6,36.705l2.72,2.715c0.747,0.747,1.971,0.747,2.719,0
			s0.748-1.968,0-2.715L8.719,33.989z"/>
	</g>
</g>
</svg>
