<?xml version="1.0" encoding="utf-8"?>
<!-- Generator: Adobe Illustrator 16.0.0, SVG Export Plug-In . SVG Version: 6.00 Build 0)  -->
<!DOCTYPE svg PUBLIC "-//W3C//DTD SVG 1.0//EN" "http://www.w3.org/TR/2001/REC-SVG-20010904/DTD/svg10.dtd">
<svg version="1.0" id="Capa_1" xmlns="http://www.w3.org/2000/svg" xmlns:xlink="http://www.w3.org/1999/xlink" x="0px" y="0px"
	 width="86.995px" height="87.012px" viewBox="0 0 86.995 87.012" enable-background="new 0 0 86.995 87.012" xml:space="preserve">
<g id="Forma_7_copia" display="none">
	<g display="inline">
		<path fill="#633889" d="M70.043,48.678l5.212-5.218c1.434-1.435,1.434-3.782,0-5.217c-1.434-1.436-3.778-1.436-5.212,0
			L64.83,43.46l-5.212-5.217c-1.433-1.436-3.778-1.436-5.212,0c-1.434,1.435-1.434,3.782,0,5.217l5.212,5.218l-5.212,5.217
			c-1.434,1.435-1.434,3.782,0,5.218c1.434,1.435,3.779,1.435,5.212,0l5.212-5.217l5.213,5.217c1.434,1.435,3.778,1.435,5.212,0
			c1.434-1.436,1.434-3.783,0-5.218L70.043,48.678z"/>
	</g>
</g>
<g id="Forma_7" display="none">
	<g display="inline">
		<path fill="#633889" d="M43.061,71.156l2.719-2.715c0.748-0.746,0.748-1.968,0-2.715c-0.748-0.746-1.972-0.746-2.719,0
			l-2.72,2.715l-2.72-2.715c-0.748-0.746-1.972-0.746-2.719,0c-0.748,0.747-0.748,1.969,0,2.715l2.719,2.715l-2.719,2.716
			c-0.748,0.747-0.748,1.968,0,2.715c0.747,0.747,1.971,0.747,2.719,0l2.72-2.715l2.72,2.715c0.747,0.747,1.971,0.747,2.719,0
			s0.748-1.968,0-2.715L43.061,71.156z"/>
	</g>
</g>
<g id="Forma_7_copia_2_6_">
	<g>
		<path fill="#FFFFFF" d="M63.213,43.506l19.717-19.72c5.422-5.423,5.422-14.297,0-19.72c-5.422-5.422-14.295-5.422-19.717,0
			l-19.715,19.72L23.782,4.066c-5.422-5.422-14.294-5.422-19.716,0c-5.422,5.423-5.422,14.297,0,19.72l19.715,19.72L4.066,63.226
			c-5.422,5.424-5.422,14.296,0,19.719c5.422,5.424,14.293,5.424,19.716,0l19.715-19.719l19.715,19.719
			c5.422,5.424,14.295,5.424,19.717,0c5.422-5.423,5.422-14.295,0-19.719L63.213,43.506z"/>
	</g>
</g>
</svg>
