<?xml version="1.0" encoding="utf-8"?>
<!-- Generator: Adobe Illustrator 16.0.0, SVG Export Plug-In . SVG Version: 6.00 Build 0)  -->
<!DOCTYPE svg PUBLIC "-//W3C//DTD SVG 1.0//EN" "http://www.w3.org/TR/2001/REC-SVG-20010904/DTD/svg10.dtd">
<svg version="1.0" id="Capa_1" xmlns="http://www.w3.org/2000/svg" xmlns:xlink="http://www.w3.org/1999/xlink" x="0px" y="0px"
	 width="51.053px" height="50.998px" viewBox="0 0 51.053 50.998" enable-background="new 0 0 51.053 50.998" xml:space="preserve">
<g id="Forma_7_copia" display="none">
	<g display="inline">
		<path fill="#633889" d="M70.043,48.678l5.212-5.218c1.434-1.435,1.434-3.782,0-5.217c-1.434-1.436-3.778-1.436-5.212,0
			L64.83,43.46l-5.212-5.217c-1.433-1.436-3.778-1.436-5.212,0c-1.434,1.435-1.434,3.782,0,5.217l5.212,5.218l-5.212,5.217
			c-1.434,1.435-1.434,3.782,0,5.218c1.434,1.435,3.779,1.435,5.212,0l5.212-5.217l5.213,5.217c1.434,1.435,3.778,1.435,5.212,0
			c1.434-1.436,1.434-3.783,0-5.218L70.043,48.678z"/>
	</g>
</g>
<g id="Forma_7" display="none">
	<g display="inline">
		<path fill="#633889" d="M43.061,71.156l2.719-2.715c0.748-0.746,0.748-1.968,0-2.715c-0.748-0.746-1.972-0.746-2.719,0
			l-2.72,2.715l-2.72-2.715c-0.748-0.746-1.972-0.746-2.719,0c-0.748,0.747-0.748,1.969,0,2.715l2.719,2.715l-2.719,2.716
			c-0.748,0.747-0.748,1.968,0,2.715c0.747,0.747,1.971,0.747,2.719,0l2.72-2.715l2.72,2.715c0.747,0.747,1.971,0.747,2.719,0
			s0.748-1.968,0-2.715L43.061,71.156z"/>
	</g>
</g>
<g id="Forma_7_copia_2_6_" display="none">
	<g display="inline">
		<path fill="#FFFFFF" d="M63.213,43.506l19.717-19.72c5.422-5.423,5.422-14.297,0-19.72c-5.422-5.422-14.295-5.422-19.717,0
			l-19.715,19.72L23.782,4.066c-5.422-5.422-14.294-5.422-19.716,0c-5.422,5.423-5.422,14.297,0,19.72l19.715,19.72L4.066,63.226
			c-5.422,5.424-5.422,14.296,0,19.719c5.422,5.424,14.293,5.424,19.716,0l19.715-19.719l19.715,19.719
			c5.422,5.424,14.295,5.424,19.717,0c5.422-5.423,5.422-14.295,0-19.719L63.213,43.506z"/>
	</g>
</g>
<path display="none" fill-rule="evenodd" clip-rule="evenodd" fill="#030104" d="M-3.687,9.5h49.375"/>
<path display="none" fill-rule="evenodd" clip-rule="evenodd" fill="#030104" d="M12.313,41.5h33.375c1.381,0,2.5,1.119,2.5,2.5v3
	c0,1.381-1.119,2.5-2.5,2.5H12.313c-1.381,0-2.5-1.119-2.5-2.5v-3C9.813,42.619,10.932,41.5,12.313,41.5z"/>
<g id="ico_menu_2_" display="none">
	<g display="inline">
		<path fill-rule="evenodd" clip-rule="evenodd" fill="#FFFFFF" d="M51.875,1H2.5C1.119,1,0,2.119,0,3.5v3C0,7.881,1.119,9,2.5,9
			h49.375c1.381,0,2.5-1.119,2.5-2.5v-3C54.375,2.119,53.256,1,51.875,1z M51.875,17H2.5C1.119,17,0,18.119,0,19.5v3
			C0,23.881,1.119,25,2.5,25h49.375c1.381,0,2.5-1.119,2.5-2.5v-3C54.375,18.119,53.256,17,51.875,17z M51.875,33H18.5
			c-1.381,0-2.5,1.119-2.5,2.5v3c0,1.381,1.119,2.5,2.5,2.5h33.375c1.381,0,2.5-1.119,2.5-2.5v-3C54.375,34.119,53.256,33,51.875,33
			z"/>
	</g>
</g>
<g id="Forma_7_copia_3_6_">
	<g>
		<path fill="#7BBADB" d="M37.096,25.492l11.57-11.561c3.182-3.18,3.182-8.381,0-11.561c-3.183-3.18-8.389-3.18-11.57,0
			l-11.57,11.561L13.957,2.371c-3.183-3.18-8.389-3.18-11.57,0s-3.182,8.381,0,11.561l11.569,11.561L2.386,37.053
			c-3.182,3.18-3.182,8.381,0,11.561s8.388,3.18,11.57,0l11.569-11.561l11.57,11.561c3.182,3.18,8.388,3.18,11.57,0
			c3.182-3.18,3.182-8.381,0-11.561L37.096,25.492z"/>
	</g>
</g>
</svg>
