<?xml version="1.0" encoding="utf-8"?>
<!-- Generator: Adobe Illustrator 16.0.0, SVG Export Plug-In . SVG Version: 6.00 Build 0)  -->
<!DOCTYPE svg PUBLIC "-//W3C//DTD SVG 1.1//EN" "http://www.w3.org/Graphics/SVG/1.1/DTD/svg11.dtd">
<svg version="1.1" id="Capa_1" xmlns="http://www.w3.org/2000/svg" xmlns:xlink="http://www.w3.org/1999/xlink" x="0px" y="0px"
	 width="86.996px" height="86.941px" viewBox="0 0 86.996 86.941" enable-background="new 0 0 86.996 86.941" xml:space="preserve">
<g id="Forma_7_copia_2">
	<g>
		<path fill="#FFFFFF" d="M63.213,43.435l19.716-19.72c5.422-5.423,5.422-14.297,0-19.72c-5.422-5.422-14.294-5.422-19.716,0
			l-19.716,19.72L23.783,3.995c-5.423-5.422-14.294-5.422-19.717,0c-5.421,5.423-5.421,14.297,0,19.72l19.716,19.72L4.066,63.154
			c-5.421,5.424-5.421,14.296,0,19.719c5.423,5.424,14.294,5.424,19.717,0l19.715-19.719l19.716,19.719
			c5.422,5.424,14.294,5.424,19.716,0c5.422-5.423,5.422-14.295,0-19.719L63.213,43.435z"/>
	</g>
</g>
</svg>
