<?xml version="1.0" encoding="utf-8"?>
<!-- Generator: Adobe Illustrator 16.0.0, SVG Export Plug-In . SVG Version: 6.00 Build 0)  -->
<!DOCTYPE svg PUBLIC "-//W3C//DTD SVG 1.1//EN" "http://www.w3.org/Graphics/SVG/1.1/DTD/svg11.dtd">
<svg version="1.1" id="Capa_1" xmlns="http://www.w3.org/2000/svg" xmlns:xlink="http://www.w3.org/1999/xlink" x="0px" y="0px"
	 width="51.053px" height="51.012px" viewBox="0 0 51.053 51.012" enable-background="new 0 0 51.053 51.012" xml:space="preserve">
<g id="Forma_7_copia_3">
	<g>
		<path fill="#7BBADB" d="M37.096,25.506l11.57-11.561c3.182-3.18,3.182-8.381,0-11.561c-3.183-3.18-8.389-3.18-11.57,0
			l-11.57,11.561L13.957,2.385c-3.183-3.18-8.389-3.18-11.57,0s-3.182,8.381,0,11.561l11.569,11.561L2.386,37.066
			c-3.182,3.18-3.182,8.381,0,11.561s8.388,3.18,11.57,0l11.569-11.561l11.57,11.561c3.182,3.18,8.388,3.18,11.57,0
			c3.182-3.18,3.182-8.381,0-11.561L37.096,25.506z"/>
	</g>
</g>
</svg>
