<?xml version="1.0" encoding="utf-8"?>
<!-- Generator: Adobe Illustrator 18.0.0, SVG Export Plug-In . SVG Version: 6.00 Build 0)  -->
<!DOCTYPE svg PUBLIC "-//W3C//DTD SVG 1.1//EN" "http://www.w3.org/Graphics/SVG/1.1/DTD/svg11.dtd">
<svg version="1.1" id="Rectángulo_redondeado_2_copia_1_"
	 xmlns="http://www.w3.org/2000/svg" xmlns:xlink="http://www.w3.org/1999/xlink" x="0px" y="0px" viewBox="0 0 62 64"
	 enable-background="new 0 0 62 64" xml:space="preserve">
<g id="Rectángulo_redondeado_2_copia">
	<g>
		<path fill="#FFFFFF" d="M40.5,31.4l19.6-19.7c2.5-2.5,2.5-6.7,0-9.2c-2.5-2.5-6.6-2.5-9.1,0L31.4,22.2L11.2,1.9
			c-2.5-2.5-6.5-2.5-9,0c-2.5,2.5-2.5,6.6,0,9.1l20.1,20.3L1.9,51.9c-2.5,2.5-2.5,6.7,0,9.2c2.5,2.5,6.6,2.5,9.1,0l20.4-20.6
			l19.3,19.5c2.5,2.5,6.5,2.5,9,0c2.5-2.5,2.5-6.6,0-9.1L40.5,31.4z"/>
	</g>
</g>
</svg>
