<?xml version="1.0" encoding="utf-8"?>
<!-- Generator: Adobe Illustrator 16.0.0, SVG Export Plug-In . SVG Version: 6.00 Build 0)  -->
<!DOCTYPE svg PUBLIC "-//W3C//DTD SVG 1.1//EN" "http://www.w3.org/Graphics/SVG/1.1/DTD/svg11.dtd">
<svg version="1.1"
	 id="svg2" xmlns:cc="http://creativecommons.org/ns#" xmlns:dc="http://purl.org/dc/elements/1.1/" xmlns:inkscape="http://www.inkscape.org/namespaces/inkscape" xmlns:rdf="http://www.w3.org/1999/02/22-rdf-syntax-ns#" xmlns:sodipodi="http://sodipodi.sourceforge.net/DTD/sodipodi-0.dtd" xmlns:svg="http://www.w3.org/2000/svg"
	 xmlns="http://www.w3.org/2000/svg" xmlns:xlink="http://www.w3.org/1999/xlink" x="0px" y="0px" width="500px" height="500px"
	 viewBox="0 0 500 500" enable-background="new 0 0 500 500" xml:space="preserve">
<g id="layer1" transform="translate(0,-552.36218)">
	<path id="rect2995" fill="#B6B6B6" d="M50,552.362c-27.7,0-50,22.3-50,50v400c0,27.7,22.3,50,50,50h400c27.7,0,50-22.3,50-50v-400
		c0-27.7-22.3-50-50-50H50z M144.531,604.175h23.531l15.906,58.656l15.25-58.656h22.625l-26.906,88.875v60.531h-22.375V693.05
		c-2.028-10.714-6.513-26.412-13.688-47.25C154.156,631.938,149.245,618.033,144.531,604.175z M251.813,640.893
		c10.109,0,17.982,3.792,23.563,11.406c4.229,5.625,6.25,14.35,6.25,26.25v38.969c0,11.833-2.021,20.617-6.25,26.188
		c-5.58,7.592-13.453,11.406-23.563,11.406c-10.048,0-17.892-3.814-23.469-11.406c-4.292-5.571-6.313-14.355-6.313-26.188V678.55
		c0-11.901,2.021-20.625,6.313-26.25C233.919,644.685,241.763,640.893,251.813,640.893z M298.219,642.237h20.125v81.969
		c0,4.727,0.007,7.184,0.25,7.844c0.445,3.123,2.011,4.719,4.719,4.719c4.033,0,8.281-3.12,12.75-9.438v-85.094h20.156v111.344
		h-20.156v-12.156c-8.029,9.205-15.704,13.688-23.063,13.688c-6.493,0-10.957-2.643-12.969-8.281
		c-1.113-3.375-1.813-8.704-1.813-16.563V642.237z M251.813,659.05c-6.504,0-9.625,5.137-9.625,15.438v46.844
		c0,10.303,3.121,15.438,9.625,15.438c6.504,0,9.625-5.135,9.625-15.438v-46.844C261.438,664.187,258.318,659.05,251.813,659.05z
		 M243.719,771.8c2.542,0,5.083,0,7.625,0c2.54,0,5.084,0,7.625,0c38.758,0,77.654,0.3,116.094,4.594
		c17.294,1.933,31.647,14.9,35.688,32.469c5.75,25.021,5.719,52.303,5.719,78.063v1.094c-0.002,25.44-0.113,52.332-5.781,77
		c-4.041,17.567-18.424,30.537-35.719,32.469c-38.48,4.301-77.387,4.563-116.188,4.563c-2.5,0-5,0.002-7.5,0
		c-2.496,0.002-5.001,0-7.5,0c-38.801,0-77.705-0.262-116.188-4.563c-17.295-1.932-31.678-14.901-35.719-32.469
		c-5.613-24.426-5.748-51.002-5.75-76.219v-1.875c0-25.76,0.063-53.041,5.813-78.063c4.041-17.569,18.424-30.536,35.719-32.469
		C166.094,772.098,204.962,771.8,243.719,771.8z M110.75,812.893v20.813h23.5v127.063h22.219V833.706h23.906v-20.813H110.75z
		 M257.969,812.893v147.875h19.969v-10.688c6.67,8.253,13.527,12.188,20.625,12.188c7.946,0,13.26-4.186,15.938-12.375
		c1.322-4.671,2.031-12.021,2.031-22.219v-43.844c0-10.426-0.708-17.723-2.031-22.156c-2.678-8.251-7.991-12.438-15.938-12.438
		c-7.342,0-14.18,4.004-20.625,11.938v-48.281H257.969z M362.125,849.237c-10.188,0-18.133,3.771-23.906,11.313
		c-4.239,5.572-6.156,14.163-6.156,25.938v38.594c0,11.707,2.164,20.393,6.406,25.906c5.773,7.526,13.713,11.281,24.156,11.281
		c10.426,0,18.638-3.938,24.156-11.938c2.432-3.531,3.99-7.535,4.656-11.969c0.188-1.991,0.406-6.422,0.406-12.844v-2.938H371.5
		c0,8.008-0.256,12.443-0.438,13.531c-1.141,5.342-4.016,8.031-8.938,8.031c-6.858,0-10.188-5.115-10.188-15.313V909.3h39.906
		v-22.813c0-11.774-1.976-20.365-6.156-25.938C380.096,853.009,372.141,849.237,362.125,849.237z M183.281,850.581v87.125
		c0,7.776,0.663,13.038,1.75,16.375c1.997,5.578,6.444,8.188,12.875,8.188c7.339,0,14.877-4.429,22.813-13.531v12.031h19.969
		V850.581h-19.969V934.8c-4.432,6.254-8.618,9.313-12.625,9.313c-2.668,0-4.202-1.563-4.688-4.656
		c-0.185-0.66-0.188-3.071-0.188-7.75v-81.125H183.281z M287.875,867.206c5.758,0,8.688,5.078,8.688,15.031v47.031
		c0,9.953-2.93,14.844-8.688,14.844c-3.283,0-6.597-1.569-9.938-4.906V872.05C281.278,868.756,284.594,867.206,287.875,867.206z
		 M361.969,867.206c6.609,0,9.938,5.091,9.938,15.281v10.188h-19.969v-10.188C351.938,872.298,355.291,867.206,361.969,867.206z"/>
	<g id="形状_1_3_" transform="matrix(1.21711,0,0,1.21711,112.82456,368.85377)" enable-background="new    ">
		<g id="形状_1">
			<g id="g2991">
			</g>
		</g>
	</g>
	<g id="形状_1_2_" transform="matrix(1.21711,0,0,1.21711,-175.03531,575.68723)" enable-background="new    ">
		<g id="形状_1_1_">
			<g id="g2997">
			</g>
		</g>
	</g>
</g>
</svg>
