<?xml version="1.0" encoding="utf-8"?>
<!-- Generator: Adobe Illustrator 16.0.0, SVG Export Plug-In . SVG Version: 6.00 Build 0)  -->
<!DOCTYPE svg PUBLIC "-//W3C//DTD SVG 1.1//EN" "http://www.w3.org/Graphics/SVG/1.1/DTD/svg11.dtd">
<svg version="1.1" id="Capa_1" xmlns="http://www.w3.org/2000/svg" xmlns:xlink="http://www.w3.org/1999/xlink" x="0px" y="0px"
	 width="141.73px" height="53px" viewBox="0 0 141.73 53" enable-background="new 0 0 141.73 53" xml:space="preserve">
<path fill="#FFFFFF" d="M10.076,24.571c0,0,5.688-0.892,12.67-0.879c-0.404-1.292-1.037-2.375-1.771-3.211
	c0,0-1.208-1.377-3.038-0.086c-0.365,0.259-1.342,0.009-2.068-1.576c0.074,0.048,0.823,0.145,0.79-0.354
	c0,0-1.207-0.098-0.709-1.725l0.127,0.011c0,0,0.707,0.052,1.033-0.489c0,0,0.748-0.023,1.258-0.227
	c0.319-0.127,0.087-0.594-0.163-0.448c0,0-0.273,0.104-0.437,0.104c-0.297-0.041-0.209-0.163,0.116-0.256
	c0.58-0.165,0.961-0.18,1.078,0.187c0,0,0.116,0.385,0.285,0.181c0.234-0.282,0.367-1.187-0.943-1.31c0,0-0.367-0.546-1.135-0.879
	c0,0-2.229-0.954-4.226,1.575c0,0-0.597,1.095-1.483,1.564c-0.083,0.042,0.129,0.515,1.053,0.064c0,0-0.381,1.741-1.526,2.536
	c-0.103,0.07,0.494,0.536,1.161-0.032c0,0,0.003,2.174-1.389,1.829c-0.65-0.08-1.851-1.256-2.78-1.263c0,0-2.762-0.403-3.583,5.535
	c-0.342,2.471,0.139,2.919-0.99,4.112c0,0,0.892,0.72,1.751-0.957c-0.038,0.429-0.417,1.495-0.215,4.298
	c0.301,2.536,0.764,3.437,0.419,4.169c0.043,0.17,1.125,0.418,1.543-1.611c0,0,0.6,3.011,2.135,5.539
	c1.613,2.657,0.853,2.857,1.002,2.81c1.17-0.359,1.63-1.784,1.804-2.469C9.46,33.717,10.076,24.571,10.076,24.571 M15.593,14.04
	c0.014,0.371,0.863,0.266,0.863,0.266c-0.282,0.322-0.11,0.466,0.054,0.391c0.164-0.076,0.148-0.378,0.148-0.378
	c0.732-0.065,0.816,0.155,0.816,0.155c-0.449-0.186-0.583,0.067-0.583,0.067c-0.493,0.711-0.843,0.086-0.776-0.068
	C15.287,14.287,15.593,14.04,15.593,14.04"/>
<path fill="#FFFFFF" d="M41.097,25.428c-0.821-5.938-3.583-5.535-3.583-5.535c-0.929,0.006-2.13,1.183-2.78,1.263
	c-1.393,0.347-1.39-1.83-1.39-1.83c0.667,0.57,1.263,0.104,1.161,0.034c-1.145-0.796-1.525-2.537-1.525-2.537
	c0.923,0.452,1.136-0.021,1.052-0.063c-0.886-0.468-1.482-1.563-1.482-1.563c-1.997-2.529-4.227-1.575-4.227-1.575
	c-0.769,0.332-1.135,0.878-1.135,0.878c-1.31,0.123-1.177,1.028-0.943,1.31c0.169,0.205,0.285-0.18,0.285-0.18
	c0.117-0.367,0.497-0.352,1.077-0.186c0.326,0.093,0.414,0.215,0.116,0.256c-0.164,0-0.437-0.105-0.437-0.105
	c-0.25-0.145-0.483,0.321-0.163,0.449c0.509,0.204,1.257,0.226,1.257,0.226c0.326,0.542,1.033,0.491,1.033,0.491l0.127-0.012
	c0.498,1.627-0.709,1.726-0.709,1.726c-0.033,0.499,0.716,0.401,0.79,0.354c-0.725,1.585-1.702,1.835-2.067,1.577
	c-1.831-1.292-3.039,0.084-3.039,0.084c-0.732,0.835-1.364,1.915-1.768,3.203h0.001c6.984-0.012,12.674,0.878,12.674,0.878
	s0.616,9.161-1.774,16.76c0.176,0.687,0.637,2.102,1.802,2.458c0.15,0.046-0.61-0.154,1.002-2.812
	c1.535-2.527,2.135-5.539,2.135-5.539c0.419,2.03,1.5,1.783,1.543,1.612c-0.344-0.731,0.119-1.632,0.419-4.168
	c0.203-2.803-0.176-3.87-0.214-4.297c0.86,1.676,1.751,0.956,1.751,0.956C40.958,28.348,41.438,27.899,41.097,25.428 M29.376,14.48
	c0.066,0.156-0.284,0.78-0.777,0.07c0,0-0.135-0.254-0.583-0.068c0,0,0.084-0.22,0.816-0.155c0,0-0.014,0.302,0.149,0.377
	c0.164,0.076,0.335-0.068,0.053-0.39c0,0,0.849,0.105,0.863-0.266C29.897,14.048,30.203,14.295,29.376,14.48"/>
<path fill="#FFFFFF" d="M34.727,25.279c0,0-5.377-0.841-11.979-0.83c-6.599-0.011-11.979,0.83-11.979,0.83
	s-1.7,25.278,11.979,25.278C36.428,50.557,34.727,25.279,34.727,25.279 M26.928,40.429L23.88,38.98l-1.131,3.18l-1.131-3.18
	l-3.05,1.448l1.45-3.05l-3.182-1.132l3.182-1.129l-1.45-3.05l3.05,1.449l1.131-3.181l1.131,3.181l3.048-1.449l-1.448,3.05
	l3.181,1.129l-3.181,1.132L26.928,40.429z"/>
<path fill="#FFFFFF" d="M20.595,8.892c0.171-0.319,0.934-0.492,2.147-0.488h0.003h0.003c1.216-0.004,1.978,0.17,2.148,0.489
	c0.051,0.094-0.196,0.13-0.206,0.11c-0.074-0.138-0.566-0.37-1.945-0.366c-1.695-0.005-1.924,0.328-1.944,0.366
	C20.791,9.021,20.543,8.987,20.595,8.892"/>
<path fill="#FFFFFF" d="M22.748,10.069h0.001c2.354,0,2.726-0.958,2.726-0.958l1.257-2.886c0,0-0.437-0.124-0.539,0.144
	c0,0-0.93-0.221-0.718,0.79c0,0-0.451,0.588-0.779-0.132c0,0-0.12-0.341,0.18-0.341c0,0,0.627-0.015,0.223-0.585
	c0,0,0.017-1.153-0.779-0.271c0,0-0.717,0.095-0.209,0.713c0,0-0.852,1.085-0.987-0.25c0,0,0.927-0.403,0.061-0.687
	c-0.118-0.62-0.382-0.6-0.427-0.607h-0.025c-0.316,0.012-0.419,0.607-0.419,0.607c-0.869,0.284,0.061,0.687,0.061,0.687
	c-0.137,1.334-0.989,0.25-0.989,0.25c0.508-0.619-0.21-0.713-0.21-0.713c-0.793-0.883-0.78,0.271-0.78,0.271
	c-0.405,0.57,0.228,0.585,0.228,0.585c0.297,0,0.178,0.341,0.178,0.341c-0.331,0.72-0.78,0.132-0.78,0.132
	c0.21-1.01-0.718-0.79-0.718-0.79c-0.1-0.256-0.544-0.141-0.544-0.141l1.262,2.882C20.022,9.111,20.393,10.069,22.748,10.069
	 M20.595,8.892c0.171-0.319,0.934-0.492,2.146-0.488h0.003h0.003c1.214-0.004,1.978,0.17,2.148,0.489
	c0.05,0.094-0.196,0.13-0.206,0.11c-0.075-0.138-0.567-0.37-1.946-0.365c-1.695-0.006-1.923,0.327-1.943,0.365
	C20.791,9.022,20.543,8.987,20.595,8.892"/>
<path fill="#FFFFFF" d="M52.74,45.271c-0.077-0.39-0.289-0.585-0.629-0.585c-0.333,0-0.565,0.21-0.565,0.514
	c0,0.309,0.129,0.427,0.643,0.586c0.309,0.092,0.494,0.175,0.658,0.272c0.263,0.165,0.412,0.453,0.412,0.788
	c0,0.602-0.442,1.009-1.091,1.009c-0.638,0-1.1-0.351-1.219-0.932l0.469-0.122c0.138,0.473,0.36,0.667,0.766,0.667
	c0.354,0,0.603-0.221,0.603-0.54c0-0.33-0.166-0.489-0.649-0.639c-0.344-0.103-0.447-0.144-0.602-0.228
	c-0.303-0.168-0.458-0.442-0.458-0.806c0-0.556,0.448-0.957,1.07-0.957c0.551,0,0.926,0.313,1.04,0.868L52.74,45.271z"/>
<path fill="#FFFFFF" d="M56.32,45.441c-0.088-0.489-0.335-0.756-0.695-0.756c-0.52,0-0.833,0.514-0.833,1.363
	c0,0.947,0.278,1.419,0.833,1.419c0.365,0,0.648-0.309,0.725-0.792l0.469,0.087c-0.124,0.68-0.582,1.092-1.209,1.092
	c-0.823,0-1.317-0.664-1.317-1.766c0-1.111,0.505-1.789,1.327-1.789c0.608,0,1.014,0.359,1.169,1.049L56.32,45.441z"/>
<rect x="57.996" y="44.361" fill="#FFFFFF" width="0.489" height="3.432"/>
<polygon fill="#FFFFFF" points="62.02,44.361 62.02,44.762 60.502,44.762 60.502,45.797 61.675,45.797 61.675,46.213 60.502,46.213 
	60.502,47.376 62.097,47.376 62.097,47.792 60.014,47.792 60.014,44.361 "/>
<path fill="#FFFFFF" d="M65.657,47.793H65.26l-1.363-2.587c-0.092-0.169-0.118-0.237-0.189-0.432c0.025,0.184,0.03,0.339,0.03,0.724
	v2.295h-0.447v-3.432h0.668l1.096,2.119c0.066,0.13,0.133,0.315,0.205,0.551c-0.036-0.262-0.051-0.509-0.051-0.792v-1.878h0.447
	V47.793z"/>
<polygon fill="#FFFFFF" points="69.15,44.361 69.15,44.773 68.193,44.773 68.193,47.792 67.704,47.792 67.704,44.773 66.757,44.773 
	66.757,44.361 "/>
<rect x="70.271" y="44.361" fill="#FFFFFF" width="0.488" height="3.432"/>
<path fill="#FFFFFF" d="M72.4,47.793h-0.478l1.008-3.432h0.664l0.962,3.432h-0.504l-0.268-1.009h-1.096L72.4,47.793z M73.688,46.408
	l-0.376-1.415c-0.047-0.185-0.047-0.18-0.067-0.292c-0.011,0.082-0.016,0.107-0.036,0.184c-0.015,0.042-0.02,0.078-0.03,0.108
	l-0.392,1.415H73.688z"/>
<polygon fill="#FFFFFF" points="79.613,44.361 79.613,44.762 78.096,44.762 78.096,45.797 79.269,45.797 79.269,46.213 
	78.096,46.213 78.096,47.376 79.689,47.376 79.689,47.792 77.606,47.792 77.606,44.361 "/>
<polygon fill="#FFFFFF" points="83.003,44.361 83.003,44.773 82.046,44.773 82.046,47.792 81.558,47.792 81.558,44.773 
	80.611,44.773 80.611,44.361 "/>
<path fill="#FFFFFF" d="M87.072,44.361c0.334,0,0.521,0.031,0.715,0.108c0.329,0.139,0.535,0.479,0.535,0.886
	c0,0.282-0.104,0.535-0.294,0.708c-0.195,0.186-0.436,0.253-0.885,0.253h-0.55v1.477h-0.488v-3.432H87.072z M87.094,45.94
	c0.509,0,0.729-0.18,0.729-0.601c0-0.258-0.124-0.473-0.313-0.545c-0.108-0.042-0.252-0.057-0.483-0.057h-0.433v1.203H87.094z"/>
<path fill="#FFFFFF" d="M90.371,44.361c0.4,0,0.528,0.016,0.739,0.094c0.339,0.128,0.557,0.453,0.557,0.842
	c0,0.407-0.227,0.706-0.639,0.859l0.689,1.636h-0.525L90.55,46.25h-0.051h-0.257h-0.263h-0.057v1.542h-0.49v-3.431H90.371z
	 M90.386,45.864c0.303,0,0.411-0.016,0.529-0.083c0.159-0.081,0.253-0.262,0.253-0.478c0-0.257-0.134-0.458-0.345-0.52
	c-0.124-0.031-0.269-0.046-0.516-0.046h-0.385v1.126H90.386z"/>
<path fill="#FFFFFF" d="M93.143,47.793h-0.479l1.009-3.432h0.663l0.962,3.432h-0.503l-0.268-1.009h-1.096L93.143,47.793z
	 M94.429,46.408l-0.375-1.415c-0.047-0.185-0.047-0.18-0.068-0.292c-0.01,0.082-0.015,0.107-0.035,0.184
	c-0.016,0.042-0.021,0.078-0.03,0.108l-0.392,1.415H94.429z"/>
<path fill="#FFFFFF" d="M97.613,45.987l1.019,1.806h-0.54l-0.659-1.244c-0.062-0.125-0.052-0.109-0.072-0.155
	c-0.02,0.062-0.02,0.062-0.072,0.155l-0.678,1.244h-0.505l1.004-1.78l-0.926-1.652h0.539l0.565,1.086
	c0.043,0.077,0.053,0.102,0.072,0.164c0.021-0.066,0.031-0.082,0.072-0.164l0.586-1.086h0.495L97.613,45.987z"/>
<rect x="99.732" y="44.361" fill="#FFFFFF" width="0.488" height="3.432"/>
<path fill="#FFFFFF" d="M103.18,45.271c-0.078-0.39-0.288-0.585-0.628-0.585c-0.335,0-0.565,0.21-0.565,0.514
	c0,0.309,0.128,0.427,0.643,0.586c0.309,0.092,0.493,0.175,0.658,0.272c0.263,0.165,0.411,0.453,0.411,0.788
	c0,0.602-0.442,1.009-1.09,1.009c-0.638,0-1.101-0.351-1.219-0.932l0.467-0.122c0.14,0.473,0.36,0.667,0.767,0.667
	c0.355,0,0.603-0.221,0.603-0.54c0-0.33-0.165-0.489-0.648-0.639c-0.344-0.103-0.448-0.144-0.602-0.228
	c-0.304-0.168-0.458-0.442-0.458-0.806c0-0.556,0.448-0.957,1.07-0.957c0.551,0,0.926,0.313,1.039,0.868L103.18,45.271z"/>
<path fill="#FFFFFF" d="M52.085,31.067c0-1.475,0-1.915-1.653-1.915v-0.317h4.501c1.601,0,3.499,0.052,4.871,0.967
	c1.6,1.073,2.338,2.918,2.338,4.798c0,3.184-2.075,5.874-6.294,5.874h-5.415v-0.315c1.653,0,1.653-0.44,1.653-1.918V31.067z
	 M53.737,39.612c0.598,0.141,1.213,0.229,1.829,0.229c3.007,0,4.607-2.374,4.607-5.187c0-2.883-1.618-5.186-4.677-5.186
	c-0.597,0-1.195,0.088-1.758,0.246V39.612z"/>
<path fill="#FFFFFF" d="M68.54,34.074h2.339c1.389,0,1.934-0.14,2.038-1.705h0.317v4.061h-0.317
	c-0.139-1.547-0.614-1.722-2.038-1.722H68.54v4.254c0,0.72,0.211,0.878,0.95,0.878h2.391c1.548,0,2.109-0.721,3.023-2.285h0.335
	l-0.985,2.918h-9.019v-0.317c1.654,0,1.654-0.44,1.654-1.916v-7.174c0-1.477,0-1.916-1.654-1.916v-0.317h8.932l0.158,2.549h-0.352
	c-0.335-1.776-0.81-1.916-2.462-1.916H68.54V34.074z"/>
<path fill="#FFFFFF" d="M86.204,37.928c0,0.979,0,1.703,0.881,1.703h2.9c1.566,0,2.547-0.646,3.369-2.742l0.313,0.059l-1.117,3.527
	h-10.03v-0.353c1.842,0,1.842-0.49,1.842-2.135v-7.994c0-1.645,0-2.136-1.842-2.136v-0.352h5.858v0.352
	c-2.175,0-2.175,0.568-2.175,2.333V37.928z"/>
<path fill="#FFFFFF" d="M99.822,38.241c0,1.478,0,1.917,1.652,1.917v0.316h-4.958v-0.316c1.652,0,1.652-0.439,1.652-1.917v-7.174
	c0-1.475,0-1.915-1.652-1.915v-0.317h4.958v0.317c-1.652,0-1.652,0.439-1.652,1.915V38.241z"/>
<path fill="#FFFFFF" d="M107.505,30.734h-0.035v7.506c0,1.477,0,1.917,1.652,1.917v0.317h-4.061v-0.317
	c1.652,0,1.652-0.44,1.652-1.917v-7.19c0-1.408-0.177-1.898-1.652-1.898v-0.317h3.305l4.219,9.107l4.168-9.107h3.287v0.317
	c-1.653,0-1.653,0.439-1.653,1.916v7.173c0,1.477,0,1.917,1.653,1.917v0.317h-4.957v-0.317c1.651,0,1.651-0.44,1.651-1.917v-7.506
	h-0.035l-4.447,9.74h-0.282L107.505,30.734z"/>
<path fill="#FFFFFF" d="M126.052,36.571l-0.702,1.634c-0.141,0.298-0.388,0.844-0.388,1.178c0,0.649,0.704,0.721,1.354,0.773v0.317
	h-3.656v-0.317c0.914-0.087,1.283-0.545,1.81-1.775l4.185-9.81h0.317l3.956,9.493c0.439,1.056,0.772,2.041,2.074,2.093v0.317h-4.59
	v-0.317c0.756-0.035,1.196-0.175,1.196-0.791c0-0.386-0.281-0.984-0.422-1.336l-0.633-1.459H126.052z M128.338,31.244l-2.021,4.694
	h4.008L128.338,31.244z"/>
<path fill="#FFFFFF" d="M51.097,19.921c0-0.84,0-1.09-0.94-1.09v-0.179h2.82v0.179c-0.94,0-0.94,0.25-0.94,1.09v2.64
	c0,0.39,0.04,1.121,0.16,1.47c0.23,0.66,0.891,0.96,1.55,0.96c0.649,0,1.37-0.25,1.75-0.811c0.319-0.48,0.319-1.261,0.319-1.8
	v-2.459c0-0.84,0-1.09-0.94-1.09v-0.179h2.31v0.179c-0.939,0-0.939,0.25-0.939,1.09v2.95c0,1.2-0.47,2.55-2.55,2.55
	c-2.12,0-2.6-1.209-2.6-2.52V19.921z"/>
<path fill="#FFFFFF" d="M60.34,24.131c0,0.753,0,0.979,0.843,0.979v0.161H59.11V25.11c0.844,0,0.844-0.226,0.844-0.979V20.11
	c-0.324-0.403-0.575-0.619-1.177-0.619v-0.161h1.616l3.616,4.441h0.018V20.47c0-0.754,0-0.979-0.842-0.979v-0.161h2.072v0.161
	c-0.843,0-0.843,0.224-0.843,0.979v4.9h-0.161l-3.896-4.774H60.34V24.131z"/>
<path fill="#FFFFFF" d="M68.712,24.131c0,0.753,0,0.979,0.843,0.979v0.161h-2.53V25.11c0.844,0,0.844-0.226,0.844-0.979V20.47
	c0-0.754,0-0.979-0.844-0.979v-0.161h2.53v0.161c-0.843,0-0.843,0.224-0.843,0.979V24.131z"/>
<path fill="#FFFFFF" d="M76.16,20.712c0.072-0.171,0.243-0.601,0.243-0.772c0-0.323-0.368-0.42-0.629-0.448v-0.161h1.831v0.161
	c-0.547,0.054-0.744,0.503-0.933,0.959l-2.028,4.954h-0.161l-2.183-5.017c-0.231-0.547-0.323-0.852-0.986-0.897v-0.161h2.433v0.161
	c-0.278,0.037-0.665,0.045-0.665,0.421c0,0.233,0.161,0.557,0.252,0.763l1.462,3.384L76.16,20.712z"/>
<path fill="#FFFFFF" d="M80.998,22.005h1.192c0.71,0,0.988-0.073,1.042-0.871h0.162v2.073h-0.162
	c-0.072-0.79-0.314-0.879-1.042-0.879h-1.192V24.5c0,0.368,0.107,0.448,0.484,0.448h1.221c0.79,0,1.076-0.369,1.544-1.167h0.17
	l-0.502,1.49h-4.604V25.11c0.844,0,0.844-0.226,0.844-0.979V20.47c0-0.754,0-0.979-0.844-0.979V19.33h4.559l0.081,1.301h-0.179
	c-0.172-0.906-0.414-0.978-1.258-0.978h-1.516V22.005z"/>
<path fill="#FFFFFF" d="M90.727,25.271l-2.021-2.773h-0.609v1.633c0,0.754,0,0.979,0.844,0.979v0.161h-2.531V25.11
	c0.844,0,0.844-0.225,0.844-0.979v-3.662c0-0.753,0-0.978-0.844-0.978V19.33h2.576c1.749,0,2.063,1.022,2.063,1.544
	c0,0.861-0.691,1.345-1.472,1.507l1.157,1.615c0.44,0.611,0.764,1.05,1.58,1.114v0.161H90.727z M88.097,22.21h0.196
	c0.853,0,1.751-0.305,1.751-1.301c0-0.718-0.485-1.257-1.212-1.257c-0.251,0-0.493,0.045-0.735,0.081V22.21z"/>
<path fill="#FFFFFF" d="M97.789,21.25h-0.162c-0.063-0.942-0.673-1.705-1.659-1.705c-0.513,0-1.033,0.386-1.033,0.925
	c0,1.247,3.248,1.462,3.248,3.221c0,0.934-0.735,1.715-1.875,1.715c-0.412,0-0.709-0.082-0.943-0.171
	c-0.242-0.081-0.42-0.161-0.636-0.161c-0.207,0-0.252,0.152-0.269,0.332h-0.163v-2.039h0.163c0.133,1.437,1.229,1.688,1.759,1.688
	c0.601,0,1.184-0.314,1.184-0.969c0-1.364-3.158-1.526-3.158-3.303c0-0.916,0.825-1.589,1.758-1.589
	c0.323,0,0.594,0.082,0.809,0.172c0.224,0.08,0.395,0.17,0.511,0.17c0.216,0,0.27-0.162,0.306-0.342h0.162V21.25z"/>
<path fill="#FFFFFF" d="M101.998,24.131c0,0.753,0,0.979,0.843,0.979v0.161h-2.53V25.11c0.843,0,0.843-0.226,0.843-0.979V20.47
	c0-0.754,0-0.979-0.843-0.979v-0.161h2.53v0.161c-0.843,0-0.843,0.224-0.843,0.979V24.131z"/>
<path fill="#FFFFFF" d="M105.524,20.469c0-0.753,0-0.978-0.844-0.978V19.33h2.297c0.818,0,1.787,0.028,2.486,0.493
	c0.817,0.547,1.193,1.49,1.193,2.451c0,1.625-1.06,2.998-3.213,2.998h-2.764V25.11c0.844,0,0.844-0.225,0.844-0.979V20.469z
	 M106.368,24.831c0.306,0.071,0.618,0.117,0.933,0.117c1.534,0,2.351-1.212,2.351-2.647c0-1.472-0.825-2.648-2.386-2.648
	c-0.306,0-0.611,0.045-0.897,0.126V24.831z"/>
<path fill="#FFFFFF" d="M113.891,23.279l-0.36,0.833c-0.071,0.153-0.197,0.432-0.197,0.602c0,0.333,0.359,0.368,0.691,0.396v0.161
	h-1.866V25.11c0.467-0.045,0.655-0.279,0.924-0.907l2.136-5.007h0.162l2.019,4.846c0.225,0.537,0.396,1.041,1.06,1.068v0.161h-2.342
	V25.11c0.385-0.019,0.609-0.091,0.609-0.405c0-0.197-0.145-0.502-0.216-0.682l-0.322-0.745H113.891z M115.057,20.56l-1.032,2.396
	h2.047L115.057,20.56z"/>
<path fill="#FFFFFF" d="M120.997,20.469c0-0.753,0-0.978-0.844-0.978V19.33h2.298c0.816,0,1.785,0.028,2.485,0.493
	c0.816,0.547,1.194,1.49,1.194,2.451c0,1.625-1.06,2.998-3.213,2.998h-2.765V25.11c0.844,0,0.844-0.225,0.844-0.979V20.469z
	 M121.84,24.831c0.307,0.071,0.62,0.117,0.934,0.117c1.535,0,2.352-1.212,2.352-2.647c0-1.472-0.825-2.648-2.387-2.648
	c-0.305,0-0.61,0.045-0.898,0.126V24.831z"/>
</svg>
