<?xml version="1.0" encoding="utf-8"?>
<!-- Generator: Adobe Illustrator 16.0.0, SVG Export Plug-In . SVG Version: 6.00 Build 0)  -->
<!DOCTYPE svg PUBLIC "-//W3C//DTD SVG 1.1//EN" "http://www.w3.org/Graphics/SVG/1.1/DTD/svg11.dtd">
<svg version="1.1" id="Capa_1" xmlns="http://www.w3.org/2000/svg" xmlns:xlink="http://www.w3.org/1999/xlink" x="0px" y="0px"
	 width="33.754px" height="33.876px" viewBox="0 0 33.754 33.876" enable-background="new 0 0 33.754 33.876" xml:space="preserve">
<g>
	<path fill="#FFFFFF" d="M1.534,23.276c-0.372,0.124-0.486,0.16-0.349,0.58l-0.078,0.024l-0.416-1.257l0.081-0.026
		c0.136,0.419,0.249,0.385,0.626,0.261l1.175-0.387c0.176-0.058,0.496-0.183,0.634-0.286c0.261-0.2,0.299-0.538,0.201-0.832
		c-0.096-0.293-0.313-0.576-0.619-0.664c-0.258-0.072-0.607,0.043-0.846,0.122l-1.1,0.359c-0.374,0.123-0.486,0.16-0.35,0.579
		l-0.078,0.025l-0.34-1.029l0.08-0.027c0.14,0.422,0.249,0.384,0.625,0.262l1.314-0.436c0.537-0.174,1.209-0.161,1.513,0.766
		c0.31,0.947-0.159,1.338-0.745,1.529L1.534,23.276z"/>
	<path fill="#FFFFFF" d="M2.378,18.602c0.354-0.02,0.458-0.025,0.437-0.422l0.076-0.003l0.054,0.973l-0.076,0.003
		c-0.021-0.396-0.128-0.389-0.479-0.37l-1.886,0.104c-0.18,0.161-0.277,0.285-0.26,0.568l-0.076,0.004l-0.043-0.758l1.99-1.81
		v-0.009l-1.549,0.083c-0.354,0.021-0.461,0.026-0.436,0.423l-0.077,0.004L0,16.422l0.074-0.005c0.022,0.396,0.125,0.39,0.48,0.37
		l2.296-0.127l0.006,0.074l-2.138,1.95l0.001,0.01L2.378,18.602z"/>
	<path fill="#FFFFFF" d="M2.47,14.74c0.353,0.046,0.457,0.063,0.511-0.332l0.073,0.011l-0.158,1.18L2.82,15.586
		c0.051-0.392-0.051-0.406-0.401-0.455l-1.705-0.232c-0.351-0.047-0.456-0.061-0.509,0.33l-0.075-0.01l0.161-1.179l0.073,0.011
		c-0.051,0.393,0.053,0.406,0.406,0.453L2.47,14.74z"/>
	<path fill="#FFFFFF" d="M1.846,10.889c-0.063-0.06-0.229-0.2-0.306-0.225c-0.142-0.053-0.242,0.099-0.293,0.207l-0.072-0.022
		l0.279-0.813l0.071,0.025c-0.058,0.251,0.11,0.406,0.285,0.561l1.887,1.656l-0.024,0.072l-2.559,0.201
		c-0.28,0.021-0.429,0.013-0.55,0.301l-0.073-0.023l0.373-1.079l0.073,0.023c-0.029,0.129-0.085,0.302,0.084,0.359
		c0.104,0.034,0.27,0.013,0.377,0.006l1.726-0.133L1.846,10.889z"/>
	<path fill="#FFFFFF" d="M3.514,8.92l0.301-0.475c0.179-0.282,0.219-0.408-0.083-0.634l0.042-0.063L4.593,8.27L4.556,8.335
		c-0.333-0.17-0.43-0.096-0.612,0.191L3.642,8.998l0.861,0.548c0.145,0.093,0.204,0.07,0.3-0.079L5.11,8.982
		c0.197-0.312,0.126-0.519-0.072-0.905L5.08,8.009l0.464,0.575l-1.159,1.825l-0.063-0.04c0.211-0.334,0.121-0.393-0.176-0.581
		L2.692,8.866C2.395,8.678,2.306,8.619,2.095,8.955l-0.064-0.04l1.146-1.808l0.536,0.294L3.668,7.475
		C3.266,7.312,3.174,7.391,2.963,7.726L2.581,8.327L3.514,8.92z"/>
	<path fill="#FFFFFF" d="M4.877,5.379C4.946,5.287,5.01,5.196,5.095,5.111c0.243-0.239,0.583-0.217,0.821,0.024
		c0.326,0.334,0.126,0.731-0.16,1.011L5.688,6.213L4.877,5.379z M8.11,5.852L8.055,5.796C7.761,6.045,7.508,6.002,7.159,5.942
		l-0.917-0.16c0.209-0.31,0.28-0.7-0.003-0.99C6.067,4.619,5.628,4.379,5.041,4.954L4.178,5.802L4.23,5.854
		c0.282-0.276,0.356-0.205,0.603,0.05l1.204,1.229c0.249,0.251,0.324,0.328,0.042,0.605l0.05,0.053L6.978,6.96L6.926,6.906
		C6.643,7.185,6.57,7.11,6.319,6.856L5.784,6.309l0.204-0.201l1.59,0.266L8.11,5.852z"/>
	<path fill="#FFFFFF" d="M9.127,2.963L9.063,3.005C8.802,2.646,8.37,2.493,7.977,2.738C7.773,2.866,7.663,3.149,7.797,3.364
		C8.109,3.86,9.456,3.138,9.894,3.836c0.231,0.371,0.135,0.864-0.321,1.152C9.411,5.091,9.271,5.132,9.157,5.154
		C9.04,5.181,8.948,5.194,8.862,5.247C8.781,5.298,8.799,5.372,8.836,5.446l-0.062,0.04l-0.51-0.81l0.066-0.041
		c0.408,0.538,0.909,0.365,1.12,0.232c0.238-0.147,0.392-0.419,0.229-0.68C9.341,3.646,8.044,4.37,7.599,3.663
		c-0.226-0.367-0.065-0.84,0.306-1.074C8.032,2.51,8.161,2.475,8.268,2.456c0.111-0.021,0.2-0.028,0.245-0.058
		c0.086-0.054,0.069-0.132,0.039-0.212l0.064-0.042L9.127,2.963z"/>
	<path fill="#FFFFFF" d="M11.651,3.284c0.133,0.327,0.171,0.428,0.539,0.276l0.029,0.071l-1.104,0.444L11.09,4.008
		c0.364-0.149,0.327-0.248,0.19-0.575L10.64,1.837c-0.134-0.327-0.171-0.425-0.542-0.274L10.072,1.49l1.102-0.445L11.2,1.116
		c-0.366,0.147-0.328,0.244-0.194,0.572L11.651,3.284z"/>
	<path fill="#FFFFFF" d="M13.312,0.638c0.126-0.063,0.262-0.108,0.403-0.133c0.722-0.132,1.203,0.341,1.324,1.022
		c0.123,0.663-0.151,1.292-0.86,1.42c-0.146,0.028-0.297,0.032-0.442,0.024L13.312,0.638z M13.287,2.718
		c0.065,0.351,0.085,0.454-0.307,0.524l0.013,0.074l1.277-0.232c0.998-0.181,1.371-0.904,1.233-1.654
		c-0.08-0.444-0.334-0.847-0.759-1.03c-0.36-0.159-0.815-0.089-1.189-0.021l-1.062,0.196l0.015,0.072
		c0.389-0.071,0.406,0.033,0.471,0.381L13.287,2.718z"/>
	<path fill="#FFFFFF" d="M18.131,1.786l-0.959-0.055l0.544-1.097L18.131,1.786z M18.179,1.938l0.134,0.356
		c0.027,0.088,0.087,0.234,0.085,0.326c-0.008,0.147-0.118,0.176-0.297,0.175l-0.005,0.076l1.098,0.058l0.004-0.076
		c-0.31-0.028-0.376-0.269-0.47-0.526L17.9,0.003L17.828,0l-1.126,2.295c-0.143,0.287-0.238,0.393-0.459,0.402l-0.004,0.076
		l0.876,0.046l0.006-0.076c-0.155-0.021-0.324-0.046-0.314-0.203c0.002-0.08,0.068-0.205,0.105-0.277l0.189-0.382L18.179,1.938z"/>
	<path fill="#FFFFFF" d="M21.264,0.802c0.138,0.003,0.282,0.025,0.417,0.067c0.702,0.215,0.91,0.859,0.704,1.519
		c-0.198,0.644-0.732,1.075-1.42,0.862c-0.142-0.045-0.277-0.11-0.403-0.182L21.264,0.802z M20.278,2.637
		c-0.102,0.339-0.135,0.437-0.513,0.32l-0.021,0.074l1.241,0.384c0.964,0.298,1.629-0.172,1.855-0.899
		c0.133-0.434,0.094-0.907-0.199-1.266c-0.248-0.306-0.678-0.453-1.044-0.566l-1.033-0.316l-0.021,0.07
		c0.378,0.117,0.348,0.22,0.244,0.558L20.278,2.637z"/>
	<path fill="#FFFFFF" d="M26.659,3.348c0.131,0.054,0.256,0.123,0.371,0.212c0.579,0.451,0.546,1.124,0.121,1.671
		c-0.412,0.531-1.063,0.745-1.631,0.304c-0.117-0.088-0.222-0.197-0.315-0.31L26.659,3.348z M25.095,4.722
		c-0.219,0.279-0.285,0.362-0.598,0.119l-0.044,0.061l1.027,0.796c0.797,0.619,1.586,0.415,2.054-0.188
		c0.277-0.356,0.409-0.815,0.263-1.252c-0.128-0.375-0.477-0.666-0.782-0.901l-0.853-0.659l-0.044,0.059
		C26.43,3,26.365,3.083,26.148,3.363L25.095,4.722z"/>
	<path fill="#FFFFFF" d="M28.865,6.789l0.349,0.437c0.209,0.257,0.32,0.337,0.625,0.122l0.049,0.059L29.131,8.02l-0.048-0.059
		c0.267-0.26,0.231-0.374,0.013-0.641l-0.351-0.437l-0.791,0.641c-0.138,0.109-0.135,0.173-0.024,0.311L28.29,8.28
		c0.235,0.286,0.456,0.284,0.883,0.219l0.051,0.063l-0.693,0.258l-1.362-1.682l0.062-0.047c0.249,0.306,0.331,0.239,0.606,0.02
		l1.335-1.082c0.276-0.223,0.358-0.289,0.108-0.598l0.06-0.046l1.347,1.664l-0.451,0.413l-0.053-0.067
		c0.28-0.329,0.236-0.438-0.015-0.747l-0.447-0.554L28.865,6.789z"/>
	<path fill="#FFFFFF" d="M30.669,11.574c-0.218,0.077-0.384,0.135-0.312,0.336l0.235,0.653c0.125,0.354,0.348,0.524,0.886,0.542
		l0.013,0.075l-0.886,0.031l-0.807-2.266l0.083-0.027c0.146,0.416,0.258,0.375,0.63,0.242l1.8-0.642
		c0.376-0.131,0.486-0.169,0.338-0.585l0.079-0.03l0.471,1.323l-0.08,0.028c-0.174-0.489-0.301-0.443-0.701-0.304L30.669,11.574z"/>
	<path fill="#FFFFFF" d="M31.464,14.96c-0.348,0.052-0.45,0.067-0.393,0.459l-0.078,0.013l-0.175-1.177l0.077-0.01
		c0.059,0.391,0.162,0.374,0.511,0.323l1.703-0.253c0.348-0.053,0.453-0.066,0.393-0.46l0.076-0.011l0.176,1.173l-0.073,0.013
		c-0.06-0.393-0.163-0.376-0.513-0.323L31.464,14.96z"/>
	<path fill="#FFFFFF" d="M33.439,16.876l0.004-0.009l-1.795-0.123c-0.354-0.026-0.46-0.029-0.488,0.363l-0.072-0.005l0.064-0.971
		l0.078,0.005c-0.028,0.395,0.079,0.402,0.43,0.428l1.72,0.117c0.335,0.023,0.457-0.01,0.482-0.362l0.074,0.003l-0.054,0.791
		l-2.247,0.858l2.108,1.146l-0.052,0.787l-0.079-0.007c0.03-0.394-0.076-0.402-0.429-0.426l-1.716-0.118
		c-0.354-0.023-0.457-0.031-0.483,0.364l-0.078-0.006l0.081-1.187l0.077,0.007c-0.027,0.395,0.079,0.4,0.429,0.425l1.798,0.126
		v-0.008l-2.255-1.225l0.006-0.067L33.439,16.876z"/>
	<path fill="#FFFFFF" d="M31.159,22.358l0.32-0.904l0.9,0.831L31.159,22.358z M30.998,22.358l-0.38,0.026
		c-0.092,0.004-0.247,0.02-0.334-0.011c-0.139-0.049-0.137-0.159-0.086-0.333l-0.07-0.026L29.76,23.05l0.069,0.028
		c0.119-0.291,0.368-0.288,0.64-0.303l2.463-0.133l0.026-0.071l-1.883-1.73c-0.234-0.22-0.31-0.337-0.256-0.552l-0.071-0.025
		l-0.294,0.824l0.072,0.025c0.067-0.14,0.136-0.295,0.285-0.242c0.074,0.026,0.181,0.125,0.236,0.181l0.311,0.29L30.998,22.358z"/>
	<path fill="#FFFFFF" d="M6.743,28.779c0.102-0.169,0.087-0.314-0.041-0.428c-0.125-0.112-0.281-0.111-0.382,0.002
		c-0.104,0.117-0.097,0.203,0.044,0.435c0.084,0.138,0.126,0.233,0.159,0.326c0.038,0.149,0,0.306-0.114,0.433
		c-0.201,0.224-0.503,0.228-0.747,0.011c-0.24-0.216-0.295-0.502-0.145-0.759l0.218,0.111c-0.109,0.224-0.092,0.37,0.061,0.507
		c0.135,0.121,0.301,0.121,0.409,0c0.108-0.121,0.103-0.237-0.031-0.455c-0.093-0.155-0.115-0.204-0.146-0.289
		c-0.059-0.164-0.023-0.319,0.098-0.456c0.188-0.208,0.491-0.208,0.725,0c0.205,0.186,0.239,0.429,0.096,0.678L6.743,28.779z"/>
	<path fill="#FFFFFF" d="M8.005,29.871c0.108-0.226,0.089-0.405-0.058-0.515c-0.211-0.153-0.49-0.037-0.743,0.307
		c-0.279,0.386-0.308,0.662-0.083,0.825c0.147,0.109,0.355,0.066,0.531-0.107l0.164,0.176c-0.251,0.239-0.562,0.271-0.814,0.083
		c-0.335-0.242-0.341-0.659-0.014-1.106c0.33-0.453,0.736-0.578,1.072-0.333c0.243,0.181,0.302,0.445,0.162,0.772L8.005,29.871z"/>
	
		<rect x="8.44" y="29.747" transform="matrix(0.8499 0.527 -0.527 0.8499 17.4167 0.0825)" fill="#FFFFFF" width="0.246" height="1.729"/>
	<polygon fill="#FFFFFF" points="10.488,30.685 10.395,30.862 9.72,30.515 9.481,30.979 10.003,31.247 9.907,31.434 9.383,31.163 
		9.115,31.684 9.829,32.051 9.733,32.236 8.799,31.756 9.592,30.223 	"/>
	<path fill="#FFFFFF" d="M11.4,32.919l-0.186-0.07l-0.168-1.464c-0.016-0.099-0.016-0.133-0.011-0.238
		c-0.022,0.095-0.047,0.166-0.118,0.348l-0.417,1.076l-0.209-0.083l0.623-1.608l0.315,0.12l0.128,1.196
		c0.007,0.071,0.005,0.171-0.003,0.294c0.028-0.128,0.068-0.249,0.117-0.382l0.345-0.88l0.208,0.084L11.4,32.919z"/>
	<polygon fill="#FFFFFF" points="13.535,31.74 13.481,31.941 13.018,31.813 12.617,33.281 12.38,33.214 12.781,31.749 
		12.322,31.624 12.373,31.425 	"/>
	
		<rect x="13.745" y="31.82" transform="matrix(0.9818 0.19 -0.19 0.9818 6.4632 -2.0398)" fill="#FFFFFF" width="0.247" height="1.726"/>
	<path fill="#FFFFFF" d="M14.809,33.007l0.279-0.686c0.008-0.013,0.013-0.03,0.022-0.05c0.015-0.04,0.02-0.054,0.03-0.092
		c0.001,0.058,0.004,0.054,0.018,0.151l0.104,0.728L14.809,33.007z M14.739,33.188l0.548,0.064l0.075,0.52l0.252,0.029l-0.28-1.771
		l-0.332-0.038l-0.707,1.656l0.241,0.027L14.739,33.188z"/>
	<polygon fill="#FFFFFF" points="18,32.093 18.008,32.291 17.241,32.316 17.26,32.836 17.85,32.815 17.856,33.027 17.266,33.046 
		17.287,33.63 18.089,33.604 18.094,33.813 17.046,33.847 16.991,32.119 	"/>
	<polygon fill="#FFFFFF" points="19.502,31.915 19.526,32.119 19.048,32.181 19.244,33.688 19,33.72 18.806,32.212 18.333,32.273 
		18.307,32.068 	"/>
	<path fill="#FFFFFF" d="M21.124,32.361l-0.166-0.582l0.21-0.059c0.112-0.033,0.184-0.047,0.239-0.042
		c0.105,0.009,0.194,0.096,0.23,0.22c0.059,0.205-0.024,0.322-0.269,0.395L21.124,32.361z M20.669,31.665l0.477,1.659l0.236-0.067
		l-0.205-0.714l0.267-0.076c0.216-0.061,0.323-0.128,0.392-0.244c0.068-0.112,0.082-0.248,0.043-0.384
		c-0.058-0.197-0.202-0.333-0.383-0.356c-0.102-0.008-0.199,0.003-0.361,0.049L20.669,31.665z"/>
	<path fill="#FFFFFF" d="M22.641,31.829l-0.21-0.526l0.181-0.071c0.114-0.049,0.186-0.067,0.247-0.076
		c0.111-0.013,0.213,0.056,0.26,0.178c0.04,0.102,0.031,0.202-0.028,0.27c-0.044,0.054-0.09,0.083-0.234,0.138L22.641,31.829z
		 M22.131,31.218l0.643,1.604l0.228-0.094l-0.29-0.722l0.029-0.01l0.121-0.048l0.122-0.049l0.022-0.01l0.591,0.6l0.244-0.098
		l-0.627-0.635c0.162-0.149,0.21-0.33,0.133-0.521c-0.069-0.182-0.232-0.295-0.415-0.291c-0.114,0.006-0.174,0.022-0.362,0.094
		L22.131,31.218z"/>
	<path fill="#FFFFFF" d="M24.256,31.412l-0.157-0.72c0-0.02-0.007-0.036-0.009-0.059c-0.009-0.038-0.01-0.051-0.025-0.09
		c0.035,0.045,0.032,0.044,0.098,0.115l0.496,0.543L24.256,31.412z M24.299,31.602l0.491-0.255l0.355,0.387l0.222-0.119
		l-1.229-1.303l-0.294,0.154l0.349,1.765l0.212-0.111L24.299,31.602z"/>
	<path fill="#FFFFFF" d="M25.799,30.265l0.925,0.481l-0.228,0.149l-0.619-0.344c-0.061-0.035-0.054-0.03-0.073-0.045
		c0.01,0.031,0.01,0.031,0.011,0.087l0.058,0.709l-0.212,0.14l-0.066-1.026l-0.846-0.44l0.226-0.149l0.539,0.302
		c0.038,0.022,0.048,0.029,0.077,0.05c-0.01-0.034-0.01-0.044-0.018-0.091l-0.049-0.617l0.206-0.136L25.799,30.265z"/>
	
		<rect x="26.592" y="28.802" transform="matrix(0.7913 -0.6114 0.6114 0.7913 -12.5629 22.5261)" fill="#FFFFFF" width="0.244" height="1.726"/>
	<path fill="#FFFFFF" d="M27.6,28.395c-0.161-0.12-0.305-0.124-0.435-0.009c-0.126,0.111-0.141,0.267-0.039,0.38
		c0.104,0.119,0.193,0.119,0.439,0.004c0.146-0.068,0.243-0.101,0.336-0.119c0.152-0.024,0.305,0.032,0.42,0.158
		c0.201,0.228,0.17,0.528-0.072,0.745c-0.238,0.213-0.53,0.238-0.767,0.06l0.131-0.204c0.21,0.132,0.359,0.13,0.515-0.007
		c0.128-0.117,0.15-0.284,0.04-0.403c-0.109-0.123-0.225-0.128-0.455-0.021c-0.164,0.076-0.215,0.096-0.302,0.117
		c-0.171,0.039-0.322-0.012-0.441-0.151c-0.187-0.204-0.157-0.507,0.078-0.715c0.206-0.187,0.452-0.194,0.68-0.024L27.6,28.395z"/>
	<polygon fill="#FFFFFF" points="30.098,25.67 30.234,26.053 30.595,25.876 30.424,26.242 30.803,26.378 30.424,26.511 
		30.595,26.874 30.234,26.701 30.098,27.082 29.963,26.701 29.598,26.874 29.772,26.511 29.394,26.378 29.772,26.242 29.598,25.876 
		29.963,26.053 	"/>
	<polygon fill="#FFFFFF" points="3.808,25.67 3.941,26.053 4.307,25.876 4.13,26.242 4.512,26.378 4.13,26.511 4.307,26.874 
		3.941,26.701 3.808,27.082 3.671,26.701 3.306,26.874 3.479,26.511 3.101,26.378 3.479,26.242 3.306,25.876 3.671,26.053 	"/>
	<path fill="#FFFFFF" d="M11.318,15.502c0,0,2.53-0.395,5.634-0.39c-0.179-0.573-0.463-1.057-0.789-1.43
		c0,0-0.535-0.611-1.348-0.037c-0.163,0.116-0.598,0.004-0.921-0.702c0.031,0.022,0.366,0.066,0.351-0.155
		c0,0-0.537-0.044-0.317-0.767l0.059,0.002c0,0,0.316,0.025,0.458-0.216c0,0,0.335-0.01,0.561-0.101
		c0.143-0.056,0.038-0.265-0.075-0.198c0,0-0.122,0.044-0.195,0.044c-0.13-0.018-0.089-0.071,0.054-0.114
		c0.257-0.071,0.427-0.078,0.479,0.085c0,0,0.052,0.171,0.128,0.079c0.102-0.124,0.162-0.528-0.421-0.582
		c0,0-0.16-0.243-0.504-0.391c0,0-0.99-0.427-1.879,0.7c0,0-0.267,0.487-0.66,0.693c-0.037,0.02,0.057,0.23,0.468,0.03
		c0,0-0.169,0.773-0.679,1.128c-0.045,0.03,0.22,0.24,0.517-0.015c0,0,0.005,0.968-0.617,0.814
		c-0.291-0.036-0.824-0.559-1.235-0.562c0,0-1.229-0.181-1.595,2.46c-0.153,1.099,0.061,1.298-0.439,1.828
		c0,0,0.398,0.321,0.778-0.424c-0.017,0.188-0.184,0.664-0.094,1.911c0.131,1.128,0.339,1.529,0.188,1.855
		c0.017,0.076,0.498,0.184,0.684-0.719c0,0,0.266,1.341,0.95,2.464c0.717,1.181,0.379,1.271,0.443,1.251
		c0.522-0.16,0.727-0.794,0.805-1.098C11.046,19.572,11.318,15.502,11.318,15.502 M13.771,10.82
		c0.005,0.164,0.383,0.117,0.383,0.117c-0.124,0.144-0.048,0.208,0.026,0.174c0.074-0.033,0.065-0.17,0.065-0.17
		c0.325-0.027,0.365,0.071,0.365,0.071c-0.201-0.083-0.261,0.031-0.261,0.031c-0.22,0.314-0.377,0.037-0.345-0.031
		C13.637,10.93,13.771,10.82,13.771,10.82"/>
	<path fill="#FFFFFF" d="M25.113,15.884c-0.363-2.64-1.593-2.46-1.593-2.46c-0.412,0.004-0.947,0.525-1.236,0.56
		c-0.62,0.153-0.62-0.813-0.62-0.813c0.298,0.254,0.564,0.047,0.518,0.014c-0.507-0.353-0.677-1.127-0.677-1.127
		c0.409,0.201,0.503-0.01,0.465-0.027c-0.392-0.21-0.658-0.696-0.658-0.696c-0.888-1.125-1.879-0.698-1.879-0.698
		c-0.343,0.145-0.505,0.391-0.505,0.391c-0.581,0.055-0.525,0.456-0.417,0.582c0.073,0.091,0.124-0.082,0.124-0.082
		c0.055-0.16,0.221-0.154,0.48-0.082c0.146,0.041,0.182,0.096,0.05,0.114c-0.071,0-0.194-0.045-0.194-0.045
		c-0.108-0.066-0.214,0.14-0.073,0.197c0.229,0.09,0.561,0.101,0.561,0.101c0.144,0.241,0.458,0.219,0.458,0.219l0.058-0.006
		c0.221,0.725-0.314,0.767-0.314,0.767c-0.017,0.223,0.316,0.18,0.351,0.158c-0.323,0.706-0.76,0.817-0.921,0.701
		c-0.814-0.574-1.351,0.039-1.351,0.039c-0.326,0.37-0.605,0.851-0.786,1.424h0.001c3.105-0.005,5.637,0.39,5.637,0.39
		s0.272,4.074-0.791,7.453c0.08,0.307,0.285,0.937,0.802,1.095c0.068,0.021-0.271-0.069,0.446-1.25
		c0.682-1.125,0.949-2.465,0.949-2.465c0.185,0.904,0.667,0.795,0.685,0.717c-0.149-0.324,0.054-0.725,0.188-1.853
		c0.09-1.247-0.08-1.722-0.094-1.911c0.38,0.745,0.775,0.424,0.775,0.424C25.051,17.184,25.265,16.982,25.113,15.884 M19.899,11.017
		c0.029,0.068-0.124,0.348-0.344,0.029c0,0-0.061-0.112-0.26-0.029c0,0,0.04-0.098,0.366-0.068c0,0-0.01,0.133,0.062,0.168
		c0.073,0.033,0.15-0.031,0.023-0.175c0,0,0.381,0.048,0.388-0.12C20.134,10.821,20.267,10.934,19.899,11.017"/>
	<path fill="#FFFFFF" d="M18.486,7.408c0,0-0.413-0.097-0.322,0.352c0,0-0.197,0.26-0.344-0.059c0,0-0.054-0.151,0.079-0.151
		c0,0,0.278-0.008,0.1-0.26c0,0,0.008-0.515-0.346-0.121c0,0-0.321,0.043-0.094,0.316c0,0-0.378,0.484-0.438-0.11
		c0,0,0.41-0.179,0.025-0.306c-0.054-0.276-0.173-0.268-0.19-0.271h-0.011c-0.139,0.006-0.186,0.271-0.186,0.271
		c-0.387,0.127,0.026,0.306,0.026,0.306c-0.064,0.595-0.441,0.11-0.441,0.11c0.227-0.273-0.092-0.316-0.092-0.316
		C15.9,6.775,15.908,7.29,15.908,7.29c-0.18,0.252,0.1,0.26,0.1,0.26c0.134,0,0.081,0.151,0.081,0.151
		C15.939,8.02,15.741,7.76,15.741,7.76c0.095-0.448-0.319-0.352-0.319-0.352c-0.046-0.113-0.242-0.063-0.242-0.063l0.562,1.282
		c0,0,0.163,0.425,1.211,0.425h0.001c1.048,0,1.211-0.425,1.211-0.425l0.56-1.282C18.724,7.346,18.532,7.29,18.486,7.408
		 M17.816,8.579c-0.032-0.061-0.25-0.164-0.865-0.162c-0.752-0.002-0.855,0.147-0.863,0.162c-0.006,0.011-0.117-0.007-0.094-0.049
		c0.078-0.142,0.416-0.22,0.956-0.219h0.001h0.002c0.541-0.001,0.879,0.077,0.954,0.219C17.931,8.572,17.822,8.59,17.816,8.579"/>
	<path fill="#FFFFFF" d="M22.282,15.819c0,0-2.392-0.377-5.329-0.371c-2.934-0.006-5.329,0.371-5.329,0.371
		s-0.756,11.239,5.329,11.239C23.038,27.059,22.282,15.819,22.282,15.819 M18.813,22.556l-1.356-0.645l-0.503,1.415l-0.502-1.415
		l-1.359,0.645l0.645-1.358l-1.413-0.501l1.413-0.502l-0.645-1.358l1.359,0.646l0.502-1.415l0.503,1.415l1.356-0.646l-0.643,1.358
		l1.414,0.502l-1.414,0.501L18.813,22.556z"/>
</g>
</svg>
