<svg id="Desktop" xmlns="http://www.w3.org/2000/svg" viewBox="0 0 120.6 120.6"><title>actualizacion</title><path d="M50.13,4.06A46.89,46.89,0,1,0,80.84,86.38l37.25,37.26A3.35,3.35,0,1,0,122.9,119l-0.1-.1L85.55,81.62A46.86,46.86,0,0,0,50.13,4.06h0Zm0,6.7A40.19,40.19,0,1,1,9.95,51,40.14,40.14,0,0,1,50.13,10.76Zm0,21.77a32.21,32.21,0,0,0-28,16.75,3.35,3.35,0,0,0,0,3.3,32.25,32.25,0,0,0,28,16.8,32.25,32.25,0,0,0,28-16.8,3.35,3.35,0,0,0,0-3.3A32.21,32.21,0,0,0,50.13,32.53Zm0,6.7c8.77,0,16.33,4.68,21,11.72-4.65,7-12.22,11.72-21,11.72S33.8,58,29.15,51C33.8,43.91,41.35,39.23,50.13,39.23Zm0,6.7a5,5,0,1,0,5,5A5,5,0,0,0,50.13,45.93Z" transform="translate(-3.25 -4.06)" style="fill:#010002"/></svg>