<svg id="Desktop" xmlns="http://www.w3.org/2000/svg" viewBox="0 0 120.09 120.09"><title>arrow-circle-down</title><path d="M91.35,61.32L67,85.65V37a3.34,3.34,0,1,0-6.67,0V85.65L36,61.32A3.34,3.34,0,1,0,31.31,66l30,30a3.33,3.33,0,0,0,4.72,0l30-30A3.34,3.34,0,0,0,91.35,61.32Z" transform="translate(-3.64 -3.64)" style="fill:#010002"/><path d="M63.69,3.64a60,60,0,1,0,60,60A60.11,60.11,0,0,0,63.69,3.64Zm0,113.42a53.37,53.37,0,1,1,53.37-53.37A53.43,53.43,0,0,1,63.69,117.06Z" transform="translate(-3.64 -3.64)" style="fill:#010002"/></svg>