<svg id="Desktop" xmlns="http://www.w3.org/2000/svg" viewBox="0 0 120.09 120.09"><title>arrow-circle-right</title><path d="M61.33,36L85.66,60.35H37A3.34,3.34,0,0,0,37,67H85.66L61.33,91.35A3.34,3.34,0,0,0,66,96.06l30-30a3.33,3.33,0,0,0,0-4.72l-30-30A3.34,3.34,0,0,0,61.33,36Z" transform="translate(-3.64 -3.64)" style="fill:#010002"/><path d="M3.64,63.68a60,60,0,1,0,60-60A60.11,60.11,0,0,0,3.64,63.68Zm113.42,0A53.37,53.37,0,1,1,63.69,10.31,53.43,53.43,0,0,1,117.06,63.68Z" transform="translate(-3.64 -3.64)" style="fill:#010002"/></svg>