<svg id="Desktop" xmlns="http://www.w3.org/2000/svg" viewBox="0 0 120.09 120.09"><title>arrow-circle-up</title><path d="M36,66L60.35,41.71V90.37a3.34,3.34,0,1,0,6.67,0V41.71L91.35,66a3.34,3.34,0,0,0,4.72-4.72l-30-30a3.33,3.33,0,0,0-4.72,0l-30,30A3.34,3.34,0,0,0,36,66Z" transform="translate(-3.64 -3.64)" style="fill:#010002"/><path d="M63.69,123.73a60,60,0,1,0-60-60A60.11,60.11,0,0,0,63.69,123.73Zm0-113.42A53.37,53.37,0,1,1,10.31,63.68,53.43,53.43,0,0,1,63.69,10.31Z" transform="translate(-3.64 -3.64)" style="fill:#010002"/></svg>