<svg id="Capa_1" data-name="Capa 1" xmlns="http://www.w3.org/2000/svg" viewBox="0 0 94.072 120.742"><title>candado</title><path d="M107.625,68.668A3.332,3.332,0,0,0,104.293,72v41.074a4.642,4.642,0,0,1-4.637,4.635H28.188a4.641,4.641,0,0,1-4.637-4.635V60.756a4.642,4.642,0,0,1,4.637-4.635H99.657a4.641,4.641,0,0,1,4.637,4.635,3.332,3.332,0,0,0,6.664,0,11.314,11.314,0,0,0-11.3-11.3H91.692V31.405a27.77,27.77,0,1,0-55.54,0V49.458H28.186a11.313,11.313,0,0,0-11.3,11.3v52.318a11.314,11.314,0,0,0,11.3,11.3H99.655a11.313,11.313,0,0,0,11.3-11.3V72A3.33,3.33,0,0,0,107.625,68.668ZM42.817,31.405a21.106,21.106,0,1,1,42.212,0V49.458H42.817V31.405Z" transform="translate(-16.886 -3.632)" style="fill:#010002"/></svg>