<svg id="Capa_1" data-name="Capa 1" xmlns="http://www.w3.org/2000/svg" viewBox="0 0 114.072 118.922"><title>creatividad</title><path d="M77.386,65.5H77.192c-1.358-.194-2.91,0-4.462-0.194a3.661,3.661,0,0,1-2.522-1.94,4.841,4.841,0,0,1,.194-3.3c0.97-2.716,2.134-5.626,3.686-9.894,0.388-.776.582-1.746,0.97-2.522l1.164-3.3V44.165L76.8,42.613l-1.746-.388H53.912l-0.97.194-0.194.97a0.713,0.713,0,0,1-.194.582c-0.388,2.91-.582,5.432-0.97,7.76L51,56.775c-0.194,1.746-.388,3.3-0.582,5.044l-0.582,4.656-0.776,6.984V75.4l1.164,0.194H58.18a4.265,4.265,0,0,1,3.3,1.164,3.957,3.957,0,0,1,.776,3.1c-0.388,2.716-.97,5.626-1.358,8.536l-1.358,7.566a2.444,2.444,0,0,0,.582,2.522l0.388,0.388h0.776a2.357,2.357,0,0,0,1.94-1.552l2.328-4.268c5.238-10.088,9.312-17.848,13-25.414l0.582-1.94ZM56.822,51.343c0.194-1.358.388-2.716,0.582-4.268h13L69.82,48.627c-1.358,3.3-2.522,6.6-3.686,9.894a9.676,9.676,0,0,0,0,6.79,8.174,8.174,0,0,0,6.014,4.85h0.194c-1.552,3.1-3.3,6.208-4.85,9.7a7.619,7.619,0,0,0-1.94-5.82,8.605,8.605,0,0,0-6.79-2.91H54.3Z" transform="translate(-6.964 -4.589)" style="fill:#030104"/><path d="M90.384,32.719c-7.76-7.178-16.49-10.864-25.608-10.864H63.224c-9.118,0-17.848,3.686-25.608,10.864-9.506,8.924-16.1,25.608-7.76,40.934,0.776,1.358,1.552,2.91,2.328,4.268L32.572,78.7c1.164,2.328,2.328,4.268,3.492,6.4a49.586,49.586,0,0,1,6.014,16.1,23.769,23.769,0,0,1,.388,3.686c0.388,4.268,2.91,8.924,6.984,13l0.194,0.194a22.2,22.2,0,0,0,29.1,0l0.194-.194c4.074-4.074,6.6-8.73,6.984-13A20.939,20.939,0,0,1,86.5,101.2a53.078,53.078,0,0,1,6.014-16.1c1.164-2.134,2.328-4.268,3.492-6.6l0.388-.776c0.776-1.358,1.552-2.91,2.328-4.268C106.486,58.133,100.084,41.643,90.384,32.719Zm3.3,38.412c-0.776,1.358-1.552,2.91-2.328,4.268l-0.388.776-3.492,6.4a51.935,51.935,0,0,0-6.6,17.654c-0.194,1.358-.388,2.91-0.582,4.268-0.194,3.1-2.328,6.6-5.432,9.7A15.42,15.42,0,0,1,64,118.273,17.64,17.64,0,0,1,52.942,114.2c-3.1-3.1-5.238-6.79-5.432-9.7-0.194-1.358-.388-2.91-0.582-4.268a51.935,51.935,0,0,0-6.6-17.654c-1.164-1.94-2.134-4.074-3.3-6.208l-0.388-.776c-0.776-1.358-1.552-2.91-2.328-4.268-7.178-13-1.552-27.16,6.6-34.726,6.79-6.4,14.162-9.506,22.116-9.506h1.552c7.954,0,15.326,3.3,22.116,9.506C95.04,43.971,100.666,58.133,93.682,71.131Z" transform="translate(-6.964 -4.589)" style="fill:#030104"/><path d="M21.514,83.547a2.461,2.461,0,0,0-1.164.194,32.091,32.091,0,0,0-4.85,2.91c-0.97.776-1.358,1.358-1.358,1.94a1.749,1.749,0,0,0,.194.97,2.875,2.875,0,0,0,2.91,1.552c0.194,0,.388-0.194.582-0.194,1.552-.776,3.1-1.746,5.044-2.91a2.429,2.429,0,0,0,.776-3.3A2.681,2.681,0,0,0,21.514,83.547Z" transform="translate(-6.964 -4.589)" style="fill:#030104"/><path d="M112.306,86.457a33.171,33.171,0,0,0-4.462-2.522c-0.194-.194-0.776-0.194-0.97-0.388h0a2.708,2.708,0,0,0-2.716,1.746,2.4,2.4,0,0,0,.776,2.716,45.724,45.724,0,0,0,4.85,2.91,3.6,3.6,0,0,0,1.358.388,2.229,2.229,0,0,0,2.134-1.164A2.6,2.6,0,0,0,112.306,86.457Z" transform="translate(-6.964 -4.589)" style="fill:#030104"/><path d="M93.682,14.677h0a2.753,2.753,0,0,0-1.552-2.716c-0.194,0-.582-0.194-0.776-0.194a2.388,2.388,0,0,0-1.94.97c-0.97,1.552-1.94,3.3-2.716,4.656a2.489,2.489,0,0,0,.776,3.492,2.8,2.8,0,0,0,1.358.388,2.463,2.463,0,0,0,2.134-1.358c0.97-1.358,1.746-2.91,2.716-4.462A1.071,1.071,0,0,1,93.682,14.677Z" transform="translate(-6.964 -4.589)" style="fill:#030104"/><path d="M22.484,34.659c-1.358-.776-2.91-1.746-4.462-2.522-0.194-.194-0.776-0.194-0.97-0.388h0a2.8,2.8,0,0,0-2.716,1.746,2.4,2.4,0,0,0,.776,2.716c1.358,0.97,2.91,1.746,4.85,2.91A2.563,2.563,0,1,0,22.484,34.659Z" transform="translate(-6.964 -4.589)" style="fill:#030104"/><path d="M107.844,38.927c1.552-.776,3.3-1.94,4.656-2.716a2.54,2.54,0,0,0,1.164-2.328,2.359,2.359,0,0,0-2.328-2.328,2.461,2.461,0,0,0-1.164.194,36.549,36.549,0,0,0-4.656,2.716,2.394,2.394,0,0,0-.97,3.492,2.229,2.229,0,0,0,2.134,1.164A1.283,1.283,0,0,0,107.844,38.927Z" transform="translate(-6.964 -4.589)" style="fill:#030104"/><path d="M40.72,20.885a2.542,2.542,0,0,0,.97-3.492c-0.776-1.358-1.552-2.91-2.522-4.462a2.434,2.434,0,0,0-2.134-1.164A2.229,2.229,0,0,0,34.9,12.931a2.869,2.869,0,0,0,0,2.522c0.776,1.552,1.746,2.91,2.716,4.656a2.939,2.939,0,0,0,2.134,1.358A2.734,2.734,0,0,1,40.72,20.885Z" transform="translate(-6.964 -4.589)" style="fill:#030104"/><path d="M64,14.677a2.532,2.532,0,0,0,2.522-2.328V6.723A2.258,2.258,0,0,0,64,4.589a2.524,2.524,0,0,0-2.522,2.134v5.626A2.532,2.532,0,0,0,64,14.677" transform="translate(-6.964 -4.589)" style="fill:#030104"/><path d="M13.948,58.909H9.486a2.532,2.532,0,0,0-2.522,2.328,2.406,2.406,0,0,0,2.328,2.522h5.626a2.406,2.406,0,0,0,2.328-2.522,2.241,2.241,0,0,0-2.328-2.328h-0.97Z" transform="translate(-6.964 -4.589)" style="fill:#030104"/><path d="M117.544,58.909h-4.462a2.241,2.241,0,0,0-2.328,2.328,2.532,2.532,0,0,0,2.328,2.522h5.626a2.241,2.241,0,0,0,2.328-2.328,2.532,2.532,0,0,0-2.328-2.522h-1.164Z" transform="translate(-6.964 -4.589)" style="fill:#030104"/></svg>