<svg id="basico" xmlns="http://www.w3.org/2000/svg" viewBox="0 0 76.149 119.189"><title>download</title><path d="M30.963,114.329a4.966,4.966,0,1,0,0,9.932H97.179a4.966,4.966,0,0,0,0-9.932H30.963Z" transform="translate(-25.997 -5.072)" style="fill:#010002"/><path d="M64.062,111.018a5.567,5.567,0,0,1-3.414-1.345L32.5,83.187c-1.613-1.795-2.279-5.236-.414-7.242A5.173,5.173,0,0,1,39.333,76L59.1,94.619V10.038a4.966,4.966,0,0,1,9.933,0V94.619L88.791,76c1.7-1.695,5.385-2.008,7.243-.051s1.264,5.521-.414,7.242L67.477,109.673A4.776,4.776,0,0,1,64.062,111.018Z" transform="translate(-25.997 -5.072)" style="fill:#010002"/></svg>