<svg id="Capa_1" data-name="Capa 1" xmlns="http://www.w3.org/2000/svg" viewBox="0 0 119.64 109.08"><title>futuro</title><path d="M49.23,24.39h1.56v1.56a1.08,1.08,0,0,0,2.16,0V24.39h1.56a1.08,1.08,0,1,0,0-2.16H52.95V20.67a1.08,1.08,0,0,0-2.16,0v1.56H49.23A1.08,1.08,0,1,0,49.23,24.39Z" transform="translate(-4.23 -9.51)" style="fill:#030104"/><path d="M63.99,9.51A59.72,59.72,0,0,0,6.87,86.79a18.655,18.655,0,0,0,.96,2.76v5.64h9.36v4.56h8.16a1.267,1.267,0,0,1,.6.24,99.786,99.786,0,0,0,23.04,4.08,26.312,26.312,0,0,0,.24,3.48,22.013,22.013,0,0,0,.96,3.36c0.36,0.96.6,1.92,0.96,2.64a7.117,7.117,0,0,1,.6,1.68l1.32,3.36,1.32-3.36c0.12-.24.6-1.56,1.08-3a26.586,26.586,0,0,0,1.2-3.72c0.12-.36.12-0.72,0.24-0.96a22.443,22.443,0,0,0,.24-3.24H70.59a21.089,21.089,0,0,0,.24,3.24,60.966,60.966,0,0,0,2.52,7.56l1.32,3.36,1.32-3.36a78.763,78.763,0,0,0,2.52-7.56,26.313,26.313,0,0,0,.24-3.48,98.913,98.913,0,0,0,23.64-4.32h8.4V95.19h9.48V89.67c0.36-.96.6-1.8,0.96-2.76A59.824,59.824,0,0,0,63.99,9.51Zm0,2.88a57.052,57.052,0,0,1,57,57,56.371,56.371,0,0,1-2.76,17.52h-8.28V81.27a3.978,3.978,0,0,0,2.4-1.08c1.56-1.56,2.16-4.8,2.16-11.16,0-8.04-1.32-21.48-6-21.48s-6,13.56-6,21.48c0,6.36.6,9.6,2.16,11.16a3.978,3.978,0,0,0,2.4,1.08v5.64h-8.4V69.39a1.666,1.666,0,0,0-.6-1.2,1.288,1.288,0,0,0-1.32-.12l-17.16,6.6V43.59a5.3,5.3,0,1,0-6.6-5.16,5.511,5.511,0,0,0,3.96,5.16V75.75l-2.16.84L42.51,39.51a1.272,1.272,0,0,0-1.56-.36,1.4,1.4,0,0,0-.96,1.32V63.15a26.949,26.949,0,0,0-13.08,7.44,25.017,25.017,0,0,0-6.96,16.08H17.79V83.55a3.344,3.344,0,0,0,1.56-.84,4.955,4.955,0,0,0,.84-1.32,13.66,13.66,0,0,0,.6-2.76,35,35,0,0,0,.24-3.96V73.23a24.184,24.184,0,0,0-.12-2.76c-0.36-4.68-1.32-11.28-4.44-11.28s-4.2,6.6-4.44,11.28a24.183,24.183,0,0,0-.12,2.76v1.44a35,35,0,0,0,.24,3.96,12,12,0,0,0,.6,2.76,2.791,2.791,0,0,0,.84,1.32,3.344,3.344,0,0,0,1.56.84v3.12H9.75A56.371,56.371,0,0,1,6.99,69.15,57,57,0,0,1,63.99,12.39ZM11.91,92.31H10.59V89.55H117.63v2.76H11.91Zm2.76-17.52V73.35c0-.96.12-1.92,0.12-2.76,0.36-4.44,1.08-7.2,1.68-8.16,0.6,0.96,1.32,3.84,1.68,8.16a20.34,20.34,0,0,1,.12,2.76v1.44a30.028,30.028,0,0,1-.24,3.96,4.889,4.889,0,0,1-.6,2.16,1.566,1.566,0,0,1-.96.12H16.23a1.123,1.123,0,0,1-.84-0.12,3.521,3.521,0,0,1-.6-2.16C14.79,77.79,14.67,76.59,14.67,74.79Zm9.12,6.72h43.8a1.3,1.3,0,0,1,.12.6,21.069,21.069,0,0,1,.72,4.68H22.95A19.423,19.423,0,0,1,23.79,81.51Zm4.56-8.16H63.39a21.936,21.936,0,0,1,3.36,5.28H24.87A28.631,28.631,0,0,1,28.35,73.35Zm40.08,0,3.6,4.2-2.52.96a30.585,30.585,0,0,0-2.76-5.16,26.169,26.169,0,0,0-21-10.92c-0.96,0-1.92.12-2.88,0.12V44.07L66.03,70.59Zm40.32,5.16h-0.24c-0.96,0-1.44,0-1.68-.36-0.6-.6-1.32-2.76-1.32-9.24,0-11.16,2.04-17.88,3.24-18.72,1.2,0.84,3.24,7.56,3.24,18.72,0,6.48-.72,8.52-1.32,9.24A2.893,2.893,0,0,1,108.75,78.51Zm-12.72,8.4H79.71V77.67l16.32-6.24V86.91ZM76.95,78.75v8.16H71.43a25.519,25.519,0,0,0-.84-5.28c0-.12-0.12-0.24-0.12-0.36l4.44-1.68h0l1.92-.72h0.12V78.75ZM41.19,65.79c0.24,0,.6-0.12.84-0.12a18.631,18.631,0,0,1,3.72-.36,22.983,22.983,0,0,1,14.64,5.28H31.11A22.477,22.477,0,0,1,41.19,65.79Zm37.2-24.84a2.461,2.461,0,0,1-2.52-2.52,2.535,2.535,0,0,1,2.52-2.52A2.52,2.52,0,1,1,78.39,40.95Zm-25.2,69.6a0.721,0.721,0,0,1-.12-0.48,25.973,25.973,0,0,1-.96-3.12c-0.12-.6-0.12-1.68-0.24-2.88h2.64a14.572,14.572,0,0,1-.24,2.76c-0.12.6-.48,1.8-0.84,3A1.705,1.705,0,0,0,53.19,110.55Zm22.8-3.6a33.311,33.311,0,0,1-1.08,3.6,33.311,33.311,0,0,1-1.08-3.6c-0.12-.6-0.12-1.68-0.24-2.76h2.64C76.11,105.27,76.11,106.35,75.99,106.95Zm3-5.76c-0.96,0-1.8.12-2.76,0.12a21.243,21.243,0,0,0-2.76.12H54.39a21.243,21.243,0,0,1-2.76-.12c-0.96,0-1.8-.12-2.76-0.12a95.381,95.381,0,0,1-11.76-1.44H90.75C86.91,100.35,82.95,100.95,78.99,101.19Zm28.92-4.32H20.07V95.19h0.96v0.12H70.71l37.44-.12v1.68h-0.24Z" transform="translate(-4.23 -9.51)" style="fill:#030104"/></svg>