<svg id="Capa_1" data-name="Capa 1" xmlns="http://www.w3.org/2000/svg" viewBox="0 0 121.266 121.271"><title>happy</title><path d="M46.623,54.2a5.213,5.213,0,1,0-5.213-5.213A5.212,5.212,0,0,0,46.623,54.2Zm35.568,0a5.213,5.213,0,1,0-5.213-5.213A5.212,5.212,0,0,0,82.191,54.2ZM64,3.365A60.635,60.635,0,1,0,124.633,64,60.705,60.705,0,0,0,64,3.365Zm0,117.187A56.552,56.552,0,1,1,120.55,64,56.618,56.618,0,0,1,64,120.552ZM96.516,72.187a2.041,2.041,0,0,0-2.043,2.041c0,11.943-14.257,26.535-30.9,26.535S32.682,86.171,32.682,74.228a2.042,2.042,0,0,0-4.084,0c0,13.869,15.6,30.618,34.977,30.618S98.557,88.1,98.557,74.228A2.041,2.041,0,0,0,96.516,72.187Z" transform="translate(-3.367 -3.365)" style="fill:#010002"/></svg>