<svg id="Desktop" xmlns="http://www.w3.org/2000/svg" viewBox="0 0 116.025 112.97"><title>inhouse</title><path d="M121.2,47.182L100.307,32.511,64.692,7.642a2.364,2.364,0,0,0-2.729.024L7.156,47.2a2.354,2.354,0,0,0-.977,1.912v68.72a2.358,2.358,0,0,0,2.359,2.359H119.845a2.359,2.359,0,0,0,2.359-2.359V49.113A2.366,2.366,0,0,0,121.2,47.182Zm-3.714,68.291H10.9V50.32L63.369,12.47,84.014,26.845l33.472,23.494v65.134Z" transform="translate(-6.179 -7.22)" style="fill:#050206"/><path d="M25.643,102.728h26.73A2.227,2.227,0,0,0,54.6,100.5V96.045a11.141,11.141,0,0,0-6.627-10.164,13.365,13.365,0,1,0-17.931,0,11.141,11.141,0,0,0-6.627,10.164V100.5A2.227,2.227,0,0,0,25.643,102.728Zm13.365-35.64A8.91,8.91,0,1,1,30.1,76,8.919,8.919,0,0,1,39.008,67.088ZM27.871,96.045a6.691,6.691,0,0,1,6.682-6.683h8.91a6.691,6.691,0,0,1,6.682,6.683v2.228H27.871V96.045Z" transform="translate(-6.179 -7.22)" style="fill:#050206"/><path d="M76.793,102.728h26.73a2.227,2.227,0,0,0,2.228-2.228V96.045a11.141,11.141,0,0,0-6.627-10.164,13.365,13.365,0,1,0-17.931,0,11.141,11.141,0,0,0-6.627,10.164V100.5A2.227,2.227,0,0,0,76.793,102.728Zm13.365-35.64A8.91,8.91,0,1,1,81.248,76,8.919,8.919,0,0,1,90.158,67.088ZM79.021,96.045A6.691,6.691,0,0,1,85.7,89.363h8.91a6.691,6.691,0,0,1,6.683,6.682v2.228H79.021V96.045Z" transform="translate(-6.179 -7.22)" style="fill:#050206"/><path d="M54.229,63.705H74.277a1.67,1.67,0,0,0,1.671-1.671V58.693a8.356,8.356,0,0,0-4.97-7.623,10.024,10.024,0,1,0-13.449,0,8.356,8.356,0,0,0-4.97,7.623v3.341A1.67,1.67,0,0,0,54.229,63.705Zm10.024-26.73a6.683,6.683,0,1,1-6.682,6.682A6.689,6.689,0,0,1,64.253,36.975ZM55.9,58.693a5.018,5.018,0,0,1,5.012-5.012h6.683a5.018,5.018,0,0,1,5.012,5.012v1.671H55.9V58.693Z" transform="translate(-6.179 -7.22)" style="fill:#050206"/></svg>