<svg id="Capa_1" data-name="Capa 1" xmlns="http://www.w3.org/2000/svg" viewBox="0 0 118.443 114.761"><title>innovacion</title><path d="M26.785,78.369c-0.031-.183-0.065-0.366-0.112-0.546-0.059-.225-0.121-0.449-0.2-0.667l-0.044-.117c-0.021-.044-0.04-0.089-0.062-0.133-0.1-.2-0.21-0.406-0.332-0.6a4.214,4.214,0,0,1-.268-0.4,6.936,6.936,0,0,0-.8-0.82c-0.042-.035-0.176-0.133-0.242-0.182-0.037-.025-0.074-0.052-0.112-0.076-0.192-.122-0.386-0.242-0.59-0.345-0.086-.044-0.516-0.217-0.45-0.2-0.149-.052-0.3-0.1-0.451-0.142-0.217-.057-0.435-0.11-0.656-0.147-0.105-.01-0.21-0.018-0.316-0.023-0.243-.009-0.486-0.015-0.729,0-0.105.005-.21,0.014-0.315,0.023a7.182,7.182,0,0,0-1.154.3l-0.111.04c-0.149.072-.3,0.144-0.443,0.226s-0.3.169-.439,0.264a3.076,3.076,0,0,1-.273.191,6.573,6.573,0,0,0-.572.536q-0.157.169-.307,0.345c-0.045.066-.152,0.215-0.181,0.26a7.268,7.268,0,0,0-.5.9v0c-0.008.025-.018,0.055-0.031,0.094-0.056.165-.112,0.33-0.157,0.5s-0.089.34-.121,0.513c-0.011.057-.029,0.228-0.038,0.314a7.239,7.239,0,0,0-.006.975q0.011,0.154.025,0.308c0.011,0.078.024,0.168,0.032,0.21a11.533,11.533,0,0,0,.554,1.974c0.024,0.063.049,0.126,0.074,0.189l0.035,0.08c0.075,0.16.15,0.32,0.231,0.477,0.163,0.313.333,0.624,0.522,0.922,0.094,0.148.188,0.3,0.289,0.44,0.044,0.062.268,0.355,0.2,0.275,0.169,0.205.344,0.406,0.531,0.6,0.156,0.158.314,0.315,0.482,0.46,0.053,0.046.235,0.184,0.264,0.209a5.592,5.592,0,0,0,.584.358c0.07,0.037.268,0.121,0.3,0.137,0.05,0.017.1,0.035,0.152,0.05,0.145,0.042.291,0.084,0.44,0.112h0.006a4.412,4.412,0,0,0,.587,0h0.006a5.72,5.72,0,0,0,.639-0.176c0.071-.035.2-0.095,0.249-0.123,0.138-.076.275-0.153,0.407-0.239q0.117-.077.233-0.157c0.067-.054.172-0.138,0.208-0.171a9.124,9.124,0,0,0,.827-0.834q0.1-.111.189-0.224c0.042-.059.166-0.228,0.2-0.272a12.257,12.257,0,0,0,1.043-1.84l0.034-.078c0.025-.064.051-0.127,0.075-0.191,0.06-.164.121-0.327,0.174-0.493,0.1-.326.2-0.655,0.278-0.989,0.037-.163.073-0.327,0.1-0.492,0.008-.044.02-0.138,0.03-0.218,0.023-.255.038-0.509,0.041-0.765A2.409,2.409,0,0,1,26.785,78.369Z" transform="translate(-4.878 -7.548)" style="fill:none"/><path d="M118.7,100.342c-0.041-.2-0.088-0.409-0.149-0.609a1.622,1.622,0,0,1-.18-0.535,6.883,6.883,0,0,0-.343-0.649c-0.089-.145-0.177-0.29-0.276-0.429l-0.056-.08a7.493,7.493,0,0,0-.577-0.617,1.786,1.786,0,0,1-.415-0.362,6.924,6.924,0,0,0-.619-0.393c-0.15-.082-0.3-0.165-0.454-0.237l-0.057-.027-0.032-.011a7.433,7.433,0,0,0-.83-0.253c-0.153-.035-0.306-0.069-0.461-0.1-0.237-.02-0.474-0.033-0.713-0.033h-0.719l-4.775,5.415a2.275,2.275,0,0,1-3.217,0l-4.816-5.415h-0.69c-0.2,0-.393,0-0.588.019-0.063.005-.261,0.037-0.336,0.048l-0.113.022a7.421,7.421,0,0,0-.838.234c-0.073.025-.145,0.053-0.217,0.08l-0.035.016a7.478,7.478,0,0,0-.747.411c-0.126.081-.251,0.163-0.372,0.25a7.86,7.86,0,0,0-.924.923c-0.006.026-.3,0.444-0.354,0.533-0.108.186-.213,0.375-0.308,0.569,0.022-.027-0.186.507-0.216,0.615-0.063.224-.123,0.45-0.164,0.68-0.008.045-.015,0.079-0.02,0.106q-0.017.175-.025,0.35c0,0.132-.009.264-0.009,0.4v3.529h24.713v-3.563c0-.181,0-0.362-0.02-0.543C118.746,100.623,118.711,100.406,118.7,100.342Z" transform="translate(-4.878 -7.548)" style="fill:none"/><path d="M111.417,78.375c-0.031-.185-0.065-0.37-0.113-0.552-0.059-.225-0.121-0.449-0.2-0.667l-0.044-.116c-0.021-.045-0.041-0.09-0.063-0.134-0.1-.2-0.21-0.406-0.332-0.6a4.252,4.252,0,0,1-.268-0.4,6.949,6.949,0,0,0-.8-0.82c-0.042-.035-0.176-0.133-0.242-0.182-0.037-.025-0.074-0.052-0.112-0.076-0.192-.122-0.386-0.242-0.59-0.345-0.086-.044-0.517-0.217-0.45-0.2-0.149-.052-0.3-0.1-0.451-0.142-0.217-.057-0.434-0.11-0.655-0.147-0.105-.01-0.21-0.018-0.316-0.023-0.243-.009-0.486-0.015-0.729,0-0.105.005-.21,0.014-0.315,0.023a7.177,7.177,0,0,0-1.154.3l-0.111.04c-0.149.072-.3,0.144-0.443,0.226s-0.3.169-.439,0.264a3.083,3.083,0,0,1-.273.191,6.557,6.557,0,0,0-.572.536q-0.157.168-.307,0.345c-0.044.065-.152,0.215-0.181,0.26a7.249,7.249,0,0,0-.5.9v0c-0.008.025-.018,0.055-0.031,0.093-0.056.165-.112,0.33-0.157,0.5s-0.089.34-.121,0.513c-0.011.057-.029,0.23-0.039,0.315a7.236,7.236,0,0,0-.006.974q0.011,0.155.025,0.311c0.011,0.078.024,0.166,0.032,0.207a11.557,11.557,0,0,0,.554,1.974c0.024,0.064.05,0.128,0.075,0.192l0.034,0.077c0.075,0.16.15,0.32,0.231,0.477,0.163,0.313.333,0.624,0.522,0.922,0.094,0.148.188,0.3,0.289,0.44,0.044,0.062.268,0.355,0.2,0.275,0.169,0.205.344,0.406,0.531,0.6,0.156,0.158.314,0.315,0.482,0.46,0.053,0.046.235,0.184,0.264,0.209a5.592,5.592,0,0,0,.584.358c0.07,0.037.268,0.122,0.3,0.137,0.05,0.017.1,0.035,0.151,0.05,0.145,0.042.291,0.084,0.44,0.112h0.006a4.412,4.412,0,0,0,.587,0h0.006a5.722,5.722,0,0,0,.638-0.176c0.071-.035.2-0.095,0.249-0.123,0.138-.076.275-0.153,0.407-0.239q0.117-.077.233-0.156c0.067-.054.172-0.138,0.208-0.171a9.124,9.124,0,0,0,.827-0.834q0.1-.112.19-0.225c0.042-.06.166-0.227,0.2-0.272a12.257,12.257,0,0,0,1.043-1.84l0.034-.077c0.025-.064.051-0.127,0.075-0.191,0.06-.164.121-0.327,0.174-0.493,0.1-.326.2-0.655,0.278-0.989,0.037-.163.073-0.327,0.1-0.492,0.008-.044.02-0.137,0.03-0.217,0.023-.255.039-0.51,0.041-0.767A2.115,2.115,0,0,1,111.417,78.375Z" transform="translate(-4.878 -7.548)" style="fill:none"/><path d="M34.071,100.341c-0.041-.2-0.088-0.408-0.149-0.608a1.624,1.624,0,0,1-.18-0.535,6.9,6.9,0,0,0-.343-0.649c-0.089-.145-0.177-0.29-0.276-0.429l-0.056-.08a7.493,7.493,0,0,0-.577-0.617,1.849,1.849,0,0,1-.416-0.363,6.926,6.926,0,0,0-.618-0.392c-0.15-.082-0.3-0.165-0.454-0.237l-0.057-.027-0.033-.011a7.422,7.422,0,0,0-.83-0.253c-0.153-.035-0.306-0.069-0.461-0.1-0.237-.02-0.474-0.033-0.713-0.033H28.19l-4.775,5.415a2.275,2.275,0,0,1-3.217,0l-4.816-5.415h-0.69c-0.2,0-.392,0-0.588.019-0.063.005-.263,0.037-0.337,0.048l-0.111.021a7.421,7.421,0,0,0-.838.234c-0.073.025-.145,0.053-0.217,0.08l-0.035.016a7.477,7.477,0,0,0-.747.411c-0.126.081-.251,0.163-0.372,0.25a7.866,7.866,0,0,0-.924.923c-0.007.027-.3,0.444-0.354,0.533-0.108.186-.213,0.375-0.308,0.569,0.022-.027-0.186.507-0.216,0.615-0.063.224-.123,0.45-0.164,0.68-0.008.045-.015,0.079-0.02,0.106q-0.017.175-.025,0.35c0,0.132-.009.264-0.009,0.4v3.529H34.141v-3.563c0-.181,0-0.362-0.02-0.543C34.116,100.623,34.08,100.4,34.071,100.341Z" transform="translate(-4.878 -7.548)" style="fill:none"/><path d="M76.387,38.462c-0.041-.2-0.088-0.409-0.149-0.609a1.617,1.617,0,0,1-.18-0.535,6.884,6.884,0,0,0-.343-0.649c-0.089-.145-0.177-0.29-0.276-0.429l-0.056-.081a7.53,7.53,0,0,0-.576-0.616,1.786,1.786,0,0,1-.415-0.362,6.922,6.922,0,0,0-.619-0.393c-0.15-.082-0.3-0.165-0.454-0.237l-0.057-.027-0.032-.011a7.457,7.457,0,0,0-.83-0.253c-0.153-.035-0.307-0.069-0.461-0.1-0.237-.019-0.474-0.033-0.713-0.033H70.506L65.73,39.548a2.275,2.275,0,0,1-3.217,0L57.7,34.133h-0.69c-0.2,0-.392,0-0.588.019-0.063.005-.261,0.037-0.336,0.048l-0.112.022a7.45,7.45,0,0,0-.838.234c-0.073.025-.144,0.053-0.216,0.08l-0.036.016a7.453,7.453,0,0,0-.747.411c-0.126.081-.25,0.163-0.372,0.25a7.876,7.876,0,0,0-.924.923c-0.006.026-.3,0.444-0.354,0.533-0.108.187-.214,0.375-0.308,0.569,0.023-.028-0.185.506-0.216,0.615-0.063.225-.123,0.45-0.164,0.68-0.008.045-.015,0.079-0.02,0.106q-0.017.175-.025,0.35c0,0.132-.009.264-0.009,0.4v3.53H76.456V39.352c0-.181,0-0.363-0.02-0.543C76.431,38.743,76.4,38.526,76.387,38.462Z" transform="translate(-4.878 -7.548)" style="fill:none"/><path d="M69.1,16.495c-0.031-.185-0.065-0.37-0.113-0.552-0.059-.225-0.121-0.449-0.2-0.667l-0.044-.116c-0.021-.045-0.041-0.09-0.063-0.134-0.1-.2-0.21-0.406-0.332-0.6a4.277,4.277,0,0,1-.269-0.4,6.951,6.951,0,0,0-.8-0.82c-0.042-.036-0.178-0.135-0.244-0.183C67,13,66.963,12.974,66.926,12.95c-0.192-.122-0.386-0.242-0.59-0.345-0.086-.044-0.517-0.217-0.45-0.2-0.149-.052-0.3-0.1-0.451-0.142-0.216-.057-0.434-0.11-0.654-0.147-0.106-.01-0.211-0.018-0.317-0.023-0.243-.009-0.486-0.015-0.729,0-0.106.005-.211,0.014-0.316,0.023a7.175,7.175,0,0,0-1.153.3l-0.111.039c-0.149.072-.3,0.144-0.443,0.226s-0.3.169-.439,0.264a3.076,3.076,0,0,1-.273.191,6.586,6.586,0,0,0-.572.537q-0.157.169-.307,0.345c-0.045.065-.152,0.215-0.181,0.26a7.284,7.284,0,0,0-.5.9v0c-0.008.025-.018,0.055-0.031,0.094-0.056.165-.112,0.33-0.157,0.5s-0.089.34-.121,0.513c-0.011.057-.029,0.228-0.038,0.313a7.24,7.24,0,0,0-.006.975q0.011,0.154.025,0.308c0.011,0.078.024,0.168,0.032,0.21a11.544,11.544,0,0,0,.554,1.974c0.024,0.064.049,0.126,0.074,0.189l0.035,0.079c0.075,0.16.15,0.32,0.232,0.477,0.163,0.313.333,0.624,0.522,0.922,0.094,0.148.188,0.3,0.289,0.44,0.044,0.062.268,0.355,0.2,0.275,0.169,0.205.343,0.406,0.531,0.6,0.156,0.158.314,0.315,0.482,0.46,0.053,0.046.235,0.184,0.264,0.209a5.568,5.568,0,0,0,.584.358c0.07,0.036.265,0.12,0.295,0.137,0.05,0.017.1,0.035,0.152,0.05,0.145,0.042.291,0.084,0.44,0.112h0.006a4.434,4.434,0,0,0,.587,0H64.4a5.726,5.726,0,0,0,.638-0.176c0.071-.035.2-0.095,0.249-0.123,0.138-.076.275-0.153,0.407-0.239q0.118-.077.234-0.157c0.067-.054.17-0.137,0.207-0.17a9.093,9.093,0,0,0,.827-0.834q0.1-.112.19-0.225c0.043-.06.166-0.227,0.2-0.271a12.252,12.252,0,0,0,1.043-1.84l0.034-.078c0.025-.064.051-0.127,0.075-0.191,0.06-.164.121-0.327,0.174-0.493,0.1-.326.2-0.655,0.278-0.989,0.037-.163.073-0.327,0.1-0.492,0.008-.044.02-0.137,0.03-0.217,0.023-.255.039-0.51,0.041-0.767A2.111,2.111,0,0,1,69.1,16.495Z" transform="translate(-4.878 -7.548)" style="fill:none"/><path d="M16.533,88.6a8.194,8.194,0,0,0,5.1,2.207,7.843,7.843,0,0,0,5.28-2.1,13.376,13.376,0,0,0,4.447-9.721h0a2.275,2.275,0,0,1-4.55,0c0,0.256-.018.511-0.041,0.765,0.019-.152.03-0.248-0.015,0.176,0.006-.059.009-0.117,0.015-0.176-0.01.079-.022,0.174-0.03,0.218-0.029.165-.066,0.328-0.1,0.492-0.075.334-.173,0.663-0.278,0.989-0.053.166-.114,0.33-0.174,0.493-0.024.064-.05,0.127-0.075,0.191q0.1-.22-0.053.136c0.018-.045.035-0.09,0.053-0.136l-0.034.078a12.257,12.257,0,0,1-1.043,1.84c-0.03.045-.155,0.213-0.2,0.272,0.047-.057.094-0.114,0.14-0.173-0.154.2-.173,0.22-0.14,0.173q-0.093.113-.189,0.224a9.124,9.124,0,0,1-.827.834c-0.037.033-.142,0.117-0.208,0.171,0.055-.038.109-0.076,0.162-0.116a1.541,1.541,0,1,1-.162.116q-0.115.08-.233,0.157c-0.132.086-.269,0.163-0.407,0.239-0.05.028-.178,0.088-0.249,0.123,0.078-.027.156-0.056,0.233-0.088a0.785,0.785,0,1,1-.233.088,5.72,5.72,0,0,1-.639.176h0.005c0.531-.046-0.518.113-0.011,0a4.412,4.412,0,0,1-.587,0c0.509,0.1-.544-0.028-0.011,0h0.005c-0.149-.028-0.295-0.07-0.44-0.112-0.051-.015-0.1-0.033-0.152-0.05a1.923,1.923,0,0,1-.279-0.1c0.093,0.036.186,0.071,0.279,0.1-0.027-.016-0.225-0.1-0.3-0.137a5.592,5.592,0,0,1-.584-0.358,2.1,2.1,0,0,1-.218-0.154q0.108,0.078.218,0.154c-0.029-.025-0.211-0.163-0.264-0.209-0.168-.145-0.326-0.3-0.482-0.46-0.187-.189-0.362-0.39-0.531-0.6-0.02-.023-0.062-0.076-0.143-0.176l0.143,0.176c0.068,0.08-.156-0.213-0.2-0.275-0.1-.144-0.2-0.292-0.289-0.44-0.19-.3-0.359-0.609-0.522-0.922-0.082-.157-0.157-0.317-0.231-0.477l-0.035-.08c0.018,0.046.035,0.092,0.054,0.138-0.1-.236-0.118-0.281-0.054-0.138-0.025-.063-0.05-0.126-0.074-0.189a11.533,11.533,0,0,1-.554-1.974c-0.008-.041-0.021-0.131-0.032-0.21,0.005,0.056.01,0.112,0.017,0.167-0.053-.432-0.039-0.324-0.017-0.167q-0.014-.154-0.025-0.308a7.239,7.239,0,0,1,.006-0.975,1.72,1.72,0,1,1,.016-0.214c-0.006.071-.011,0.143-0.016,0.214,0.01-.085.028-0.257,0.038-0.314,0.032-.173.077-0.343,0.121-0.513s0.1-.333.157-0.5c0.013-.039.023-0.069,0.031-0.094-0.222.491,0.106-.33,0,0v0a7.268,7.268,0,0,1,.5-0.9c0.029-.045.136-0.194,0.181-0.26-0.047.055-.095,0.11-0.139,0.167a0.433,0.433,0,1,1,.139-0.167q0.149-.176.307-0.345a6.573,6.573,0,0,1,.572-0.536c0.023-.02.077-0.065,0.181-0.15q-0.091.074-.181,0.15a3.076,3.076,0,0,0,.273-0.191c0.142-.095.291-0.18,0.439-0.264s0.293-.154.443-0.226c-0.278.094,0.5-.238,0.016-0.008l-0.016.008,0.111-.04A7.182,7.182,0,0,1,21.1,74L21.06,74q0.463-.071.075-0.009L21.1,74c0.1-.01.21-0.018,0.315-0.023,0.243-.015.486-0.009,0.729,0,0.105,0.005.211,0.014,0.316,0.023l-0.031-.006q-0.388-.061.075,0.009l-0.044,0c0.221,0.037.439,0.091,0.656,0.147,0.152,0.04.3,0.09,0.451,0.142,0.02,0.005.081,0.027,0.21,0.074l-0.21-.074c-0.066-.018.364,0.155,0.45,0.2,0.2,0.1.4,0.223,0.59,0.345,0.038,0.025.074,0.051,0.112,0.076a1.857,1.857,0,1,1,.169.116c-0.056-.04-0.113-0.077-0.169-0.116,0.067,0.049.2,0.147,0.242,0.182a6.936,6.936,0,0,1,.8.82c0.02,0.021.061,0.07,0.135,0.162-0.044-.055-0.09-0.108-0.135-0.162a4.214,4.214,0,0,0,.268.4c0.122,0.193.228,0.4,0.332,0.6,0.022,0.044.041,0.089,0.062,0.133a0.5,0.5,0,1,1,.083.179c-0.026-.06-0.055-0.119-0.083-0.179l0.044,0.117c0.08,0.218.142,0.443,0.2,0.667,0.047,0.18.081,0.363,0.112,0.546,0.006,0.033.015,0.081,0.025,0.147-0.008-.049-0.017-0.1-0.025-0.147a2.409,2.409,0,0,0,.023.621,2.275,2.275,0,0,1,4.55,0h0a9.568,9.568,0,0,0-14.978-7.9,9.645,9.645,0,0,0-4.115,8.837A13.766,13.766,0,0,0,16.533,88.6Z" transform="translate(-4.878 -7.548)" style="fill:#030104"/><path d="M21.06,74L21.1,74l0.03-.006Q21.523,73.93,21.06,74Z" transform="translate(-4.878 -7.548)" style="fill:#030104"/><path d="M19.84,74.34l0.016-.008C20.335,74.1,19.562,74.434,19.84,74.34Z" transform="translate(-4.878 -7.548)" style="fill:#030104"/><path d="M22.433,73.991L22.464,74l0.044,0Q22.045,73.93,22.433,73.991Z" transform="translate(-4.878 -7.548)" style="fill:#030104"/><path d="M18.685,75.022q0.09-.076.181-0.15C18.761,74.956,18.707,75,18.685,75.022Z" transform="translate(-4.878 -7.548)" style="fill:#030104"/><path d="M24.722,74.907c0.057,0.038.114,0.076,0.169,0.116A1.857,1.857,0,1,0,24.722,74.907Z" transform="translate(-4.878 -7.548)" style="fill:#030104"/><path d="M26.785,78.369c0.008,0.049.018,0.1,0.025,0.147C26.8,78.449,26.792,78.4,26.785,78.369Z" transform="translate(-4.878 -7.548)" style="fill:#030104"/><path d="M29.084,76.715a2.275,2.275,0,1,0,2.275,2.275A2.3,2.3,0,0,0,29.084,76.715Z" transform="translate(-4.878 -7.548)" style="fill:#030104"/><path d="M17.667,76.07c0.044-.057.092-0.112,0.139-0.167A0.433,0.433,0,1,0,17.667,76.07Z" transform="translate(-4.878 -7.548)" style="fill:#030104"/><path d="M25.766,75.909c0.045,0.054.091,0.107,0.135,0.162C25.828,75.979,25.786,75.93,25.766,75.909Z" transform="translate(-4.878 -7.548)" style="fill:#030104"/><path d="M26.428,77.038c0.028,0.059.057,0.119,0.083,0.179A0.5,0.5,0,1,0,26.428,77.038Z" transform="translate(-4.878 -7.548)" style="fill:#030104"/><path d="M23.57,74.286l0.21,0.074C23.651,74.313,23.59,74.292,23.57,74.286Z" transform="translate(-4.878 -7.548)" style="fill:#030104"/><path d="M23.773,85.441c-0.053.04-.107,0.078-0.162,0.116A1.541,1.541,0,1,0,23.773,85.441Z" transform="translate(-4.878 -7.548)" style="fill:#030104"/><path d="M17.127,77.062c0.106-.33-0.222.491,0,0h0Z" transform="translate(-4.878 -7.548)" style="fill:#030104"/><path d="M22.089,86.252H22.078C21.571,86.366,22.62,86.207,22.089,86.252Z" transform="translate(-4.878 -7.548)" style="fill:#030104"/><path d="M22.955,85.987c-0.077.032-.154,0.061-0.233,0.088A0.785,0.785,0,1,0,22.955,85.987Z" transform="translate(-4.878 -7.548)" style="fill:#030104"/><path d="M26.768,79.755c-0.005.059-.008,0.117-0.015,0.176C26.8,79.507,26.787,79.6,26.768,79.755Z" transform="translate(-4.878 -7.548)" style="fill:#030104"/><path d="M24.975,84.155c-0.045.059-.093,0.116-0.14,0.173S24.82,84.354,24.975,84.155Z" transform="translate(-4.878 -7.548)" style="fill:#030104"/><path d="M26.109,82.138c-0.018.045-.035,0.091-0.053,0.136Q26.207,81.918,26.109,82.138Z" transform="translate(-4.878 -7.548)" style="fill:#030104"/><path d="M21.491,86.253H21.48C20.947,86.225,22,86.349,21.491,86.253Z" transform="translate(-4.878 -7.548)" style="fill:#030104"/><path d="M17.513,82.273c-0.019-.046-0.036-0.092-0.054-0.138C17.395,81.992,17.413,82.038,17.513,82.273Z" transform="translate(-4.878 -7.548)" style="fill:#030104"/><path d="M16.815,79.93c-0.007-.056-0.012-0.112-0.017-0.167C16.776,79.606,16.762,79.5,16.815,79.93Z" transform="translate(-4.878 -7.548)" style="fill:#030104"/><path d="M16.78,78.48c0-.071.009-0.143,0.016-0.214A1.72,1.72,0,1,0,16.78,78.48Z" transform="translate(-4.878 -7.548)" style="fill:#030104"/><path d="M20.014,85.595q-0.11-.076-0.218-0.154A2.1,2.1,0,0,0,20.014,85.595Z" transform="translate(-4.878 -7.548)" style="fill:#030104"/><path d="M20.893,86.09c-0.094-.032-0.187-0.067-0.279-0.1A1.923,1.923,0,0,0,20.893,86.09Z" transform="translate(-4.878 -7.548)" style="fill:#030104"/><path d="M18.737,84.33l-0.143-.176C18.675,84.255,18.717,84.307,18.737,84.33Z" transform="translate(-4.878 -7.548)" style="fill:#030104"/><path d="M9.775,99.306c0.028-.063.057-0.126,0.087-0.188A2.053,2.053,0,0,0,9.775,99.306Z" transform="translate(-4.878 -7.548)" style="fill:#030104"/><path d="M9.462,100.519V100.51C9.509,99.954,9.4,100.844,9.462,100.519Z" transform="translate(-4.878 -7.548)" style="fill:#030104"/><path d="M11.4,97.128l0.05-.035,0.009-.008Q11.748,96.849,11.4,97.128Z" transform="translate(-4.878 -7.548)" style="fill:#030104"/><path d="M9.428,107.07v-2.275H7.153Z" transform="translate(-4.878 -7.548)" style="fill:#030104"/><path d="M12.494,96.456l0.107-.04C12.79,96.33,12.756,96.342,12.494,96.456Z" transform="translate(-4.878 -7.548)" style="fill:#030104"/><path d="M36.416,104.795H34.141v2.275Z" transform="translate(-4.878 -7.548)" style="fill:#030104"/><path d="M10.393,98.173c0.042-.054.087-0.1,0.13-0.156A0.888,0.888,0,0,0,10.393,98.173Z" transform="translate(-4.878 -7.548)" style="fill:#030104"/><path d="M36.416,98.957a2.275,2.275,0,1,0,2.275,2.275v0A2.3,2.3,0,0,0,36.416,98.957Z" transform="translate(-4.878 -7.548)" style="fill:#030104"/><path d="M34.071,100.341q0.024,0.122.047,0.245A0.715,0.715,0,0,0,34.071,100.341Z" transform="translate(-4.878 -7.548)" style="fill:#030104"/><path d="M33.742,99.2l0.051,0.108Z" transform="translate(-4.878 -7.548)" style="fill:#030104"/><path d="M23.415,98.211L21.8,96.394l-1.6,1.817h3.217Z" transform="translate(-4.878 -7.548)" style="fill:#030104"/><path d="M38.691,101.232a2.275,2.275,0,0,1-4.55,0v3.563h2.275l-2.275,2.275v-2.275H9.428v2.275l-2.275-2.275H9.428v-3.529c0-.132,0-0.264.009-0.4q0.008-.175.025-0.35c-0.066.325,0.047-.566,0-0.009v0.009c0.005-.027.012-0.061,0.02-0.106,0.041-.23.1-0.455,0.164-0.68,0.03-.108.238-0.642,0.216-0.615-0.03.062-.059,0.124-0.087,0.188a2.053,2.053,0,0,1,.087-0.188c0.094-.194.2-0.383,0.308-0.569,0.052-.089.347-0.506,0.354-0.533-0.044.052-.088,0.1-0.13,0.156a0.888,0.888,0,0,1,.13-0.156,7.866,7.866,0,0,1,.924-0.923l-0.05.035q0.351-.28.059-0.043l-0.009.008c0.121-.087.246-0.169,0.372-0.25a7.477,7.477,0,0,1,.747-0.411l0.035-.016-0.107.04c0.262-.113.3-0.126,0.107-0.04,0.072-.027.144-0.055,0.217-0.08a7.421,7.421,0,0,1,.838-0.234l0.111-.021A0.42,0.42,0,1,1,14,96.036c-0.078.013-.156,0.029-0.234,0.045,0.074-.011.274-0.043,0.337-0.048,0.2-.016.392-0.019,0.588-0.019h0.69l-0.593-.666L16.4,96.013H15.382l4.816,5.415a2.275,2.275,0,0,0,3.217,0l4.775-5.415H27.169l1.609-.666-0.588.666h0.719c0.238,0,.475.013,0.713,0.033l-0.055-.01q0.469,0.055.076,0.012H29.622c0.155,0.026.308,0.06,0.461,0.1a7.422,7.422,0,0,1,.83.253l0.033,0.011c-0.382-.182.455,0.16,0,0L31,96.432c0.155,0.072.3,0.154,0.454,0.237a6.926,6.926,0,0,1,.618.392l0.1,0.068-0.1-.068a1.849,1.849,0,0,0,.416.363,7.493,7.493,0,0,1,.577.617c-0.19-.279.348,0.408,0,0h0l0.056,0.08c0.1,0.139.187,0.284,0.276,0.429a6.9,6.9,0,0,1,.343.649l0.051,0.108L33.742,99.2a1.624,1.624,0,0,0,.18.535c0.061,0.2.108,0.4,0.149,0.608a0.715,0.715,0,0,1,.047.245q-0.022-.123-0.047-0.245c0.009,0.063.044,0.282,0.05,0.348,0.015,0.18.018,0.362,0.02,0.543a2.275,2.275,0,0,1,4.55,0,9.975,9.975,0,0,0-4.645-8.313,9.875,9.875,0,0,0-4.762-1.443,9,9,0,0,0-2.719.073,3.778,3.778,0,0,0-1.748,1.428l-1.852,2.1L21.8,96.394l1.615,1.817H20.2l1.6-1.817-1.347-1.515-1.872-2.105A2.849,2.849,0,0,0,16.3,91.463a21.38,21.38,0,0,0-3.334.158,9.97,9.97,0,0,0-4.6,2.14,9.779,9.779,0,0,0-3.492,7.7v5.614a2.3,2.3,0,0,0,2.275,2.275H36.416a2.3,2.3,0,0,0,2.275-2.275v-5.838Z" transform="translate(-4.878 -7.548)" style="fill:#030104"/><path d="M33.068,98.041h0C33.416,98.448,32.877,97.761,33.068,98.041Z" transform="translate(-4.878 -7.548)" style="fill:#030104"/><path d="M30.946,96.406c0.455,0.16-.382-0.182,0,0h0Z" transform="translate(-4.878 -7.548)" style="fill:#030104"/><path d="M14.79,95.347l0.593,0.666H16.4Z" transform="translate(-4.878 -7.548)" style="fill:#030104"/><path d="M27.169,96.013H28.19l0.588-.666Z" transform="translate(-4.878 -7.548)" style="fill:#030104"/><path d="M32.075,97.061l0.1,0.068Z" transform="translate(-4.878 -7.548)" style="fill:#030104"/><path d="M29.567,96.036l0.055,0.01h0.021Q30.036,96.091,29.567,96.036Z" transform="translate(-4.878 -7.548)" style="fill:#030104"/><path d="M13.767,96.081c0.078-.016.156-0.032,0.234-0.045A0.42,0.42,0,1,0,13.767,96.081Z" transform="translate(-4.878 -7.548)" style="fill:#030104"/><path d="M104.47,74.34l0.016-.008C104.966,74.1,104.192,74.434,104.47,74.34Z" transform="translate(-4.878 -7.548)" style="fill:#030104"/><path d="M105.691,74l0.044,0,0.031-.006Q106.153,73.93,105.691,74Z" transform="translate(-4.878 -7.548)" style="fill:#030104"/><path d="M101.41,78.481c0-.072.009-0.144,0.016-0.216A1.654,1.654,0,1,0,101.41,78.481Z" transform="translate(-4.878 -7.548)" style="fill:#030104"/><path d="M102.3,76.07c0.045-.058.092-0.112,0.139-0.168A0.417,0.417,0,1,0,102.3,76.07Z" transform="translate(-4.878 -7.548)" style="fill:#030104"/><path d="M101.757,77.062c0.106-.33-0.222.49,0,0h0Z" transform="translate(-4.878 -7.548)" style="fill:#030104"/><path d="M103.315,75.022q0.09-.076.181-0.15C103.392,74.956,103.338,75,103.315,75.022Z" transform="translate(-4.878 -7.548)" style="fill:#030104"/><path d="M111.4,79.756c-0.005.058-.008,0.116-0.014,0.174C111.428,79.506,111.417,79.6,111.4,79.756Z" transform="translate(-4.878 -7.548)" style="fill:#030104"/><path d="M109.353,74.907c0.057,0.038.114,0.076,0.17,0.116A1.857,1.857,0,1,0,109.353,74.907Z" transform="translate(-4.878 -7.548)" style="fill:#030104"/><path d="M108.2,74.286l0.21,0.074C108.282,74.313,108.221,74.292,108.2,74.286Z" transform="translate(-4.878 -7.548)" style="fill:#030104"/><path d="M107.064,73.991L107.095,74l0.044,0Q106.676,73.93,107.064,73.991Z" transform="translate(-4.878 -7.548)" style="fill:#030104"/><path d="M108.4,85.441c-0.053.04-.108,0.078-0.162,0.116A1.534,1.534,0,1,0,108.4,85.441Z" transform="translate(-4.878 -7.548)" style="fill:#030104"/><path d="M106.719,86.252h-0.011C106.2,86.366,107.25,86.207,106.719,86.252Z" transform="translate(-4.878 -7.548)" style="fill:#030104"/><path d="M106.121,86.253H106.11C105.578,86.225,106.63,86.349,106.121,86.253Z" transform="translate(-4.878 -7.548)" style="fill:#030104"/><path d="M107.585,85.987c-0.077.032-.154,0.061-0.233,0.089A0.779,0.779,0,1,0,107.585,85.987Z" transform="translate(-4.878 -7.548)" style="fill:#030104"/><path d="M101.446,79.93c-0.007-.055-0.012-0.11-0.017-0.165C101.407,79.607,101.392,79.5,101.446,79.93Z" transform="translate(-4.878 -7.548)" style="fill:#030104"/><path d="M109.6,84.155c-0.045.058-.092,0.115-0.139,0.172S109.449,84.355,109.6,84.155Z" transform="translate(-4.878 -7.548)" style="fill:#030104"/><path d="M110.4,75.909c0.045,0.054.091,0.107,0.136,0.162C110.458,75.979,110.416,75.93,110.4,75.909Z" transform="translate(-4.878 -7.548)" style="fill:#030104"/><path d="M103.367,84.33l-0.143-.176C103.3,84.255,103.348,84.307,103.367,84.33Z" transform="translate(-4.878 -7.548)" style="fill:#030104"/><path d="M105.524,86.09c-0.094-.032-0.187-0.067-0.28-0.1A1.948,1.948,0,0,0,105.524,86.09Z" transform="translate(-4.878 -7.548)" style="fill:#030104"/><path d="M102.144,82.273c-0.018-.045-0.035-0.09-0.053-0.135Q101.992,81.917,102.144,82.273Z" transform="translate(-4.878 -7.548)" style="fill:#030104"/><path d="M104.644,85.595q-0.11-.076-0.218-0.154A2.1,2.1,0,0,0,104.644,85.595Z" transform="translate(-4.878 -7.548)" style="fill:#030104"/><path d="M110.739,82.138c-0.018.045-.035,0.09-0.053,0.135Q110.837,81.917,110.739,82.138Z" transform="translate(-4.878 -7.548)" style="fill:#030104"/><path d="M111.417,78.375c0.008,0.047.017,0.094,0.024,0.141C111.431,78.453,111.423,78.408,111.417,78.375Z" transform="translate(-4.878 -7.548)" style="fill:#030104"/><path d="M113.714,76.715a2.275,2.275,0,1,0,2.275,2.275V78.982A2.294,2.294,0,0,0,113.714,76.715Z" transform="translate(-4.878 -7.548)" style="fill:#030104"/><path d="M110.948,70.556A9.572,9.572,0,0,0,96.9,79.931a13.766,13.766,0,0,0,4.267,8.673,8.194,8.194,0,0,0,5.1,2.207,7.843,7.843,0,0,0,5.28-2.1,13.376,13.376,0,0,0,4.447-9.721v0a2.275,2.275,0,0,1-4.55,0c0,0.257-.018.512-0.041,0.767,0.019-.153.03-0.25-0.014,0.174,0.006-.058.009-0.116,0.014-0.174-0.01.079-.022,0.173-0.03,0.217-0.029.165-.066,0.328-0.1,0.492-0.075.334-.173,0.663-0.278,0.989-0.053.166-.114,0.33-0.174,0.493-0.024.064-.05,0.128-0.075,0.191q0.1-.221-0.053.135c0.018-.045.035-0.09,0.053-0.135l-0.034.077a12.257,12.257,0,0,1-1.043,1.84c-0.03.045-.154,0.212-0.2,0.272,0.047-.057.094-0.114,0.139-0.172-0.155.2-.173,0.22-0.139,0.172q-0.094.113-.19,0.225a9.124,9.124,0,0,1-.827.834c-0.037.033-.142,0.117-0.208,0.171,0.055-.038.109-0.076,0.162-0.116a1.534,1.534,0,1,1-.162.116q-0.115.08-.233,0.156c-0.132.086-.269,0.163-0.407,0.239-0.05.028-.178,0.088-0.249,0.123,0.078-.027.156-0.056,0.233-0.089a0.779,0.779,0,1,1-.233.089,5.722,5.722,0,0,1-.638.176h0.005c0.531-.046-0.518.113-0.011,0a4.412,4.412,0,0,1-.587,0c0.509,0.1-.544-0.028-0.011,0h0.005c-0.149-.028-0.295-0.07-0.44-0.112-0.051-.015-0.1-0.033-0.151-0.05a1.948,1.948,0,0,1-.28-0.1c0.092,0.036.186,0.071,0.28,0.1-0.027-.015-0.225-0.1-0.3-0.137a5.592,5.592,0,0,1-.584-0.358,2.1,2.1,0,0,1-.218-0.154q0.108,0.078.218,0.154c-0.029-.025-0.211-0.163-0.264-0.209-0.168-.145-0.326-0.3-0.482-0.46-0.187-.189-0.362-0.39-0.531-0.6-0.02-.023-0.062-0.076-0.143-0.176l0.143,0.176c0.068,0.08-.156-0.213-0.2-0.275-0.1-.144-0.195-0.292-0.289-0.44-0.19-.3-0.359-0.609-0.522-0.922-0.082-.157-0.157-0.317-0.231-0.477l-0.034-.077c0.018,0.045.035,0.09,0.053,0.135q-0.152-.357-0.053-0.135c-0.025-.064-0.051-0.128-0.075-0.192a11.557,11.557,0,0,1-.554-1.974c-0.008-.041-0.021-0.13-0.032-0.207,0.005,0.055.01,0.11,0.017,0.165-0.053-.434-0.039-0.323-0.017-0.165q-0.014-.155-0.025-0.311a7.236,7.236,0,0,1,.006-0.974,1.654,1.654,0,1,1,.016-0.216c-0.006.072-.011,0.144-0.016,0.216,0.009-.085.028-0.258,0.039-0.315,0.032-.173.077-0.343,0.121-0.513s0.1-.333.157-0.5c0.013-.038.023-0.069,0.031-0.093-0.222.49,0.106-.33,0,0v0a7.249,7.249,0,0,1,.5-0.9c0.029-.045.137-0.2,0.181-0.26-0.047.056-.095,0.11-0.139,0.168a0.417,0.417,0,1,1,.139-0.168q0.149-.176.307-0.345a6.557,6.557,0,0,1,.572-0.536c0.023-.02.077-0.065,0.181-0.15q-0.091.074-.181,0.15a3.083,3.083,0,0,0,.273-0.191c0.142-.095.291-0.18,0.439-0.264s0.293-.154.443-0.226c-0.278.094,0.5-.238,0.016-0.008l-0.016.008,0.111-.04a7.177,7.177,0,0,1,1.154-.3l-0.044,0q0.463-.071.075-0.009L105.735,74c0.1-.01.21-0.018,0.315-0.023,0.243-.015.486-0.009,0.729,0,0.105,0.005.211,0.014,0.316,0.023l-0.031-.006q-0.388-.061.075,0.009l-0.044,0c0.221,0.037.439,0.091,0.655,0.147,0.153,0.04.3,0.09,0.451,0.142,0.02,0.005.081,0.027,0.21,0.074l-0.21-.074c-0.067-.018.364,0.155,0.45,0.2,0.2,0.1.4,0.223,0.59,0.345,0.038,0.025.074,0.051,0.112,0.076a1.857,1.857,0,1,1,.17.116c-0.056-.04-0.113-0.078-0.17-0.116,0.067,0.049.2,0.147,0.242,0.182a6.949,6.949,0,0,1,.8.82c0.02,0.021.061,0.07,0.136,0.162-0.044-.055-0.09-0.108-0.136-0.162a4.252,4.252,0,0,0,.268.4c0.122,0.193.228,0.4,0.332,0.6,0.022,0.044.042,0.09,0.063,0.134a0.522,0.522,0,1,1,.083.177c-0.026-.06-0.055-0.118-0.083-0.177l0.044,0.116c0.08,0.218.142,0.443,0.2,0.667,0.048,0.182.082,0.367,0.113,0.552,0.006,0.033.014,0.079,0.024,0.141-0.008-.047-0.016-0.094-0.024-0.141a2.115,2.115,0,0,0,.022.615,2.275,2.275,0,0,1,4.55-.007A9.713,9.713,0,0,0,110.948,70.556Z" transform="translate(-4.878 -7.548)" style="fill:#030104"/><path d="M111.06,77.04c0.028,0.059.056,0.118,0.083,0.177A0.522,0.522,0,1,0,111.06,77.04Z" transform="translate(-4.878 -7.548)" style="fill:#030104"/><path d="M94.4,99.306c0.028-.063.057-0.126,0.087-0.188A2.053,2.053,0,0,0,94.4,99.306Z" transform="translate(-4.878 -7.548)" style="fill:#030104"/><path d="M96.027,97.128l0.05-.035,0.009-.008Q96.378,96.849,96.027,97.128Z" transform="translate(-4.878 -7.548)" style="fill:#030104"/><path d="M94.092,100.519V100.51C94.139,99.954,94.025,100.844,94.092,100.519Z" transform="translate(-4.878 -7.548)" style="fill:#030104"/><path d="M118.7,100.342q0.024,0.122.047,0.245A0.637,0.637,0,0,0,118.7,100.342Z" transform="translate(-4.878 -7.548)" style="fill:#030104"/><path d="M123.321,101.222v0.01a2.275,2.275,0,0,1-4.55,0v3.563h2.275l-2.275,2.275v-2.275H94.058v2.275l-2.275-2.275h2.275v-3.529c0-.132,0-0.264.009-0.4q0.008-.175.025-0.35c-0.066.325,0.047-.566,0-0.009v0.009c0.005-.027.012-0.061,0.02-0.106,0.041-.23.1-0.455,0.164-0.68,0.03-.108.238-0.642,0.216-0.615-0.03.062-.059,0.124-0.087,0.188a2.053,2.053,0,0,1,.087-0.188c0.094-.194.2-0.383,0.308-0.569,0.052-.089.348-0.507,0.354-0.533-0.044.052-.089,0.1-0.13,0.157a0.9,0.9,0,0,1,.13-0.157,7.86,7.86,0,0,1,.924-0.923l-0.05.035q0.351-.28.059-0.043l-0.009.008c0.121-.087.246-0.169,0.372-0.25a7.478,7.478,0,0,1,.747-0.411l0.035-.016-0.107.04c0.262-.113.3-0.126,0.107-0.04,0.072-.027.144-0.055,0.217-0.08a7.421,7.421,0,0,1,.838-0.234L98.4,96.08a0.506,0.506,0,1,1,.233-0.045c-0.078.013-.156,0.029-0.233,0.045,0.075-.011.273-0.043,0.336-0.048,0.2-.016.392-0.019,0.588-0.019h0.69l-0.593-.666,1.609,0.666h-1.016l4.816,5.415a2.275,2.275,0,0,0,3.217,0l4.775-5.415H111.8l1.609-.666-0.588.666h0.719c0.238,0,.475.013,0.713,0.033l-0.055-.01q0.469,0.055.076,0.012h-0.021c0.155,0.026.308,0.06,0.461,0.1a7.433,7.433,0,0,1,.83.253l0.032,0.011c-0.382-.182.455,0.16,0,0l0.057,0.027c0.155,0.072.3,0.154,0.454,0.237a6.924,6.924,0,0,1,.619.393l0.1,0.067-0.1-.067a1.786,1.786,0,0,0,.415.362,7.493,7.493,0,0,1,.577.617c-0.19-.279.348,0.408,0,0h0l0.056,0.08c0.1,0.139.187,0.284,0.276,0.429a6.883,6.883,0,0,1,.343.649l0.051,0.108-0.051-.108a1.622,1.622,0,0,0,.18.535c0.061,0.2.108,0.4,0.149,0.609a0.637,0.637,0,0,1,.047.245q-0.022-.123-0.047-0.245c0.009,0.064.044,0.281,0.05,0.348,0.015,0.18.017,0.362,0.02,0.543a2.275,2.275,0,0,1,4.55-.01,9.975,9.975,0,0,0-4.644-8.307,9.876,9.876,0,0,0-4.762-1.443,9,9,0,0,0-2.719.073,3.778,3.778,0,0,0-1.748,1.428l-1.852,2.1-1.165,1.321,1.615,1.817h-3.217l1.6-1.817-1.347-1.515-1.872-2.105a2.849,2.849,0,0,0-2.279-1.311,21.379,21.379,0,0,0-3.335.158,9.97,9.97,0,0,0-4.6,2.14,9.779,9.779,0,0,0-3.492,7.7v5.614a2.3,2.3,0,0,0,2.275,2.275h29.263a2.3,2.3,0,0,0,2.275-2.275v-5.848Z" transform="translate(-4.878 -7.548)" style="fill:#030104"/><path d="M121.046,104.795h-2.275v2.275Z" transform="translate(-4.878 -7.548)" style="fill:#030104"/><path d="M94.058,107.07v-2.275H91.783Z" transform="translate(-4.878 -7.548)" style="fill:#030104"/><path d="M95.023,98.173c0.042-.054.087-0.1,0.13-0.157A0.9,0.9,0,0,0,95.023,98.173Z" transform="translate(-4.878 -7.548)" style="fill:#030104"/><path d="M115.576,96.406c0.455,0.16-.382-0.182,0,0h0Z" transform="translate(-4.878 -7.548)" style="fill:#030104"/><path d="M114.2,96.036l0.055,0.01h0.021Q114.666,96.091,114.2,96.036Z" transform="translate(-4.878 -7.548)" style="fill:#030104"/><path d="M116.706,97.062l0.1,0.067Z" transform="translate(-4.878 -7.548)" style="fill:#030104"/><path d="M97.124,96.456l0.107-.04C97.42,96.33,97.386,96.342,97.124,96.456Z" transform="translate(-4.878 -7.548)" style="fill:#030104"/><path d="M118.373,99.2l0.051,0.108Z" transform="translate(-4.878 -7.548)" style="fill:#030104"/><path d="M117.7,98.041h0C118.046,98.448,117.507,97.761,117.7,98.041Z" transform="translate(-4.878 -7.548)" style="fill:#030104"/><path d="M111.8,96.013h1.021l0.588-.666Z" transform="translate(-4.878 -7.548)" style="fill:#030104"/><path d="M98.4,96.08c0.078-.016.155-0.032,0.233-0.045A0.506,0.506,0,1,0,98.4,96.08Z" transform="translate(-4.878 -7.548)" style="fill:#030104"/><path d="M108.045,98.211l-1.615-1.817-1.6,1.817h3.217Z" transform="translate(-4.878 -7.548)" style="fill:#030104"/><path d="M99.42,95.347l0.593,0.666h1.016Z" transform="translate(-4.878 -7.548)" style="fill:#030104"/><path d="M121.046,98.957a2.275,2.275,0,1,0,2.275,2.275v-0.01A2.3,2.3,0,0,0,121.046,98.957Z" transform="translate(-4.878 -7.548)" style="fill:#030104"/><path d="M63.208,24.209c-0.094-.032-0.187-0.067-0.279-0.1A1.808,1.808,0,0,0,63.208,24.209Z" transform="translate(-4.878 -7.548)" style="fill:#030104"/><path d="M62.33,23.715q-0.11-.076-0.218-0.154A2.138,2.138,0,0,0,62.33,23.715Z" transform="translate(-4.878 -7.548)" style="fill:#030104"/><path d="M59.1,16.6c0-.071.009-0.143,0.016-0.214A1.723,1.723,0,1,0,59.1,16.6Z" transform="translate(-4.878 -7.548)" style="fill:#030104"/><path d="M63.806,24.373H63.795C63.263,24.345,64.315,24.469,63.806,24.373Z" transform="translate(-4.878 -7.548)" style="fill:#030104"/><path d="M59.829,20.393c-0.019-.045-0.036-0.092-0.054-0.137Q59.678,20.04,59.829,20.393Z" transform="translate(-4.878 -7.548)" style="fill:#030104"/><path d="M59.131,18.05c-0.007-.056-0.012-0.112-0.017-0.167C59.091,17.726,59.077,17.618,59.131,18.05Z" transform="translate(-4.878 -7.548)" style="fill:#030104"/><path d="M61.052,22.45l-0.143-.176C60.99,22.375,61.033,22.427,61.052,22.45Z" transform="translate(-4.878 -7.548)" style="fill:#030104"/><path d="M64.4,24.372H64.393C63.887,24.485,64.935,24.326,64.4,24.372Z" transform="translate(-4.878 -7.548)" style="fill:#030104"/><path d="M69.083,17.876c-0.005.058-.008,0.116-0.014,0.174C69.113,17.626,69.1,17.724,69.083,17.876Z" transform="translate(-4.878 -7.548)" style="fill:#030104"/><path d="M59.442,15.182c0.105-.329-0.222.491,0,0h0Z" transform="translate(-4.878 -7.548)" style="fill:#030104"/><path d="M68.424,20.258c-0.018.045-.035,0.091-0.053,0.136Q68.522,20.038,68.424,20.258Z" transform="translate(-4.878 -7.548)" style="fill:#030104"/><path d="M65.27,24.107c-0.077.032-.155,0.061-0.233,0.089A0.77,0.77,0,1,0,65.27,24.107Z" transform="translate(-4.878 -7.548)" style="fill:#030104"/><path d="M67.29,22.275c-0.045.058-.092,0.115-0.139,0.172S67.134,22.476,67.29,22.275Z" transform="translate(-4.878 -7.548)" style="fill:#030104"/><path d="M66.088,23.561c-0.052.04-.107,0.078-0.161,0.115A1.566,1.566,0,1,0,66.088,23.561Z" transform="translate(-4.878 -7.548)" style="fill:#030104"/><path d="M68.744,15.16c0.028,0.059.057,0.118,0.083,0.177A0.521,0.521,0,1,0,68.744,15.16Z" transform="translate(-4.878 -7.548)" style="fill:#030104"/><path d="M68.082,14.028c0.045,0.054.091,0.107,0.136,0.162C68.143,14.1,68.1,14.049,68.082,14.028Z" transform="translate(-4.878 -7.548)" style="fill:#030104"/><path d="M69.1,16.495c0.008,0.047.017,0.094,0.024,0.141C69.116,16.573,69.108,16.528,69.1,16.495Z" transform="translate(-4.878 -7.548)" style="fill:#030104"/><path d="M59.982,14.19c0.044-.058.092-0.112,0.139-0.168A0.424,0.424,0,1,0,59.982,14.19Z" transform="translate(-4.878 -7.548)" style="fill:#030104"/><path d="M67.036,13.025c0.057,0.039.115,0.077,0.171,0.117A1.772,1.772,0,1,0,67.036,13.025Z" transform="translate(-4.878 -7.548)" style="fill:#030104"/><path d="M71.4,14.834a2.275,2.275,0,1,0,2.275,2.275A2.3,2.3,0,0,0,71.4,14.834Z" transform="translate(-4.878 -7.548)" style="fill:#030104"/><path d="M58.848,26.723a8.194,8.194,0,0,0,5.1,2.207,7.842,7.842,0,0,0,5.28-2.1,13.377,13.377,0,0,0,4.447-9.722h0a2.275,2.275,0,0,1-4.55,0c0,0.257-.018.512-0.041,0.767,0.019-.153.03-0.25-0.014,0.174,0.006-.058.009-0.116,0.014-0.174-0.01.079-.022,0.173-0.03,0.217-0.029.165-.066,0.328-0.1,0.492-0.075.334-.173,0.663-0.278,0.989-0.053.166-.114,0.33-0.174,0.493-0.024.064-.05,0.127-0.075,0.191q0.1-.22-0.053.136c0.018-.045.035-0.091,0.053-0.136l-0.034.078a12.252,12.252,0,0,1-1.043,1.84c-0.03.044-.153,0.211-0.2,0.271,0.047-.057.094-0.114,0.139-0.172-0.156.2-.173,0.22-0.139,0.172q-0.094.113-.19,0.225a9.093,9.093,0,0,1-.827.834c-0.036.033-.14,0.116-0.207,0.17,0.054-.037.108-0.075,0.161-0.115a1.566,1.566,0,1,1-.161.115q-0.116.08-.234,0.157c-0.132.086-.269,0.163-0.407,0.239-0.05.028-.178,0.088-0.249,0.123,0.079-.027.156-0.056,0.233-0.089a0.77,0.77,0,1,1-.233.089,5.726,5.726,0,0,1-.638.176H64.4c0.531-.046-0.518.113-0.011,0a4.434,4.434,0,0,1-.587,0c0.509,0.1-.544-0.028-0.011,0H63.8c-0.149-.028-0.295-0.07-0.44-0.112-0.051-.015-0.1-0.033-0.152-0.05a1.808,1.808,0,0,1-.279-0.1c0.092,0.036.185,0.07,0.279,0.1-0.029-.016-0.225-0.1-0.295-0.137a5.568,5.568,0,0,1-.584-0.358,2.138,2.138,0,0,1-.218-0.154q0.108,0.078.218,0.154c-0.029-.025-0.211-0.163-0.264-0.209-0.168-.145-0.326-0.3-0.482-0.46-0.187-.189-0.362-0.39-0.531-0.6-0.02-.023-0.062-0.075-0.143-0.176l0.143,0.176c0.068,0.079-.156-0.213-0.2-0.275-0.1-.144-0.2-0.292-0.289-0.44-0.19-.3-0.359-0.609-0.522-0.922-0.082-.157-0.157-0.317-0.232-0.477l-0.035-.079c0.018,0.046.035,0.092,0.054,0.137q-0.151-.354-0.054-0.137c-0.025-.063-0.051-0.126-0.074-0.189a11.544,11.544,0,0,1-.554-1.974c-0.008-.041-0.021-0.131-0.032-0.21,0.005,0.056.01,0.112,0.017,0.167-0.053-.432-0.039-0.324-0.017-0.167q-0.014-.154-0.025-0.308A7.24,7.24,0,0,1,59.1,16.6a1.723,1.723,0,1,1,.016-0.214C59.1,16.456,59.1,16.528,59.1,16.6c0.01-.085.028-0.257,0.038-0.313,0.032-.173.077-0.343,0.121-0.513s0.1-.333.157-0.5c0.013-.039.023-0.069,0.031-0.094-0.222.491,0.105-.329,0,0v0a7.284,7.284,0,0,1,.5-0.9c0.029-.045.136-0.195,0.181-0.26-0.047.055-.095,0.11-0.139,0.168a0.424,0.424,0,1,1,.139-0.168q0.149-.176.307-0.345A6.586,6.586,0,0,1,61,13.141c0.023-.02.077-0.065,0.181-0.15q-0.091.074-.181,0.15a3.076,3.076,0,0,0,.273-0.191c0.142-.095.291-0.18,0.439-0.264s0.293-.154.443-0.226c-0.278.094,0.5-.238,0.016-0.008l-0.016.008,0.111-.039a7.175,7.175,0,0,1,1.153-.3l-0.043,0q0.463-.071.075-0.009l-0.032.006c0.105-.01.211-0.018,0.316-0.023,0.243-.015.486-0.009,0.729,0,0.106,0.005.211,0.014,0.317,0.023l-0.032-.006q-0.388-.061.075,0.009l-0.043,0c0.221,0.037.438,0.09,0.654,0.147,0.153,0.04.3,0.09,0.451,0.142,0.02,0.006.081,0.027,0.21,0.074l-0.21-.074c-0.067-.019.364,0.155,0.45,0.2,0.2,0.1.4,0.223,0.59,0.345,0.037,0.024.073,0.05,0.11,0.075a1.772,1.772,0,1,1,.171.117c-0.056-.04-0.114-0.078-0.171-0.117,0.066,0.048.2,0.148,0.244,0.183a6.951,6.951,0,0,1,.8.82c0.02,0.021.061,0.07,0.136,0.162-0.044-.055-0.09-0.108-0.136-0.162a4.277,4.277,0,0,0,.269.4c0.122,0.193.228,0.4,0.332,0.6,0.022,0.044.042,0.09,0.063,0.134a0.521,0.521,0,1,1,.083.177c-0.026-.06-0.055-0.118-0.083-0.177l0.044,0.116c0.08,0.218.142,0.443,0.2,0.667,0.048,0.182.082,0.367,0.113,0.552,0.006,0.033.014,0.079,0.024,0.141-0.008-.047-0.016-0.094-0.024-0.141a2.111,2.111,0,0,0,.022.615,2.275,2.275,0,0,1,4.55,0h0a9.57,9.57,0,1,0-19.093.941A13.765,13.765,0,0,0,58.848,26.723Z" transform="translate(-4.878 -7.548)" style="fill:#030104"/><path d="M61,13.141q0.09-.076.181-0.15C61.077,13.076,61.023,13.121,61,13.141Z" transform="translate(-4.878 -7.548)" style="fill:#030104"/><path d="M62.155,12.46l0.016-.008C62.651,12.222,61.877,12.554,62.155,12.46Z" transform="translate(-4.878 -7.548)" style="fill:#030104"/><path d="M65.886,12.406l0.21,0.074C65.967,12.433,65.906,12.412,65.886,12.406Z" transform="translate(-4.878 -7.548)" style="fill:#030104"/><path d="M63.376,12.12l0.043,0,0.032-.006Q63.838,12.049,63.376,12.12Z" transform="translate(-4.878 -7.548)" style="fill:#030104"/><path d="M64.749,12.111l0.032,0.006,0.043,0Q64.361,12.049,64.749,12.111Z" transform="translate(-4.878 -7.548)" style="fill:#030104"/><path d="M71.882,34.155l0.055,0.01h0.021Q72.351,34.21,71.882,34.155Z" transform="translate(-4.878 -7.548)" style="fill:#030104"/><path d="M76.058,37.318l0.051,0.108Z" transform="translate(-4.878 -7.548)" style="fill:#030104"/><path d="M74.391,35.181l0.1,0.067Z" transform="translate(-4.878 -7.548)" style="fill:#030104"/><path d="M73.261,34.525c0.455,0.16-.382-0.181,0,0h0Z" transform="translate(-4.878 -7.548)" style="fill:#030104"/><path d="M76.387,38.462q0.024,0.122.047,0.245A0.621,0.621,0,0,0,76.387,38.462Z" transform="translate(-4.878 -7.548)" style="fill:#030104"/><path d="M69.485,34.133h1.021l0.588-.666Z" transform="translate(-4.878 -7.548)" style="fill:#030104"/><path d="M65.73,36.331l-1.615-1.817-1.6,1.817H65.73Z" transform="translate(-4.878 -7.548)" style="fill:#030104"/><path d="M49.468,47.465H78.731a2.3,2.3,0,0,0,2.275-2.275V39.352a2.275,2.275,0,1,1-4.55,0v3.563h2.275L76.456,45.19V42.915H51.743V45.19l-2.275-2.275h2.275v-3.53c0-.132,0-0.264.009-0.4q0.008-.175.025-0.35c-0.066.325,0.047-.566,0-0.009v0.009c0.005-.027.012-0.061,0.02-0.106,0.041-.23.1-0.455,0.164-0.68,0.03-.108.238-0.643,0.216-0.615-0.03.062-.059,0.124-0.087,0.188,0.055-.125.08-0.179,0.087-0.188,0.094-.194.2-0.383,0.308-0.569,0.052-.089.348-0.507,0.354-0.533-0.044.052-.089,0.1-0.13,0.157a0.9,0.9,0,0,1,.13-0.157,7.876,7.876,0,0,1,.924-0.923l-0.05.035q0.351-.28.059-0.043l-0.009.008c0.121-.087.246-0.169,0.372-0.25a7.453,7.453,0,0,1,.747-0.411l0.036-.016-0.107.04c0.262-.113.3-0.126,0.107-0.04,0.072-.027.144-0.055,0.216-0.08a7.45,7.45,0,0,1,.838-0.234l0.112-.022a0.51,0.51,0,1,1,.233-0.045c-0.078.013-.156,0.029-0.233,0.045,0.075-.011.273-0.043,0.336-0.048,0.2-.016.392-0.019,0.588-0.019H57.7L57.1,33.466l1.609,0.666H57.7l4.816,5.415a2.275,2.275,0,0,0,3.217,0l4.775-5.415H69.485l1.609-.666-0.588.666h0.719c0.238,0,.475.013,0.713,0.033l-0.055-.01q0.469,0.055.076,0.012H71.937c0.155,0.026.308,0.06,0.461,0.1a7.457,7.457,0,0,1,.83.253l0.032,0.011c-0.382-.181.455,0.16,0,0l0.057,0.027c0.155,0.072.3,0.154,0.454,0.237a6.922,6.922,0,0,1,.619.393l0.1,0.067-0.1-.067a1.786,1.786,0,0,0,.415.362,7.53,7.53,0,0,1,.576.616c-0.189-.278.348,0.408,0,0h0l0.056,0.081c0.1,0.139.187,0.284,0.276,0.429a6.884,6.884,0,0,1,.343.649l0.051,0.108-0.051-.108a1.617,1.617,0,0,0,.18.535c0.061,0.2.108,0.4,0.149,0.609a0.621,0.621,0,0,1,.047.245q-0.022-.123-0.047-0.245c0.009,0.064.044,0.281,0.05,0.347,0.015,0.181.017,0.362,0.02,0.543a2.275,2.275,0,0,1,4.55,0A9.763,9.763,0,0,0,71.6,29.591a9.007,9.007,0,0,0-2.719.073,3.778,3.778,0,0,0-1.748,1.429l-1.852,2.1-1.165,1.321,1.615,1.817H62.513l1.6-1.817L62.768,33,60.9,30.894a2.849,2.849,0,0,0-2.279-1.311,21.4,21.4,0,0,0-3.334.158,9.973,9.973,0,0,0-4.6,2.14,9.779,9.779,0,0,0-3.492,7.7V45.19A2.3,2.3,0,0,0,49.468,47.465Z" transform="translate(-4.878 -7.548)" style="fill:#030104"/><path d="M78.731,37.077a2.275,2.275,0,1,0,2.275,2.275v0A2.3,2.3,0,0,0,78.731,37.077Z" transform="translate(-4.878 -7.548)" style="fill:#030104"/><path d="M75.382,36.159h0C75.731,36.567,75.193,35.882,75.382,36.159Z" transform="translate(-4.878 -7.548)" style="fill:#030104"/><path d="M51.743,45.19V42.915H49.468Z" transform="translate(-4.878 -7.548)" style="fill:#030104"/><path d="M51.777,38.639V38.63C51.824,38.074,51.711,38.965,51.777,38.639Z" transform="translate(-4.878 -7.548)" style="fill:#030104"/><path d="M52.09,37.426c0.028-.063.057-0.126,0.087-0.188C52.17,37.247,52.144,37.3,52.09,37.426Z" transform="translate(-4.878 -7.548)" style="fill:#030104"/><path d="M78.731,42.915H76.456V45.19Z" transform="translate(-4.878 -7.548)" style="fill:#030104"/><path d="M56.083,34.2c0.078-.016.155-0.032,0.233-0.045A0.51,0.51,0,1,0,56.083,34.2Z" transform="translate(-4.878 -7.548)" style="fill:#030104"/><path d="M57.1,33.466L57.7,34.133h1.016Z" transform="translate(-4.878 -7.548)" style="fill:#030104"/><path d="M52.708,36.292c0.042-.054.087-0.1,0.13-0.157A0.9,0.9,0,0,0,52.708,36.292Z" transform="translate(-4.878 -7.548)" style="fill:#030104"/><path d="M54.809,34.575l0.107-.04C55.1,34.45,55.071,34.462,54.809,34.575Z" transform="translate(-4.878 -7.548)" style="fill:#030104"/><path d="M53.712,35.248l0.05-.035,0.009-.008Q54.063,34.968,53.712,35.248Z" transform="translate(-4.878 -7.548)" style="fill:#030104"/><path d="M37.09,38.712l0.157-.124Z" transform="translate(-4.878 -7.548)" style="fill:#030104"/><path d="M18.124,66.052a2.288,2.288,0,0,0,2.8-1.589,47.944,47.944,0,0,1,1.295-4.775c0.244-.746.512-1.484,0.794-2.216,0.116-.3.238-0.6,0.361-0.9-0.006.014,0.011-.029,0.076-0.186l-0.076.186c0.014-.03.135-0.318,0.154-0.361,0.1-.238.211-0.475,0.318-0.711a46.393,46.393,0,0,1,4.912-8.317c0.114-.155.231-0.309,0.347-0.462l0.038-.05c-0.206.261,0.276-.365,0,0l0.077-.1c0.237-.3.48-0.6,0.725-0.9,0.53-.643,1.081-1.269,1.645-1.883a46.747,46.747,0,0,1,3.435-3.36c0.576-.51,1.168-1,1.769-1.484,0.1-.079.2-0.156,0.3-0.233l0.157-.124-0.157.124c0.005,0,.271-0.207.309-0.236,0.359-.271.723-0.534,1.09-0.795A46.428,46.428,0,0,1,42.57,35.1c0.281-.159.565-0.313,0.85-0.465a2.275,2.275,0,0,0-2.3-3.929,49.153,49.153,0,0,0-24.08,30.42c-0.188.7-.355,1.414-0.509,2.126A2.311,2.311,0,0,0,18.124,66.052Z" transform="translate(-4.878 -7.548)" style="fill:#030104"/><path d="M29.142,46.669c0.276-.365-0.206.261,0,0h0Z" transform="translate(-4.878 -7.548)" style="fill:#030104"/><path d="M23.374,56.571l0.076-.186C23.385,56.541,23.367,56.585,23.374,56.571Z" transform="translate(-4.878 -7.548)" style="fill:#030104"/><path d="M58.183,117.382c-0.413-.049.309,0.046,0,0h0Z" transform="translate(-4.878 -7.548)" style="fill:#030104"/><path d="M46.92,114.306l-0.1-.045C46.762,114.238,46.765,114.24,46.92,114.306Z" transform="translate(-4.878 -7.548)" style="fill:#030104"/><path d="M85.091,112.453q-1.165.63-2.361,1.2c-0.4.19-.8,0.371-1.209,0.55l-0.368.157,0.1-.039c-0.16.067-.158,0.065-0.1,0.039q-0.363.15-.729,0.294a46.061,46.061,0,0,1-5.32,1.721c-0.876.228-1.76,0.424-2.648,0.6-0.447.089-.9,0.167-1.345,0.242-0.225.038-.451,0.072-0.677,0.107l-0.4.058c0.142-.018.125-0.016-0.056,0.008l0.056-.008L69.9,117.4a47.035,47.035,0,0,1-11.592,0l-0.127-.015c0.309,0.046-.413-0.049,0,0l-0.176-.025c-0.226-.032-0.451-0.068-0.677-0.1-0.449-.071-0.9-0.151-1.344-0.235-0.962-.18-1.917-0.4-2.865-0.64a46.037,46.037,0,0,1-5.309-1.713c-0.207-.08-0.412-0.164-0.618-0.247l-0.375-.157,0.1,0.045c-0.155-.066-0.159-0.068-0.1-0.045-0.372-.161-0.741-0.327-1.109-0.5-0.867-.4-1.717-0.833-2.557-1.286-0.322-.174-0.641-0.354-0.959-0.535a2.275,2.275,0,1,0-2.3,3.929,48.731,48.731,0,0,0,44.929,1.8c0.868-.4,1.72-0.837,2.562-1.292A2.275,2.275,0,0,0,85.091,112.453Z" transform="translate(-4.878 -7.548)" style="fill:#030104"/><path d="M70.036,117.379l-0.056.008C70.16,117.363,70.177,117.361,70.036,117.379Z" transform="translate(-4.878 -7.548)" style="fill:#030104"/><path d="M81.248,114.319l-0.1.039C81.09,114.384,81.088,114.386,81.248,114.319Z" transform="translate(-4.878 -7.548)" style="fill:#030104"/><path d="M83.638,34.049a48.241,48.241,0,0,1,4.206,2.38c0.651,0.413,1.289.846,1.919,1.29,0.314,0.222.625,0.45,0.933,0.68,0.109,0.081.217,0.164,0.325,0.246l0.135,0.1-0.135-.1c-0.054-.039.374,0.294,0.431,0.339a46.709,46.709,0,0,1,6.831,6.725c0.245,0.3.485,0.6,0.723,0.9l0.039,0.05c-0.2-.267.283,0.358,0,0l0.075,0.1c0.116,0.153.231,0.307,0.346,0.462,0.5,0.67.973,1.356,1.434,2.052a46.391,46.391,0,0,1,2.445,4.164c0.359,0.688.7,1.388,1.02,2.094,0.134,0.292.263,0.586,0.39,0.881,0-.011.016,0.035,0.081,0.187l-0.081-.187c0.009,0.024.134,0.32,0.152,0.364,0.1,0.241.193,0.483,0.288,0.726a46.057,46.057,0,0,1,1.525,4.668c0.138,0.51.264,1.023,0.385,1.538a2.276,2.276,0,0,0,4.387-1.21A49.136,49.136,0,0,0,88.324,31.4c-0.783-.452-1.581-0.875-2.389-1.281a2.314,2.314,0,0,0-3.113.816A2.286,2.286,0,0,0,83.638,34.049Z" transform="translate(-4.878 -7.548)" style="fill:#030104"/><path d="M99.047,46.657c0.283,0.358-.2-0.267,0,0h0Z" transform="translate(-4.878 -7.548)" style="fill:#030104"/><path d="M104.757,56.408l0.081,0.187C104.773,56.444,104.753,56.4,104.757,56.408Z" transform="translate(-4.878 -7.548)" style="fill:#030104"/><path d="M91.022,38.645l0.135,0.1Z" transform="translate(-4.878 -7.548)" style="fill:#030104"/><path d="M71.709,76.14l0.007,0.014C71.941,76.64,71.607,75.858,71.709,76.14Z" transform="translate(-4.878 -7.548)" style="fill:#030104"/><path d="M72.249,78.023c0.01,0.078.018,0.157,0.026,0.235A0.477,0.477,0,1,0,72.249,78.023Z" transform="translate(-4.878 -7.548)" style="fill:#030104"/><path d="M69.064,72.76c0.044,0.034.085,0.072,0.128,0.106C69.287,72.937,69.325,72.964,69.064,72.76Z" transform="translate(-4.878 -7.548)" style="fill:#030104"/><path d="M70.645,74.318c0.325,0.387-.223-0.311,0,0h0Z" transform="translate(-4.878 -7.548)" style="fill:#030104"/><path d="M67.241,71.746l0.172,0.065Z" transform="translate(-4.878 -7.548)" style="fill:#030104"/><path d="M65.306,71.231c0.55,0.052-.369-0.065,0,0h0Z" transform="translate(-4.878 -7.548)" style="fill:#030104"/><path d="M69.209,85.7c-0.043.032-.086,0.062-0.129,0.093C69,85.851,68.981,85.866,69.209,85.7Z" transform="translate(-4.878 -7.548)" style="fill:#030104"/><path d="M62.953,71.251c0.075-.01.151-0.017,0.227-0.025A0.818,0.818,0,1,0,62.953,71.251Z" transform="translate(-4.878 -7.548)" style="fill:#030104"/><path d="M76.185,83.4A12.662,12.662,0,1,0,59,90.809a2.33,2.33,0,0,0,3.113-.816A2.279,2.279,0,0,0,61.3,86.88a11.264,11.264,0,0,1-1.908-1.062c-0.032-.022-0.143-0.108-0.22-0.167,0.034,0.029.068,0.058,0.1,0.086-0.239-.191-0.2-0.16-0.1-0.086-0.1-.088-0.208-0.177-0.31-0.268a10.435,10.435,0,0,1-.886-0.9c-0.033-.038-0.175-0.214-0.221-0.269,0.04,0.056.08,0.112,0.122,0.166-0.14-.183-0.155-0.205-0.122-0.166q-0.1-.137-0.194-0.277A10.4,10.4,0,0,1,57,83c-0.087-.161-0.166-0.326-0.244-0.491l-0.025-.052c0.141,0.372-.2-0.411,0,0L56.7,82.374a10.314,10.314,0,0,1-.384-1.239c-0.046-.182-0.082-0.366-0.118-0.55-0.009-.046-0.034-0.226-0.047-0.322,0.006,0.059.011,0.118,0.018,0.177a1.764,1.764,0,1,1-.018-0.177c-0.031-.325-0.043-0.652-0.046-0.978A10.487,10.487,0,0,1,56.16,78.2V78.192c-0.066.373,0.052-.548,0,0l0.016-.092c0.038-.232.09-0.461,0.144-0.689a10.287,10.287,0,0,1,.3-1c0.019-.054.094-0.244,0.119-0.312-0.033.071-.065,0.141-0.1,0.213,0.1-.243.115-0.268,0.1-0.213q0.059-.128.121-0.255c0.149-.308.32-0.6,0.5-0.9,0.089-.145.185-0.286,0.281-0.427,0.05-.072.1-0.142,0.152-0.212q-0.228.284,0.046-.064l-0.046.064,0-.005a10.464,10.464,0,0,1,1.438-1.438l0.014-.012c-0.312.224,0.387-.325,0,0l0.064-.047c0.138-.1.28-0.194,0.422-0.288a10.377,10.377,0,0,1,1.04-.59c0.1-.049.2-0.094,0.295-0.139l0.173-.077-0.173.077a0.558,0.558,0,0,0,.272-0.1,10.356,10.356,0,0,1,1-.3c0.171-.043.343-0.078,0.515-0.112,0.055-.011.241-0.039,0.323-0.053-0.076.008-.151,0.015-0.227,0.025a0.818,0.818,0,1,1,.227-0.025c0.344-.034.69-0.048,1.035-0.051a10.522,10.522,0,0,1,1.084.056h0.007c-0.369-.065.55,0.052,0,0L65.4,71.247c0.174,0.029.346,0.066,0.519,0.1a10.308,10.308,0,0,1,1.008.283c0.106,0.035.211,0.073,0.315,0.113l0.172,0.065-0.172-.065c-0.2-.075.323,0.139,0.415,0.184,0.308,0.149.6,0.32,0.9,0.5,0.145,0.089.286,0.185,0.427,0.281,0.036,0.025.141,0.1,0.213,0.156-0.043-.035-0.084-0.072-0.128-0.106,0.262,0.2.224,0.178,0.128,0.106A10.629,10.629,0,0,1,70.633,74.3l0.012,0.014c-0.223-.311.325,0.387,0,0l0.047,0.064c0.1,0.138.194,0.28,0.288,0.422,0.188,0.285.354,0.584,0.513,0.887,0.077,0.147.147,0.3,0.217,0.449-0.1-.282.232,0.5,0.007,0.014l-0.007-.014c0.01,0.026.023,0.061,0.041,0.108a10.345,10.345,0,0,1,.359,1.163c0.043,0.17.078,0.343,0.112,0.515,0.011,0.057.041,0.254,0.054,0.332-0.008-.078-0.016-0.157-0.026-0.235a0.477,0.477,0,1,1,.026.235c0.027,0.281.041,0.562,0.048,0.844a10.643,10.643,0,0,1-.042,1.144l-0.008.1c0.077-.481-0.028.4,0,0l-0.008.05c-0.039.247-.093,0.491-0.149,0.734a10.333,10.333,0,0,1-.318,1.063c-0.016.046-.093,0.235-0.124,0.315,0.028-.059.055-0.118,0.081-0.177a0.733,0.733,0,1,1-.081.177q-0.075.16-.153,0.317a10.352,10.352,0,0,1-.542.944c-0.1.153-.2,0.3-0.306,0.448l-0.018.024,0.045-.054c-0.162.214-.176,0.23-0.045,0.054-0.061.075-.123,0.15-0.186,0.224a10.454,10.454,0,0,1-.749.781c-0.13.125-.267,0.242-0.4,0.36-0.032.028-.161,0.127-0.236,0.185,0.043-.031.087-0.061,0.129-0.093-0.228.171-.209,0.155-0.129,0.093a10.561,10.561,0,0,1-1.916,1.077,2.279,2.279,0,0,0-.816,3.113,2.328,2.328,0,0,0,3.113.816A12.8,12.8,0,0,0,76.185,83.4Z" transform="translate(-4.878 -7.548)" style="fill:#030104"/><path d="M72.273,80.344c-0.028.4,0.077-.481,0,0h0Z" transform="translate(-4.878 -7.548)" style="fill:#030104"/><path d="M70.7,84.185l-0.045.054C70.523,84.416,70.537,84.4,70.7,84.185Z" transform="translate(-4.878 -7.548)" style="fill:#030104"/><path d="M71.755,82.328c-0.026.06-.054,0.119-0.081,0.177A0.733,0.733,0,1,0,71.755,82.328Z" transform="translate(-4.878 -7.548)" style="fill:#030104"/><path d="M61.069,71.791l0.173-.077Z" transform="translate(-4.878 -7.548)" style="fill:#030104"/><path d="M56.168,80.44c-0.007-.059-0.012-0.118-0.018-0.177A1.764,1.764,0,1,0,56.168,80.44Z" transform="translate(-4.878 -7.548)" style="fill:#030104"/><path d="M57.877,84.376c-0.042-.054-0.082-0.11-0.122-0.166C57.722,84.171,57.737,84.194,57.877,84.376Z" transform="translate(-4.878 -7.548)" style="fill:#030104"/><path d="M56.731,82.455c-0.2-.411.141,0.372,0,0h0Z" transform="translate(-4.878 -7.548)" style="fill:#030104"/><path d="M59.274,85.736c-0.035-.028-0.068-0.057-0.1-0.086C59.076,85.576,59.035,85.545,59.274,85.736Z" transform="translate(-4.878 -7.548)" style="fill:#030104"/><path d="M56.644,76.312c0.03-.072.063-0.143,0.1-0.213C56.759,76.044,56.747,76.069,56.644,76.312Z" transform="translate(-4.878 -7.548)" style="fill:#030104"/><path d="M57.792,74.309l0.046-.064Q57.564,74.594,57.792,74.309Z" transform="translate(-4.878 -7.548)" style="fill:#030104"/><path d="M59.248,72.854c0.387-.325-0.312.224,0,0h0Z" transform="translate(-4.878 -7.548)" style="fill:#030104"/><path d="M56.161,78.192c0.052-.548-0.066.373,0,0h0Z" transform="translate(-4.878 -7.548)" style="fill:#030104"/><path d="M66.49,62.291V58a2.275,2.275,0,0,0-4.55,0v4.287A2.275,2.275,0,0,0,66.49,62.291Z" transform="translate(-4.878 -7.548)" style="fill:#030104"/><path d="M70.388,94.608a2.3,2.3,0,0,0-2.275-2.275h-7.8a2.275,2.275,0,1,0,0,4.55h7.8A2.3,2.3,0,0,0,70.388,94.608Z" transform="translate(-4.878 -7.548)" style="fill:#030104"/><path d="M48.982,79.8a2.3,2.3,0,0,0-2.275-2.275H42.42a2.275,2.275,0,0,0,0,4.55h4.287A2.3,2.3,0,0,0,48.982,79.8Z" transform="translate(-4.878 -7.548)" style="fill:#030104"/><path d="M88.284,79.8a2.3,2.3,0,0,0-2.275-2.275H81.722a2.275,2.275,0,1,0,0,4.55h4.287A2.3,2.3,0,0,0,88.284,79.8Z" transform="translate(-4.878 -7.548)" style="fill:#030104"/><path d="M50.226,69.028a2.275,2.275,0,0,0,3.217-3.217l-3.031-3.031A2.275,2.275,0,1,0,47.2,66Z" transform="translate(-4.878 -7.548)" style="fill:#030104"/><path d="M78.017,96.818A2.275,2.275,0,0,0,81.234,93.6L78.2,90.57a2.275,2.275,0,0,0-3.217,3.217Z" transform="translate(-4.878 -7.548)" style="fill:#030104"/><path d="M78.017,62.779L74.986,65.81A2.275,2.275,0,0,0,78.2,69.028L81.234,66A2.275,2.275,0,0,0,78.017,62.779Z" transform="translate(-4.878 -7.548)" style="fill:#030104"/><path d="M50.412,96.818l3.031-3.031a2.275,2.275,0,0,0-3.217-3.217L47.2,93.6A2.275,2.275,0,1,0,50.412,96.818Z" transform="translate(-4.878 -7.548)" style="fill:#030104"/><path d="M66.442,98.234H61.987a2.275,2.275,0,0,0,0,4.55h4.455A2.275,2.275,0,0,0,66.442,98.234Z" transform="translate(-4.878 -7.548)" style="fill:#030104"/></svg>