<svg id="Desktop" xmlns="http://www.w3.org/2000/svg" viewBox="0 0 119.67 119.67"><title>instagram</title><path d="M90.81,3.47H37.19a33.06,33.06,0,0,0-33,33V90.12a33.06,33.06,0,0,0,33,33H90.81a33.06,33.06,0,0,0,33-33V36.5A33.06,33.06,0,0,0,90.81,3.47Zm22.41,86.64a22.43,22.43,0,0,1-22.41,22.41H37.19A22.43,22.43,0,0,1,14.78,90.12V36.5A22.43,22.43,0,0,1,37.19,14.09H90.81A22.43,22.43,0,0,1,113.22,36.5V90.12h0Z" transform="translate(-4.17 -3.47)" style="fill:#010002"/><path d="M64,32.47A30.83,30.83,0,1,0,94.84,63.31,30.87,30.87,0,0,0,64,32.47Zm0,51.05A20.22,20.22,0,1,1,84.22,63.31,20.24,20.24,0,0,1,64,83.52Z" transform="translate(-4.17 -3.47)" style="fill:#010002"/><path d="M96.13,23.47a7.78,7.78,0,1,0,5.51,2.28A7.82,7.82,0,0,0,96.13,23.47Z" transform="translate(-4.17 -3.47)" style="fill:#010002"/></svg>