<svg id="Desktop" xmlns="http://www.w3.org/2000/svg" viewBox="0 0 119.34 119.34"><title>internacional</title><path d="M64.29,3.8a59.67,59.67,0,1,0,59.67,59.67A59.723,59.723,0,0,0,64.29,3.8Zm0,7.02a52.65,52.65,0,1,1-52.65,52.65A52.6,52.6,0,0,1,64.29,10.819Z" transform="translate(-4.62 -3.799)" style="fill:#050206"/><path d="M60.78,7.309v112.32H67.8V7.309H60.78Z" transform="translate(-4.62 -3.799)" style="fill:#050206"/><path d="M8.13,59.959v7.02H120.45v-7.02H8.13Z" transform="translate(-4.62 -3.799)" style="fill:#050206"/><path d="M64.29,3.8c-10.41,0-19.3,7.422-25.393,18.249S29.19,47.427,29.19,63.469,32.807,94.075,38.9,104.9s14.983,18.236,25.393,18.236,19.3-7.407,25.393-18.236S99.39,79.511,99.39,63.469s-3.617-30.593-9.707-41.421S74.7,3.8,64.29,3.8Zm0,7.02c7.037,0,13.935,5.173,19.278,14.671s8.8,23,8.8,37.979-3.46,28.495-8.8,37.993-12.24,14.657-19.278,14.657-13.935-5.159-19.278-14.657-8.8-23.018-8.8-37.993,3.46-28.481,8.8-37.979S57.253,10.819,64.29,10.819Z" transform="translate(-4.62 -3.799)" style="fill:#050206"/><path d="M13.4,33.634v7.02h101.79v-7.02H13.4Z" transform="translate(-4.62 -3.799)" style="fill:#050206"/><path d="M13.4,86.284V93.3h101.79v-7.02H13.4Z" transform="translate(-4.62 -3.799)" style="fill:#050206"/></svg>