<svg id="Desktop" xmlns="http://www.w3.org/2000/svg" viewBox="0 0 121.01 108.633"><title>libro</title><path d="M123.236,28.864H106.5V11.427a1.6,1.6,0,0,0-2.274-1.45l-39.9,18.608L24.428,9.976a1.6,1.6,0,0,0-2.275,1.45V28.864H5.422a1.6,1.6,0,0,0-1.6,1.6v86.4a1.6,1.6,0,0,0,1.6,1.6H123.235a1.6,1.6,0,0,0,1.6-1.6v-86.4A1.6,1.6,0,0,0,123.236,28.864Zm-97.885,1.6V13.936L63.37,31.665v82.87L25.351,96.811V30.462Zm39.937,1.2,38.019-17.729V96.811L65.288,114.534V31.665Zm-58.266.4H23.433V51.068l-6.775.012a0.96,0.96,0,0,0,0,1.919h0l6.77-.013V72.667l-6.775.016a0.96,0.96,0,0,0,0,1.919h0l6.77-.016V94.269l-6.775.011a0.961,0.961,0,0,0,0,1.922h0l6.77-.016v1.236a0.962,0.962,0,0,0,.552.867l36.406,16.979H7.022V32.06Zm114.616,83.207H68.265l36.408-16.979a0.952,0.952,0,0,0,.55-0.867V96.185L112,96.2h0a0.961,0.961,0,0,0,0-1.922l-6.779-.011V74.588L112,74.6h0a0.96,0.96,0,0,0,0-1.919l-6.779-.016V52.987L112,53h0a0.96,0.96,0,0,0,0-1.919l-6.779-.012V32.06h16.416v83.207Z" transform="translate(-3.824 -9.828)" style="fill:#010002"/><path d="M32.087,37.972l23.1,10.769a0.959,0.959,0,0,0,1.274-.462A0.961,0.961,0,0,0,55.994,47L32.9,36.233A0.959,0.959,0,1,0,32.087,37.972Z" transform="translate(-3.824 -9.828)" style="fill:#010002"/><path d="M55.994,68.6L32.9,57.832a0.958,0.958,0,1,0-.809,1.738l23.1,10.769a0.93,0.93,0,0,0,.406.091A0.958,0.958,0,0,0,55.994,68.6Z" transform="translate(-3.824 -9.828)" style="fill:#010002"/><path d="M55.994,90.207L32.9,79.433a0.96,0.96,0,0,0-.809,1.74l23.1,10.771A0.958,0.958,0,1,0,55.994,90.207Z" transform="translate(-3.824 -9.828)" style="fill:#010002"/><path d="M73.069,48.832a0.973,0.973,0,0,0,.407-0.091l23.1-10.769a0.96,0.96,0,1,0-.812-1.739L72.661,47A0.961,0.961,0,0,0,73.069,48.832Z" transform="translate(-3.824 -9.828)" style="fill:#010002"/><path d="M95.759,57.832L72.66,68.6a0.958,0.958,0,1,0,.814,1.735l23.1-10.769A0.959,0.959,0,0,0,95.759,57.832Z" transform="translate(-3.824 -9.828)" style="fill:#010002"/><path d="M95.759,79.433L72.66,90.207a0.958,0.958,0,0,0,.407,1.826,0.99,0.99,0,0,0,.407-0.089l23.1-10.771A0.96,0.96,0,0,0,95.759,79.433Z" transform="translate(-3.824 -9.828)" style="fill:#010002"/></svg>