<svg id="Desktop" xmlns="http://www.w3.org/2000/svg" viewBox="0 0 120.79 115.42"><title>linkedin</title><path id="LinkedIn" d="M124.42,77.29v44.66H98.53V80.28c0-10.47-3.74-17.61-13.12-17.61-7.15,0-11.41,4.81-13.28,9.47a17.72,17.72,0,0,0-.86,6.31v43.49H45.37s0.35-70.57,0-77.88h25.9v11l-0.17.25h0.17V55.1c3.44-5.3,9.58-12.87,23.34-12.87C111.64,42.23,124.42,53.36,124.42,77.29ZM18.28,6.52C9.42,6.52,3.62,12.33,3.62,20c0,7.48,5.63,13.46,14.31,13.46h0.17c9,0,14.65-6,14.65-13.46C32.59,12.33,27.14,6.52,18.28,6.52ZM5.16,121.94H31.05V44.06H5.16v77.88Z" transform="translate(-3.62 -6.52)" style="fill:#010002"/></svg>