<svg id="Desktop" xmlns="http://www.w3.org/2000/svg" viewBox="0 0 119.787 69.253"><title>maestria</title><path d="M41.063,73.362L13.909,77.24c-1.014-2.519-2.19-7.678-2.19-14.584s1.175-12.065,2.19-14.584l21.06,3.01a11.1,11.1,0,0,1,1.913-3.2,11.344,11.344,0,0,1,0-4.084L11.719,40.2c-4.133,0-7.487,10.058-7.487,22.46s3.354,22.46,7.487,22.46l35.854-5.121a11.263,11.263,0,0,1-3.414-4.93A11.2,11.2,0,0,1,41.063,73.362Z" transform="translate(-4.232 -28.966)" style="fill:#050206"/><path d="M116.533,40.2L91.366,43.789a11.26,11.26,0,0,1,0,4.084,11.2,11.2,0,0,1,1.913,3.2l21.064-3.01c1.014,2.523,2.19,7.681,2.19,14.588s-1.175,12.065-2.19,14.584L87.185,73.362a11.271,11.271,0,0,1-3.1,1.7,11.2,11.2,0,0,1-3.414,4.934l35.858,5.125c4.133,0,7.487-10.058,7.487-22.46S120.666,40.2,116.533,40.2Z" transform="translate(-4.232 -28.966)" style="fill:#050206"/><path d="M86.818,68.271a7.456,7.456,0,0,0,.273-6.944,7.473,7.473,0,0,0,0-12.312,7.466,7.466,0,0,0-6.15-10.657A7.468,7.468,0,0,0,70.284,32.2a7.477,7.477,0,0,0-12.316,0,7.466,7.466,0,0,0-10.657,6.15,7.479,7.479,0,0,0-6.158,10.665,7.473,7.473,0,0,0,0,12.312A7.418,7.418,0,0,0,47.3,71.936a7.481,7.481,0,0,0,3.721,5.929,7.369,7.369,0,0,0,1.872.76V96.9a1.326,1.326,0,0,0,2.261.936l8.969-8.973L73.1,97.828a1.326,1.326,0,0,0,2.261-.936V78.621a7.344,7.344,0,0,0,1.868-.76,7.472,7.472,0,0,0,3.721-5.929A7.419,7.419,0,0,0,86.818,68.271ZM64.126,66.4a11.23,11.23,0,1,1,11.23-11.23A11.234,11.234,0,0,1,64.126,66.4Z" transform="translate(-4.232 -28.966)" style="fill:#050206"/></svg>