<svg id="Capa_1" data-name="Capa 1" xmlns="http://www.w3.org/2000/svg" viewBox="0 0 120.96 113.725"><title>mail</title><path d="M40,79.311L64.354,99.533,64.3,99.58ZM64.328,94.746L42.337,76.485l21.943,18.3ZM124.3,47.022v73.826H3.34V47.015l12.932-8.477V18.3H47.143L64.2,7.122,81.042,18.3H111.36V38.431Zm-12.939,7.987,8.061-6.826-8.061-5.352V55.009ZM53.828,18.3H74.416l-10.228-6.79ZM19.937,57.8l22.4,18.683,21.943,18.3,0.048-.042L107.7,57.812V21.968H19.937V57.8ZM8.249,48.18l8.022,6.662V42.922Zm112.385,3.778L64.4,99.572l-0.047-.039L40,79.311,7,51.908v65.275H120.636V51.958h0ZM63.547,75.318C54.05,75.318,46,68.366,46,57.245,46,45.313,54.279,35,67.141,35c10.077,0,16.854,7.065,16.854,16.738,0,8.689-4.867,13.788-10.311,13.788-2.318,0-4.461-1.564-4.285-5.1H69.166c-2.027,3.418-4.693,5.1-8.167,5.1-3.359,0-6.255-2.724-6.255-7.3A13.677,13.677,0,0,1,68.472,44.5a15.262,15.262,0,0,1,6.194,1.216L72.7,56.2c-0.871,4.4-.176,6.431,1.738,6.487,2.953,0.06,6.255-3.88,6.255-10.6,0-8.4-5.039-14.422-14.018-14.422-9.44,0-17.375,7.474-17.375,19.229,0,9.673,6.311,15.639,14.885,15.639a18.066,18.066,0,0,0,8.745-2.027L73.858,73A21.119,21.119,0,0,1,63.547,75.318Zm7.125-27.341a10.067,10.067,0,0,0-2.9-.406c-5.1,0-9.208,4.806-9.208,10.427,0,2.548,1.271,4.4,3.824,4.4,3.359,0,6.427-4.285,7.065-7.879Z" transform="translate(-3.34 -7.122)" style="fill:#010002"/></svg>