<svg id="Capa_1" data-name="Capa 1" xmlns="http://www.w3.org/2000/svg" viewBox="0 0 120.805 120.591"><title>phone</title><path d="M89.746,124.312c-15.158,0-32.372-10.155-54.175-31.957C21.4,78.183,12.2,65.967,7.465,55.013,0.824,39.662,2.482,26.65,12.394,16.341c3.787-3.966,10-9.688,10.262-9.93a9.848,9.848,0,0,1,13.579.051L52.911,23.144a9.654,9.654,0,0,1,0,13.632L45.5,44.185a6.088,6.088,0,0,0,0,8.6L75.145,82.429a6.312,6.312,0,0,0,8.6,0l7.415-7.412a9.839,9.839,0,0,1,13.63,0l16.674,16.679a9.649,9.649,0,0,1,0,13.629c-0.011.013-5.236,5.6-9.871,9.858C105.3,121.23,97.941,124.312,89.746,124.312ZM29.418,7.281a6.1,6.1,0,0,0-4.3,1.7C25,9.088,18.675,14.916,14.964,18.8,6.011,28.113,4.628,39.494,10.73,53.6c4.555,10.534,13.5,22.389,27.356,36.239,21.091,21.091,37.507,30.915,51.658,30.915,7.244,0,13.775-2.747,19.413-8.165,4.561-4.188,9.7-9.681,9.747-9.735a6.1,6.1,0,0,0,.043-8.641L102.275,77.534a6.288,6.288,0,0,0-8.6,0l-7.415,7.414a9.863,9.863,0,0,1-13.632,0L42.983,55.3a9.649,9.649,0,0,1,0-13.632l7.414-7.409a6.093,6.093,0,0,0,0-8.6L33.719,8.978A6.087,6.087,0,0,0,29.418,7.281Z" transform="translate(-3.477 -3.721)" style="fill:#010002"/></svg>