<svg id="Desktop" xmlns="http://www.w3.org/2000/svg" viewBox="0 0 119.443 119.443"><title>programas</title><path d="M6.487,123.421H30.375a1.99,1.99,0,0,0,1.991-1.991v-3.981a9.957,9.957,0,0,0-5.922-9.084,11.944,11.944,0,1,0-16.025,0A9.957,9.957,0,0,0,4.5,117.449v3.981A1.99,1.99,0,0,0,6.487,123.421ZM18.431,91.57a7.963,7.963,0,1,1-7.963,7.963A7.971,7.971,0,0,1,18.431,91.57ZM8.477,117.449a5.979,5.979,0,0,1,5.972-5.972h7.963a5.979,5.979,0,0,1,5.972,5.972v1.991H8.477v-1.991Z" transform="translate(-4.496 -3.978)" style="fill:#010002"/><path d="M50.283,117.449v3.981a1.99,1.99,0,0,0,1.991,1.991H76.162a1.99,1.99,0,0,0,1.991-1.991v-3.981a9.957,9.957,0,0,0-5.922-9.084,11.944,11.944,0,1,0-16.025,0A9.957,9.957,0,0,0,50.283,117.449ZM64.218,91.57a7.963,7.963,0,1,1-7.963,7.963A7.971,7.971,0,0,1,64.218,91.57Zm-9.954,25.879a5.979,5.979,0,0,1,5.972-5.972H68.2a5.979,5.979,0,0,1,5.972,5.972v1.991H54.264v-1.991Z" transform="translate(-4.496 -3.978)" style="fill:#010002"/><path d="M118.017,108.365a11.944,11.944,0,1,0-16.025,0,9.957,9.957,0,0,0-5.922,9.084v3.981a1.99,1.99,0,0,0,1.991,1.991h23.889a1.99,1.99,0,0,0,1.991-1.991v-3.981A9.957,9.957,0,0,0,118.017,108.365ZM110,91.57a7.963,7.963,0,1,1-7.963,7.963A7.971,7.971,0,0,1,110,91.57Zm9.954,27.87H100.051v-1.991a5.979,5.979,0,0,1,5.972-5.972h7.963a5.979,5.979,0,0,1,5.972,5.972v1.991Z" transform="translate(-4.496 -3.978)" style="fill:#010002"/><path d="M110,57.727V5.968a1.99,1.99,0,0,0-1.991-1.991H20.422a1.99,1.99,0,0,0-1.991,1.991V57.727a1.99,1.99,0,0,0,1.991,1.991H46.3V65.69a1.987,1.987,0,0,0,1.2,1.824l-6.08,16.722a3.981,3.981,0,0,0,3.741,5.343h3.727a3.93,3.93,0,0,0,3.679-2.469L61.51,67.681h5.415l8.881,19.278a3.992,3.992,0,0,0,3.741,2.62h3.727a3.981,3.981,0,0,0,3.741-5.343l-6.08-16.722a1.987,1.987,0,0,0,1.2-1.824V59.718h25.879A1.99,1.99,0,0,0,110,57.727ZM48.951,85.446l-0.062,2.142V85.6H45.162l6.514-17.917h5.451Zm30.6,0.151-8.24-17.917h5.453L83.273,85.6H79.546ZM78.153,63.7H50.283V59.718h27.87V63.7Zm27.87-7.963H22.412V7.959h83.61V55.736Z" transform="translate(-4.496 -3.978)" style="fill:#010002"/><path d="M40.112,29.869a1.991,1.991,0,0,0-1.374.784L26.794,46.579l3.185,2.389L40.647,34.742,52.97,45.3a1.99,1.99,0,0,0,2.95-.408L71.846,21.006,68.534,18.8,53.854,40.818,41.623,30.335A1.977,1.977,0,0,0,40.112,29.869Z" transform="translate(-4.496 -3.978)" style="fill:#010002"/><rect x="21.898" y="7.963" width="19.907" height="3.981" style="fill:#010002"/><rect x="21.898" y="15.926" width="19.907" height="3.981" style="fill:#010002"/><rect x="69.675" y="33.842" width="3.981" height="13.935" style="fill:#010002"/><rect x="77.638" y="23.889" width="3.981" height="23.889" style="fill:#010002"/><rect x="85.601" y="11.944" width="3.981" height="35.833" style="fill:#010002"/><rect x="93.564" y="27.87" width="3.981" height="19.907" style="fill:#010002"/></svg>