<svg id="Capa_1" data-name="Capa 1" xmlns="http://www.w3.org/2000/svg" viewBox="0 0 57.316 119.121"><title>scroll-me</title><path d="M64.407,89.251a3.605,3.605,0,0,0-3.6,3.606v18.584l-5.815-5.084a3.6,3.6,0,1,0-4.745,5.423l11.791,10.314a3.734,3.734,0,0,0,.581.343c0.034,0.021.061,0.045,0.093,0.061,0.093,0.053.167,0.136,0.265,0.182,0.036,0.013.074,0.021,0.11,0.034a3.586,3.586,0,0,0,1.321.269h0a3.6,3.6,0,0,0,1.323-.269c0.034-.013.072-0.021,0.108-0.034,0.1-.045.17-0.129,0.265-0.182,0.034-.017.059-0.042,0.1-0.061a3.713,3.713,0,0,0,.579-0.343l11.791-10.314a3.6,3.6,0,1,0-4.742-5.423l-5.815,5.084V92.858A3.607,3.607,0,0,0,64.407,89.251Z" transform="translate(-35.749 -3.864)" style="fill:#030104"/><path d="M93.065,63.3V25.276A21.439,21.439,0,0,0,71.649,3.864H57.163A21.438,21.438,0,0,0,35.749,25.276V63.3A21.441,21.441,0,0,0,57.163,84.717H71.649A21.442,21.442,0,0,0,93.065,63.3Zm-7.21,0A14.222,14.222,0,0,1,71.649,77.5H57.163A14.22,14.22,0,0,1,42.959,63.3V25.276a14.22,14.22,0,0,1,14.2-14.206H71.649A14.222,14.222,0,0,1,85.855,25.276V63.3Z" transform="translate(-35.749 -3.864)" style="fill:#030104"/><path d="M64.407,22.683a3.6,3.6,0,0,0-3.6,3.6v9.858a3.6,3.6,0,0,0,7.208,0V26.285A3.6,3.6,0,0,0,64.407,22.683Z" transform="translate(-35.749 -3.864)" style="fill:#030104"/></svg>