<svg id="receta" xmlns="http://www.w3.org/2000/svg" viewBox="0 0 116.853 116.853"><title>tecnico</title><path d="M41.777,107.1l10.883,10.881L118.066,52.7,107.052,41.691Zm10.881,15.58a1.94,1.94,0,0,1-1.377-.569L37.648,108.476a1.947,1.947,0,0,1,0-2.754l68.026-68.164a1.944,1.944,0,0,1,1.377-.573h0a1.954,1.954,0,0,1,1.377.571L122.2,51.329a1.947,1.947,0,0,1,0,2.756L54.032,122.109a1.936,1.936,0,0,1-1.375.569h0Z" transform="translate(-5.916 -5.826)" style="fill:#010002"/><path d="M93.556,19.459h6.984l-6.984-6.984v6.984Zm11.685,3.9H91.608a1.947,1.947,0,0,1-1.948-1.948V7.774A1.947,1.947,0,0,1,92.985,6.4L106.618,20.03a1.947,1.947,0,0,1-1.377,3.324h0Z" transform="translate(-5.916 -5.826)" style="fill:#010002"/><path d="M47.621,46.724H84.959L66.29,28.055Zm42.04,3.9H42.92A1.947,1.947,0,0,1,41.543,47.3l23.37-23.37a1.945,1.945,0,0,1,2.754,0L91.038,47.3a1.947,1.947,0,0,1-1.377,3.324h0Z" transform="translate(-5.916 -5.826)" style="fill:#010002"/><path d="M50.71,29.2v7.835l3.9-3.6V29.2h-3.9Zm-1.3,13.633H48.762a1.947,1.947,0,0,1-1.948-1.948V27.249A1.947,1.947,0,0,1,48.762,25.3h7.79A1.947,1.947,0,0,1,58.5,27.249v7.04a1.944,1.944,0,0,1-.625,1.431l-7.142,6.592a1.961,1.961,0,0,1-1.322.516h0Z" transform="translate(-5.916 -5.826)" style="fill:#010002"/><path d="M105.673,53.276A1.942,1.942,0,0,1,104.3,52.7L98.788,47.2a1.947,1.947,0,0,1,2.754-2.754l5.508,5.508a1.948,1.948,0,0,1-1.377,3.324" transform="translate(-5.916 -5.826)" style="fill:#010002"/><path d="M101.542,62.915a1.942,1.942,0,0,1-1.377-.571L91.9,54.083a1.947,1.947,0,0,1,2.754-2.754l8.263,8.261a1.948,1.948,0,0,1-1.377,3.324" transform="translate(-5.916 -5.826)" style="fill:#010002"/><path d="M91.9,67.047a1.942,1.942,0,0,1-1.377-.571l-5.508-5.51a1.947,1.947,0,1,1,2.754-2.754l5.508,5.51A1.948,1.948,0,0,1,91.9,67.047" transform="translate(-5.916 -5.826)" style="fill:#010002"/><path d="M87.77,76.687a1.942,1.942,0,0,1-1.377-.571l-8.261-8.263A1.947,1.947,0,0,1,80.885,65.1l8.261,8.263a1.948,1.948,0,0,1-1.377,3.324" transform="translate(-5.916 -5.826)" style="fill:#010002"/><path d="M78.131,80.818a1.942,1.942,0,0,1-1.377-.571l-5.51-5.508A1.947,1.947,0,0,1,74,71.986l5.51,5.508a1.948,1.948,0,0,1-1.377,3.324" transform="translate(-5.916 -5.826)" style="fill:#010002"/><path d="M74,90.459a1.942,1.942,0,0,1-1.377-.571L64.36,81.625a1.947,1.947,0,1,1,2.754-2.754l8.261,8.263A1.948,1.948,0,0,1,74,90.459" transform="translate(-5.916 -5.826)" style="fill:#010002"/><path d="M64.36,94.589a1.942,1.942,0,0,1-1.377-.571l-5.508-5.51a1.947,1.947,0,0,1,2.754-2.754l5.508,5.51a1.948,1.948,0,0,1-1.377,3.324" transform="translate(-5.916 -5.826)" style="fill:#010002"/><path d="M60.229,104.229a1.942,1.942,0,0,1-1.377-.571L50.588,95.4a1.947,1.947,0,0,1,2.754-2.754l8.263,8.263a1.948,1.948,0,0,1-1.377,3.324" transform="translate(-5.916 -5.826)" style="fill:#010002"/><path d="M50.588,108.361a1.942,1.942,0,0,1-1.377-.571l-5.508-5.51a1.947,1.947,0,0,1,2.754-2.754l5.508,5.51a1.948,1.948,0,0,1-1.377,3.324" transform="translate(-5.916 -5.826)" style="fill:#010002"/><path d="M83.818,62.213h0ZM50.71,77.885H65.427L81.87,61.407V50.62H50.71V77.885Zm15.526,3.9H48.762a1.947,1.947,0,0,1-1.948-1.948V48.672a1.947,1.947,0,0,1,1.948-1.948H83.818a1.947,1.947,0,0,1,1.948,1.948V62.213A1.952,1.952,0,0,1,85.2,63.59L67.614,81.208a1.952,1.952,0,0,1-1.379.573h0Z" transform="translate(-5.916 -5.826)" style="fill:#010002"/><path d="M70.24,75.819h0ZM62.4,77.885h3.079l2.818-2.865V70.095H62.4v7.79Zm3.9,3.9H60.448A1.947,1.947,0,0,1,58.5,79.833V68.147A1.947,1.947,0,0,1,60.448,66.2H70.24a1.947,1.947,0,0,1,1.948,1.948v7.671a1.964,1.964,0,0,1-.559,1.367L67.679,81.2a1.954,1.954,0,0,1-1.389.58h0Z" transform="translate(-5.916 -5.826)" style="fill:#010002"/><path d="M105.241,40.747h0ZM33.182,118.783H47.956L37.648,108.475a1.945,1.945,0,0,1,0-2.752l65.648-65.782V22.212L90.8,9.721H33.182V118.783Zm19.475,3.9H31.234a1.946,1.946,0,0,1-1.948-1.948V7.773a1.947,1.947,0,0,1,1.948-1.948H91.608a1.947,1.947,0,0,1,1.377.571l13.633,13.633a1.946,1.946,0,0,1,.571,1.377V40.747a1.952,1.952,0,0,1-.569,1.377L41.776,107.1l12.258,12.256a1.947,1.947,0,0,1-1.377,3.324h0Z" transform="translate(-5.916 -5.826)" style="fill:#010002"/><path d="M57.366,118.783h45.927V72.948Zm47.874,3.9H52.657a1.947,1.947,0,0,1-1.375-3.326l52.584-52.476a1.947,1.947,0,0,1,3.323,1.379v52.476a1.947,1.947,0,0,1-1.948,1.948h0Z" transform="translate(-5.916 -5.826)" style="fill:#010002"/><path d="M9.811,97.361H17.6V13.616a3.9,3.9,0,0,0-7.79,0V97.361Zm9.738,3.9H7.864a1.947,1.947,0,0,1-1.948-1.948V13.616a7.79,7.79,0,1,1,15.58,0V99.308a1.947,1.947,0,0,1-1.948,1.948h0Z" transform="translate(-5.916 -5.826)" style="fill:#010002"/><path d="M9.811,23.354H17.6v-3.9H9.811v3.9Zm9.738,3.9H7.864A1.947,1.947,0,0,1,5.916,25.3v-7.79a1.947,1.947,0,0,1,1.948-1.948H19.549A1.947,1.947,0,0,1,21.5,17.511V25.3a1.947,1.947,0,0,1-1.948,1.948h0Z" transform="translate(-5.916 -5.826)" style="fill:#010002"/><path d="M9.811,104.8l3.9,10.386L17.6,104.8v-3.543H9.811V104.8Zm3.9,17.88a1.951,1.951,0,0,1-1.825-1.264l-5.843-15.58a1.947,1.947,0,0,1-.123-0.684V99.308A1.947,1.947,0,0,1,7.864,97.36H19.549A1.947,1.947,0,0,1,21.5,99.308v5.843a1.947,1.947,0,0,1-.123.684l-5.843,15.58a1.951,1.951,0,0,1-1.825,1.264h0Z" transform="translate(-5.916 -5.826)" style="fill:#010002"/></svg>