<svg id="Capa_1" data-name="Capa 1" xmlns="http://www.w3.org/2000/svg" viewBox="0 0 120.6 120.6"><title>transformativo</title><path d="M120.95,3.7h-13.4a3.35,3.35,0,0,0-3.35,3.35V10.4H74.05V7.05A3.35,3.35,0,0,0,70.7,3.7H57.3a3.35,3.35,0,0,0-3.35,3.35V10.4H23.8V7.05A3.35,3.35,0,0,0,20.45,3.7H7.05A3.35,3.35,0,0,0,3.7,7.05v13.4A3.35,3.35,0,0,0,7.05,23.8H10.4V53.95H7.05A3.35,3.35,0,0,0,3.7,57.3V70.7a3.35,3.35,0,0,0,3.35,3.35H10.4V104.2H7.05a3.35,3.35,0,0,0-3.35,3.35v13.4a3.35,3.35,0,0,0,3.35,3.35h13.4a3.35,3.35,0,0,0,3.35-3.35V117.6H53.95v3.35a3.35,3.35,0,0,0,3.35,3.35H70.7a3.35,3.35,0,0,0,3.35-3.35V117.6H104.2v3.35a3.35,3.35,0,0,0,3.35,3.35h13.4a3.35,3.35,0,0,0,3.35-3.35v-13.4a3.35,3.35,0,0,0-3.35-3.35H117.6V74.05h3.35a3.35,3.35,0,0,0,3.35-3.35V57.3a3.35,3.35,0,0,0-3.35-3.35H117.6V23.8h3.35a3.35,3.35,0,0,0,3.35-3.35V7.05A3.35,3.35,0,0,0,120.95,3.7Zm-60.3,6.7h6.7v6.7h-6.7V10.4ZM10.4,13.75V10.4h6.7v6.7H10.4V13.75Zm0,46.9h6.7v6.7H10.4v-6.7Zm6.7,56.95H10.4v-6.7h6.7v6.7Zm50.25,0h-6.7v-6.7h6.7v6.7Zm36.85-10.05v3.35H74.05v-3.35a3.35,3.35,0,0,0-3.35-3.35H57.3a3.35,3.35,0,0,0-3.35,3.35v3.35H23.8v-3.35a3.35,3.35,0,0,0-3.35-3.35H17.1V74.05h3.35A3.35,3.35,0,0,0,23.8,70.7V57.3a3.35,3.35,0,0,0-3.35-3.35H17.1V23.8h3.35a3.35,3.35,0,0,0,3.35-3.35V17.1H53.95v3.35A3.35,3.35,0,0,0,57.3,23.8H70.7a3.35,3.35,0,0,0,3.35-3.35V17.1H104.2v3.35a3.35,3.35,0,0,0,3.35,3.35h3.35V53.95h-3.35a3.35,3.35,0,0,0-3.35,3.35V70.7a3.35,3.35,0,0,0,3.35,3.35h3.35V104.2h-3.35A3.35,3.35,0,0,0,104.2,107.55Zm13.4,6.7v3.35h-6.7v-6.7h6.7v3.35Zm0-46.9h-6.7v-6.7h6.7v6.7Zm0-53.6V17.1h-6.7V10.4h6.7v3.35Z" transform="translate(-3.7 -3.7)" style="fill:#030104"/><path d="M74.05,60.65h-6.7v-6.7a3.35,3.35,0,1,0-6.7,0v6.7h-6.7a3.35,3.35,0,0,0,0,6.7h6.7v6.7a3.35,3.35,0,0,0,6.7,0v-6.7h6.7A3.35,3.35,0,1,0,74.05,60.65Z" transform="translate(-3.7 -3.7)" style="fill:#030104"/></svg>