<svg id="Desktop" xmlns="http://www.w3.org/2000/svg" viewBox="0 0 120.92 83.3"><title>twiiter</title><path id="Twitter_alt_" data-name="Twitter (alt)" d="M111.26,59.88c6.79-.56,11.4-3.65,13.17-7.84-2.45,1.5-10.05,3.15-14.25,1.58-0.21-1-.44-1.92-0.66-2.77-3.2-11.75-14.16-21.22-25.64-20.07,0.93-.38,1.87-0.72,2.81-1,1.26-.45,8.68-1.66,7.51-4.28-1-2.3-10,1.74-11.75,2.27,2.25-.85,6-2.3,6.37-4.89a18,18,0,0,0-9.45,4.48,6.5,6.5,0,0,0,1.81-3.59C72,29.61,66.61,41.46,62.26,53c-3.42-3.31-6.44-5.92-9.16-7.36a238.72,238.72,0,0,0-31-13.66c-0.44,4.73,2.34,11,10.35,15.2A25.32,25.32,0,0,0,25,48c1,5.42,4.41,9.88,13.54,12-4.17.28-6.33,1.23-8.29,3.27,1.9,3.77,6.54,8.21,14.89,7.29-9.28,4-3.78,11.41,3.77,10.3A32.06,32.06,0,0,1,4,82.15c30.45,41.49,96.63,24.54,106.49-15.42,7.39,0.06,11.73-2.56,14.43-5.45A29.44,29.44,0,0,1,111.26,59.88Z" transform="translate(-4.04 -22.85)" style="fill:#010002"/></svg>