<svg id="basico" xmlns="http://www.w3.org/2000/svg" viewBox="0 0 76.149 119.189"><title>upload</title><path d="M30.963,114.329a4.966,4.966,0,1,0,0,9.932H97.179a4.966,4.966,0,0,0,0-9.932H30.963Z" transform="translate(-25.997 -5.072)" style="fill:#010002"/><path d="M64.08,5.072a5.567,5.567,0,0,1,3.414,1.345L95.637,32.9c1.613,1.795,2.279,5.236.414,7.242a5.173,5.173,0,0,1-7.243-.051L69.046,21.471v84.581a4.966,4.966,0,0,1-9.933,0V21.471L39.351,40.095c-1.7,1.695-5.385,2.008-7.243.051s-1.264-5.521.414-7.242L60.665,6.417A4.776,4.776,0,0,1,64.08,5.072Z" transform="translate(-25.997 -5.072)" style="fill:#010002"/></svg>