<svg id="DESKTOP-2" data-name="DESKTOP" xmlns="http://www.w3.org/2000/svg" viewBox="0 0 120.24 120.24"><title>whatsapp</title><path id="WhatsApp" d="M123.958,63.094c0,32.348-26.425,58.571-59.027,58.571A59.126,59.126,0,0,1,36.4,114.378L3.719,124.763,14.373,93.337A57.955,57.955,0,0,1,5.9,63.094C5.9,30.746,32.33,4.523,64.931,4.523S123.958,30.746,123.958,63.094ZM64.931,13.851C37.565,13.851,15.3,35.942,15.3,63.094a48.726,48.726,0,0,0,9.454,28.871l-6.2,18.288,19.071-6.061a49.6,49.6,0,0,0,27.3,8.146c27.363,0,49.627-22.088,49.627-49.241S92.3,13.851,64.931,13.851ZM94.739,76.584c-0.365-.6-1.328-0.958-2.774-1.675s-8.564-4.192-9.886-4.669-2.294-.719-3.257.717-3.737,4.669-4.582,5.627-1.687,1.081-3.136.362A39.6,39.6,0,0,1,59.47,69.821,43.284,43.284,0,0,1,51.42,59.88c-0.843-1.436-.088-2.212.635-2.927,0.652-.644,1.448-1.677,2.171-2.514a9.623,9.623,0,0,0,1.446-2.4,2.616,2.616,0,0,0-.12-2.516c-0.361-.717-3.257-7.782-4.462-10.657s-2.409-2.394-3.254-2.394-1.809-.12-2.774-0.12a5.34,5.34,0,0,0-3.86,1.8,16.054,16.054,0,0,0-5.062,11.975c0,7.065,5.182,13.89,5.908,14.847S52.054,80.9,66.763,86.647s14.711,3.829,17.364,3.588,8.558-3.472,9.769-6.823S95.1,77.183,94.739,76.584Z" transform="translate(-3.719 -4.523)" style="fill:#010002"/></svg>